<mxfile host="65bd71144e">
    <diagram id="kroa2Enb3uIKMZ7xdOIZ" name="第 1 页">
        <mxGraphModel dx="1020" dy="1831" grid="1" gridSize="10" guides="1" tooltips="1" connect="1" arrows="1" fold="1" page="1" pageScale="1" pageWidth="827" pageHeight="1169" math="0" shadow="0">
            <root>
                <mxCell id="0"/>
                <mxCell id="1" parent="0"/>
                <mxCell id="10" style="edgeStyle=none;html=1;entryX=-0.028;entryY=0.324;entryDx=0;entryDy=0;fontSize=18;entryPerimeter=0;exitX=1.022;exitY=0.338;exitDx=0;exitDy=0;exitPerimeter=0;endSize=14;" parent="1" source="2" target="4" edge="1">
                    <mxGeometry relative="1" as="geometry"/>
                </mxCell>
                <mxCell id="2" value="" style="rounded=0;whiteSpace=wrap;html=1;" parent="1" vertex="1">
                    <mxGeometry x="60" y="-280" width="120" height="820" as="geometry"/>
                </mxCell>
                <mxCell id="3" value="客户端" style="text;html=1;align=center;verticalAlign=middle;resizable=0;points=[];autosize=1;strokeColor=none;fillColor=none;" parent="1" vertex="1">
                    <mxGeometry x="90" y="-335" width="60" height="30" as="geometry"/>
                </mxCell>
                <mxCell id="13" style="edgeStyle=none;html=1;exitX=-0.035;exitY=0.595;exitDx=0;exitDy=0;entryX=1.003;entryY=0.624;entryDx=0;entryDy=0;entryPerimeter=0;fontSize=18;endSize=14;exitPerimeter=0;" parent="1" source="4" target="2" edge="1">
                    <mxGeometry relative="1" as="geometry"/>
                </mxCell>
                <mxCell id="4" value="" style="rounded=0;whiteSpace=wrap;html=1;" parent="1" vertex="1">
                    <mxGeometry x="990" y="-280" width="120" height="865" as="geometry"/>
                </mxCell>
                <mxCell id="5" value="服务端" style="text;html=1;align=center;verticalAlign=middle;resizable=0;points=[];autosize=1;strokeColor=none;fillColor=none;" parent="1" vertex="1">
                    <mxGeometry x="1020" y="-335" width="60" height="30" as="geometry"/>
                </mxCell>
                <mxCell id="15" value="empList" style="text;html=1;align=center;verticalAlign=middle;resizable=0;points=[];autosize=1;strokeColor=none;fillColor=none;" parent="1" vertex="1">
                    <mxGeometry x="520" y="-320" width="70" height="30" as="geometry"/>
                </mxCell>
                <mxCell id="19" value="Emp" style="text;html=1;align=center;verticalAlign=middle;resizable=0;points=[];autosize=1;strokeColor=none;fillColor=none;fontSize=20;" parent="1" vertex="1">
                    <mxGeometry x="525" y="-360" width="60" height="40" as="geometry"/>
                </mxCell>
                <mxCell id="28" value="" style="shape=image;verticalLabelPosition=bottom;labelBackgroundColor=default;verticalAlign=top;aspect=fixed;imageAspect=0;image=data:image/png,iVBORw0KGgoAAAANSUhEUgAABCYAAAEpCAYAAABPxSNNAAAgAElEQVR4nOzdz0ojzf4/8Pf58b2FFhHDHOXIQIILR3DQC4hZjLa5gwEnQnAjuunJrI+TjeImBHSE5w4yPbqIuYCIguMiJDAEEoaIiH0R57eo/lPd6e50YmJ05v2CB54xSXdVdVWn61N/8q9/z/znfyAiIiIiIiIiGoP/N+4EEBEREREREdHfi4EJIiIiIiIiIhobBiaIiIiIiIiIaGwYmCAiIiIiIiKisWFggoiIiIiIiIjGhoEJIiIiIiIiIhobBiaIiIiIiIiIaGz+3MBEuoDrlo5cnx/L6U20B/jcy7SG4lUT59rozyTKrYm2/gwnM893XVx7+oEGrCf9Edeh3Wqi3aqimB7pycYrXcB163nrwlO9mjb/CsuWxuxZ7m9ERERETzfSwITdWTX/szvImu76u/OahnPP38V//T9YqckF4OIb9oebpb6pxeoIOhERAw7pFBZRwUl+yKf3sa/OYWZ2DifYRPuqAHUoR32+wMponSH7fg4zs6eoD/vQmu5f3nIn1tv+RmYNRS2Jx+M5zMzuojy5+QKunRwUeiGBIfv+53Nfc103Oa0vsWyfQsO577Xo/g4YSgDyidRiVaSnj3tb973fuZ/Zx/PLq0/blc/d/dng70e/78FB8iI41+Z11z0iIiJ6iUYUmBAPYBmcYmZ2zv7vg9xBNirY6Xotjw/mv3cuDKBmfV7tM8CgIbMK3FTO+k656GD3e76XKfcxCfwsQ3/Gc+6rp6grC0iNu/NHABo4sdrYcQOJrRfQKX9mOf0Qiz93pfvQCrIl93ues82rxSra6TvsHDd8XtVwfrCAmz0zrXu3WDz4G0e7DZTtMqgAq4dj7Qjn9CaOpn6I76Qh0bMrZn08RV3K71L2DChtY8msryc1wLgw6+/7bedeXnO+W09qcWR8gwzd34MD5yVdwHVrHZ29EQRXiYiIiDCqwIT2CSmlgRP1GYbqfc+/jETth7sD4h2Fkh/kvDM4PA95vWZ+OA/NYkRJHvU6WlWA+U3f0T/3yJenA+JJk/U58ZlDpBQgsRU2CqxhZb6B71l3cCbonDm9ifOiWUa6ZufZmcmiIyenKWgWSDqGCSkN5y0dRfOc55o14ibl1XNdrLKMls+UM7oaes08ZSuf8yAJxT8nPryj7+7jhl7PUO5R4q4RYk9dcM0u2ooDShJHva5L/hJ1KIi99SmDCHXeVfYB1ww4Q+cBSCxr9j2gmncf06kD3jLyjpSHtwd3OQWV3xpikyHFLuejq2PnM3vL9Z4e1yyAnl1xdzAlanHddd9SkwtQEMeKBvQqW78ycrUlqV64/72G4lUVRc2/LMKvmaeeSJ9Ti1VcFwu+nxOf2UQCClIHPdpLqYwbA5h4Y5bvSOptuH11DjPj+i6LYP+yASjTSHhf8PkeHDgvpW0s+QT1iIiIiIZlJIEJ9Y0C1C7FCKT0sOx6eJc7U0OdGrqGYlpB+R/Pw5c0CjUzO4eThyQy1jnzqjOiuleBdyzJWqZgvT6RNh+G86o5Ei0eqnP6JiYudl2jXu6ZH+aImFkuR1M/nOMeAxm5s5BWnFFD6XNipG0XZQOoHwePAqvFdUx4l7KEnhNIrE7j+14FxvwmNu53cVKTOgSII5O+M2e5nKI+v+4JEpidl4MkcPFVSk8cKXOELrFljbgpiKXNzxxM47t9XU4Bsyyj5FNZXUBnz5zaDud65nT3bJ2dC8UZUUwXcO0alZaud8AUaicQ9QmpB3kWkDTK3qNsg62heLVu5kPk5ebdZ6dsNR3tLXddcM0uOm64Zx8FdTq0ZSQgdWZD2oNarCIzaR3TugZW2QdfM8CcMTO/ifYWcOIzC0HUAWekd8O+JzizpaxrZr+WLuBaKgOrTYk2EVZ+Z8jmxYi77z3GKgPf2QtyenZRNho4sQMKYef0Bq96BIzksplSYNyL8WhrZFtug6FlG1hPolCQSgP/tfIqtSUASGwtozrbfc3UYhUb985slJ2fC/gi3eOV1SRw3P05cT91zxQInLGSTmFRMZxR/1HU217t/imkoLQVaB223HLc+b61BXwPEhEREb1Q/zfyM+RVzOTFg/aG/Hejgp2AkcMn0T4hhVvsdI3saDhvbbpGlYz7NQC9l3uoxaqY+WBrIAGItOdV7Lyp4qjVFAGIbLTlI7nlODAfR7u1KSXoDioAHWfoPBwic9DEdXLXCWZEZk7h3XN/LuycAGBcfMM+UtiAOdNCP5Q+baCct65XHtXaJlbewqPh0xk1xMNxch0wR+/OD6xkLiOBOBKtJjLS+ztpABFG5gw7ACLKa9HswMUmDZTzzgO5XrnFl1VzRDG5AMU7m8ZS2sZS2Hl/3cHY2kS7tdyVz/DrGSKdwqKiQDloon3g/Ln+1jmucbE74EhlHBm7bL3Xpr/2IDrHZ+HXDAVcHyTxWGsA82KkP7fcxMa9U4cNKWi1f9lAZjlhnnMNxStPx61mveZjMibKtkf5OdfUmmFioLzX38hvTv8M5Fecsgs95xmy7/tfQuZIoHhlLj/JniGnm/UpHV62T6snQL1kte3u9BtSgHNfnTP/fw2pdwoU5RDtlnSfkK9Z7dQOjtTvDWSmQq6nizmT4gAQyzrk6zWCetur3T9F7VQKFoo6HhvGcec3nXuN6xymwO9BIiIiopdpJIEJ/beBo3ex3p2yEcgtx1EvqV3nzembSEgPcF2BkiDpAr6sAuW9OfFwnC7g+mC6622GYUCZ7C/P9ePgUU2rA2AtafB9+AxiTuH94PNQGnTOrmnAfcvjw+wAH+snX6Nmdv68g5p2mXk7uZ5OU9j1DDWqIJ1voEgIaw8ikCNmNB0B3QG3gGuW05PAxS4+ZM9EMG+riQSA+mWU4N9npFDBzqwoB7VYxdGU+WKpjBstKXVWGziZlcorUvnl8WE2L477UQNK0S6UmBXwtbvjGnhOnwALEKme1+8NZFY3ETuew1JeHCs2CTxeniH38XDgsh2d/oM8Tz3uKOptz3b/EvWoT0Hfg0REREQv1Wj2mMhfoq4kXdN6n0W6gI1Jv1+hEA/41jRppAvYmI94zLfTUGCgYz4k5z56HmA1HUfvbvHf9ys4eejOs/7bsEd3ZfV7w14CEkbProjlBq5jiPXmzjILWfAU3qjn7CldwMa8Z417uoDrfn/x4NcdjPmwXxcIy2fYZxSkPjoHzX1MQjGnOuu/DWB+2SwDDedyh8QzTTx4SryY5n9Sc/ZsGLhsSx08hrSV/csGlNVPwcf9dQfDb315qPD2kPto/fqDz/KQkGtWvzegTImU6NkVnNQAwGcvBDMNxXQc9UvxYmJKAR46ZkdKQ0aeoRS2hKZH+XklpvqYS58u4MvUj+4ZS6HntH6BxfNfhOCbXrmFIZeXtJdEr7LtWU+s+0e6gC+rw1hPYLYzbdBf4KmjY0h7nkQymnobvd2/EoHfg1FYS5H+xk1XiYiIaJxG9KsceXyYPcWjuba73WoiMw88/pYe8Eewx0Twr1CcIVtqQLHSczCNm6i7kue/oWyIKfHtVhMb9xVnV3JrXbe5xGFfNfMsryfPf0MZTl6tfTZE58I5bthmfu2DBdzk3aOz+/84a+ddG7yZU3jLPqON4efsRdqo7mABN3tD+BWD0jaWjhvS5pbdm9kF5jPEvip+TtGue5MV7FidlLwqlUF/u8x7f6YvA2eqerTrKW/4Z+Uljw97ch49nYK8KvbICGorpW18l88baV+L8Paw/08FE/I1kY8bcs307FdPuTdQN+LISPmxz9kSyxWs8tv/R+xt0rauy4W070P+m+u47jIKK7/uDSwzkEaarf1v5A1E7fpnBq1cewREOWcP8jnNpTb2OUvbWDqGcy2lvSR6lm1IPdGzP1C38ncwje++e2r0b1/ddd3b+ruPizro1KMo5TeaetuL1e6PVhWnngz9J6CHJ+zXmAbPi3wPszYk/vt+5YeIiIhG51//nvnP/8adiKEwl1h8f+rP/mm6+Dm/kUytHzVzDXNp2KN9Gs5b6+iMZNo2vTQ53b0vhLNh6NOuf9dxo+pqk2v2Pgz9779Cf6pR1dtXZVjfg0RERETPbPSbXz6XIW1glluOAw+XrzAoATx94z0i8yc276U/eZYzPTf1jQLgTvpLAjHFMwOL/nIvr96OxSg38iQiIiIaoT8nMPEEOV0sNQFgbmr3WhcXEz3VGbL5FK4P5F9bEJsRjmsEVs9+Rerq0NnUEIBxsWtuEEkEvMR6S0RERETR/TlLOYiIiIiIiIjo1RnR5pdERERERERERL0xMEFEREREREREY8PABBERERERERGNDQMTRERERERERDQ2DEwQERERERER0dgwMEFEREREREREY8PABBERERERERGNDQMTRERERERERDQ2DEwQERERERER0dgwMEFEREREREREY8PAxIu0huJVE+1WE+1WFcW0z1vSBVy3mrgurj1fskZ9Tk1H+6oA9bnP+4fI6QFlpOlot5o4154/TUP14vKxhuKVjlzP9/ikWdNZn4mIiIiITKMNTJgdiZfyAK4Wq2jrL6ZXE+IM2fdzmJk9Rf1Zz6vhPCgQ8gxyy3HUS9vQx3P6pwsKrDxRtHqrYWW+ge/ZsyGf/fUbfrsXwYbrYgJ4uAOK1eDrnk5hERWc5M1/azraLRHMePydwPlLCLSYgb/QQGiAnG59rtldxub938ovEREREVGQ/xvlwXPLCsrHFSymU1Bx9no7nC9RaRtLpT/onOkCNuYb+O7XuxtHXl8ZtbiORO0HPvi9mFcxk/d74ZV5Mfk4Q/b9GdRiFUfzCoz7Xcy89w8I5T4mgZ+7zr0vr2Imr+G8tYkEgJPZOew/V7J9aTg/WMDN3hyyJYggxYGOXEntmS61WEUGp5iZFRdFzNipYylrls27W+wcA0dbI88EEREREb1yI5wxoWFl8hblfBk3WEDKOwpnj6Y1u6dnu0bwPDMuPK85n9Nw3tKRk49rjeCZnzlaVYD5Tf/jWssn+hzxVotVVz7kY+b0Js41Def2687IoVqs4rqo9V6y4UMepfQdbQ0sWzkt7vSIY24iAQWpg6DXg84pLz1xl6HIZ8G3DFzlmFwALr5JnSHPMbvO633dfVzXSK78WrqA66sCir3KsC9muW7FASWJI78R5KB627U8QRzrurgWsd6Kski9A8r/yL1277X21C9PepxrpnWP4qcLuA6oC73abvAouuez5nXJSe3JyWfY0qantvtBiPR8wQ+UaxV8x+eAeu0zi0XT0W4to3rcQP34Eis+6RH3lP5nLnmvS5R8WgGtrBn4U5MLUBDHSs82oSGzKtc5DSvzgPIuBRWAnl3BzPtXPPuJiIiIiJ7V6AIT2jImfpah4wzln8BiUnpI1nS0txSU9+YwMyv++2A936YLuD5I4vHYeW3JfrDXcH4wje+z1munwJbcIYgjk77DjvlafX5dPNyXtrE0O4edCwOonfocd3B6dsU+3szsKR5XP7k6KImtdXTMfJ7U4tiQOgvK6iZiJfHazgWQ+hith7yvzmFmdhdlw+fFsLJFHh9mnb/vXCh2esQxT1GHIX3WGTUNPucaileHWPy5ax/35CGJI6lDqqwmgWP/MjATjcyq4VmGYC1nsT7n/cgnpB5OpbJ30prTm+ZIrpPPjBxwUpJIWa8fN5BIP3X5hVmuxw3AqJj1bw4zqtNpC6y3eVWkwfx3Tt/ExMWuqJtR6632CakHp3PpStNswHUzjy1fs4wmPndyYSCx7Fw/NbkApXbpqQvmf3sVTEjll/vobrtOGaBH3QSgJLGBr/ZxYbelXkubnrvdi/QsZevA5DSQXXHVP7vciuuYcAXbIK63+d6JN3V8GNJ9yFvn5fbiDVjIgajElALjvm6/72jqB05qwMSbHkGNdAwTMNCxZlm01tE5rsBQppF4cm6IiIiI6G8zosDEGorpOB5/iwduvXILmCNpgNhLwLj46ulICaITdOrusFi0ZSQQR8Z+wBYj/DF7ZNFAOW+N0uVRrSmIvY2aZrPz0+8on2sE2JseuPK5f9mAMiU9tkv51Cu3MCZjT96fIKxsvbMMjlYVd3oGkkBMcY8K7182ADkvUj7r90bXOcWo7WV/U9p/3cGY3/QZqV5DbNJwzR7QK7eeDlMDJ1aH+dfd6DtTveptXhXBk5boXPbXURVtrX7Z7xoH94yKzLzTGdWzP1CfXzbLtXs2hmuW0EESilR+9XsDiS2fmRLoVTcBQKpHpW0s+XT2/T2l3T/FGbLvg9IoZhTcVAKuZV4NvM4i2LkSUk7d51qZNzwzZhyuQJL1n+s+l0DxqomN+113ICnSqXW0D6bxfXYF2V/9fZSIiIiIyDKawEQ6hUUFooNid158lnMMonbqecju5wF+2DScb8VRP3ZGwp93s8r+qMXPSMEZ0d+58Jty8dz8liFEYI/4i+nwg0x9f1YR6q1hGO6AThTezRUjyumbSNT8R9hF596czp9OYRG3KFtpTRfwZRXOrIe9CuRaZM8gulzuWtbzV9GWXUskxilsxkT93rBnbolAyRpik7CDyoFKHTzaM1XM4MzbaSjG3Yu+BxIRERHRyzSSwIQ160HuiO1cOMs59i8bUDxLHix65RaGNRXbyxwlj7QngLmZYlXqsOm/wzp+A+wxYU1nNkcK1eJ6yMh7+Mi22CSv/OQ12WFlm5hSgIeOeQ4NmVXF8446Oka/o811dAx5eYbIpxE1L77LEPohliyc2KPkZ+g8KK5lMbmPSddShN5pGvDXZIJmX/Sqt5qOo3e3+O/7FZw8JPHFc96wepv7mMRj379kIjqf1hR+0Vbc79j/p4KJZQ1qcsF9/LfTUKwp/Ob5vbUIgLlk4RR1qTzC6ubQDNruh/rLEWsoppX+g22Wvn8WVbRb6/6qFqvISNczbMaEXrmFAam8tE9IKe7y828PeVRrkNp5n+2eiIiIiEgygsDEGlLvlK4OuP7bcDol0tT1rk3wSttYOjakDRilB+LSNpaOG85MjK4RWWnjxoMF3Ox5plnnv6EMZ3PCJ2+CV9rG95pzzqOp2661/MrqoZlWsQ+Da4mKtCGfewq/Nc1e3ozSmhFgdaQOkZJmpdjlF1K2+/9UzOUPTbRb6+hcNDwZOkO2JJevbk/nDz7nGbLvT/Eo5TP1EHU5wqDLELo3Hc3AWS6yr+6iPCmV7WQFO/1MUf91BwPof5lLaRvfa9KSDWs5Q1i9tfZdMJci7KtmWcpLIYLqrU8nPBpxne26eTCNG+/smVIZN5ObOHp3656Nkf+GsuHkceO+Io2Qezck3QSOpTYY1u5DhbUH4Gnt/gydB3GM2LBm3GifkJJnmfTLrH/yPh/hzpDNVwDzeh69u0XZuydLkNI2lo7hXJMt4CTiEpp9dRc379z3N7vdW0vctuKAtYzpb509Q0REREQ9/evfM//537gTMRwazlvr6OyNc2mHW04X67b9OulqsYqjqR/9r+n+k2g62uk77PTc10NssBkrzfnvPTJ0zoaew9iYcFTC6pfby2sbwzOEvGl6Xx3ycMOoq+LnRHE8+DGi1w0iIiIiovH7v3EngP5ieRUzUTpe6RQWFQM3z7C5nlqs4mhVgXHx8jt1++pctI60towEDFT/uKDEU4kAQAKNIQUlADGDaPB646p/f3HMkoiIiIj+LgxM0Mtk/mystX9B/XjuWUb79ezKn7FGXtPNafQAYKC8tzKkjvefJI8Psy+r9//H1D8iIiIioj78QUs5iIiIiIiIiOi1Gc3PhRIRERERERERRcDABBERERERERGNDQMTRERERERERDQ2DEwQERERERER0dgwMEFEREREREREY8PABBERERERERGNDQMTRERERERERDQ2DEwQERERERER0dgwMEFEREREREREY8PABBERERERERGNDQMTr0G6gOuWjlzX35q4Lq6NK1XDo+lot5o418Zwbr+y7cVMr/jP/Kx5PdqtJtpXBaijSe3Q5PQ/pO4QEREREdGrN9rAhNmBeykdILVYRVvvt/e7huJVU+qIvo6OJ42KhvMtBeW9OczMzmFmVsU+AJS2sTQ7h5njxgDHFHVsLIEZIiIiIiKiMfu/UR48t6ygfFzBYjoFFWfQR3myEasfz+FDftypkJS2sVQadyKGJK9i5iWVbZh0DBMwUP1Typ6IiIiIiGjMRjhjQsPK5C3K+TJusIBU2vuy7pqF4BotlqfFe2dceF5zPqfhvKUjJx/Xmh1hfuZoVQHmN/2PO2Aez1s6isVq8DFD8pnTm91LAvzyeZCEAv/PeUfZc3oT58XgZQXuczbRblVRlK6NWqx2/a03n1klVn48+XeXkfw57zlDrudThZStOK9PWq3PHCShII5Mn3XIW+7WdRPlfYiUAiS2/MvC9dkhztZ5/J2Q8irVv3QB11cF5MLqNRERERER0ZCMLjChLWPiZxk6zlD+CSwmpY6NpqPtmg4vzUZIF3B9kMTjsfPaUvbM+iDOD6bxfdZ67RTYkjv0cWTSd9gxX6vPr4sOnjnNfufCAGqnPsftzek0ejuHcaTe3Ypz7lWA1U9OekLymdObyMBJy86Fgox13HQB1wcLuLE+t1eBIaVlX53DzOwuyvIf5bSuWp/dRRlJZKROcGayYpaP+Hz9eAXZJ47+5/RDpB5O7WtSh4HynrnEIa/aeZzZq8ConUrlfobse+szfgKu51OElu0ailfr6NjXaxc37z676pB4fwMnfdYhcc2cc06kxbXWsyvStbDe41wTtVjFxv2uU09+LuDLkIIEiS0nrye1ODbk4ypJbOCrnV5XvSYiIiIiIhqiES3lWEMxHcdjSXTa9MotvmjOco7cchzGxa5vh1hNLkCpnWLJb2q/towE4ki0msjYfzTQSQMoif8v57fNJSN5VGubWHkbMb1XYtRaaODE2jvAFLyUQzpnqYPHgwXEzPQE53MNsUkD5bxzQL1yiy+r00gAQHIBSu3HwAED4+Kr+dkzdB4OsfhmDYB/B3rC85qeXRnCkhsFsa5y13CuAf9938+ajUGvZzA1rGzTKSwqCpSDJtoHzp/rTzwnIAIMR6vy3IwGEkCPsl5D6p0CRTlEu3Xo/LmWQND17IdTT4D9ywYyy/JxG/huBV3+pGVDRERERET04owmMJFOYVEBlK0m2lvWHw2k0oD+1A5O7RQz6rA3JDhD9v3TO3ovnQh+JHHUauIIEGXZx6yRIPuXDWS2NtFubQIAjItdT2DJnImQH0bQY8SMCnbebw83nekCvqwC5b05EQhIF3B9MB01QSjvPX1WCxERERER0Us1kqUc1qwHe+r67Bx2LpzlHPuXDSgBU8P1yi2MoCn7v+5gzG9G+/WCdAEb8w1UpQ6y/tsAJmPP9osawfk8Q+dBQeqjk5HcxySU2iX2rXTOL5uf03DetQ/CYHIf3Utk/AI8/e8xsYZi2r1cxbu8QS1+Rqz0xM61z/W094PoY9+F0LItdfCoJIe2VML2dhoKDHTM/Oc+eq/nGToP1uwV798VpLSw/Fn7dPT5k6feY6TjqF++lh1IiYiIiIjoTzKCwISYfu7t5Oi/DaeTnlfFngp+m0KWtrF0bCB14LMBYWkbS8eNkP0eFOdzBwu42XMvx0D+G8oQMwb63dAv+JwhQvK5r+6iPOlsxJmZrGDHChTkVZzUrA0W19HZk/dgsDqi7g0TowRr9v+pYELOx1A2lDxDtuS+Xq6y1XQcrSru8rPPaW00uYmEfe3koEiP64k6OgYAxVwCE0Vo2ebxYa8CrB4Gb0oaxNqkcysOKGYds+pJ/hvKhrNh5sZ9pWtPjf1/5PM6ZbCv7rrqbPe1FkENQBFLiPqg2Oc7xOLP3Zf1qzNERERERPTX+Ne/Z/7zv3EnYjg0nLfW0eG090A5vYmN+11nRoO9EeRTykzszxErSXtwaDraW+jap6M/0a6nWqzi6N3t8JdfvCZDKW8iIiIiIqLxGOHPhdLLsobYpOdPniUGg0kg5llnor5RAOMu4Jc2hsT6Cdi/OihhzjhhUIKIiIiIiF6xEf0qB708Z8jmU7g+kH/hQWys+LQObR4fjpfRdm102sDJ7IiDBfylCAB5fJjl+gsiIiIiInrd/qClHERERERERET02nApBxERERERERGNDQMTRERERERERDQ2DEwQERERERER0dgwMEFEREREREREY8PABBERERERERGNDQMTRERERERERDQ2DEwQERERERER0dgwMEFEREREREREY8PABBERERERERGNDQMTRERERERERDQ2DEzQSKnFKtq6Nu5kRKThvFVFMT3udBAREREREf09RhuY0HS0W01cF9dGepqoBu0k5/SXk4e/TU5vot1y/jvXABFAaKJ9VYBqvVHT3f9+Vcz8uPIYxRqKV1L5vJoAkD+1WHXy0s+1NO8zL6ocAtLkymOriXZLR+4ZkjNQ2Xrz0Hf9HDafwKGn3fvfL0Zr4HoLuMv41d6/iIiIiJ5upIGJ3LKC8nEFeJfiAxf1SXS6M5MV7MzOYcb870Peet2AgSQyL6AP+jRrKF5tAsdWHk+BrWizNnL6IVIPp3bZnGDz9QbQNB1H727ta73zcwFHkQIMGs63gBO7juyiPLk+1lkvarGKtitNc5hR884batI1q8WxMeprNmjZ5lUn/WbdrMNA59dokzsotVhFBqeuNH/I9/7ckwxcb33qyftt6CNOLhEREdFLNcLAhIaVyVuU82XcYAEpb0fBMxrnGtlKF3AtvebqbHlecz6n4bylIycf13pAND9ztKoA85v+xx2QdwRUPmZOb+K8KKXXMyLmHd1rW6OB6QKu5ZFUz7/Dztk1iu4ZlXV/tnu0Vrze33KG7lFg70hlTEpTxBHidAqLSgMnIQ/rN6UKJpb7jUy4Zyf4jlQm9ZA6Yn7ep/PRVQ5ROijaJ6RQwYnVgdKWkYCCxWSvurmG2KSB8j9Oz2v/sgFlKtH7nCZX/ZPKQC1WcV0sSOXUTz3xlm+UurSGYjqOesm61mtIvVOA+eUIdQDWk6cAACAASURBVKWOjhFHxipr7RNSioFOqecHpXz45DNdwPVVAUU9qE4H0ZBZVVA/VrEfLQl4/H3mk6aXULZuanEdidoPZMdWtuESU0rENL2Esl1D6h1Q3oteT4iIiIj+ZKMLTGjLmPhZho4zlH/C3dHSdLS3FJT3fEa20gVcHyTxeOy8tpS1Htw1nB9M4/usPLosd5riyKTvzNGrU9TnzZHT0jaWZuewc2G4Riud4w5Oz664RhQfVz+5HkoTqwu42TNHcqURfrVYlWYD7KJsAPXjlUgP/WHndI+iixFO++FX03E09cP57DGcDt2wyuC4AeNi1z1SOZ9ErNTnCPHbaSjGHeph7/lVxk3fo+N5fJBH1w1v8ENB6p1Zh/YqgOd6BlGLVffI6YXhvOg7JV50fNQ3CvDQgW4eo52+w8mFESHAcIbOgxzAEJ0kTMYizU5Si1Vs3O/a123n5wK+SNdFWU3asziij+prOG+5Z384188vYGYFbxKIKdZIvIbz1iFipVPUoSDW89qeIftezBZpt5pop++wMxuxs9erPShJpKwR+OMGEukIU+3TMUyggWreyotP8EsKjmZwGnFUfxxl6z5/ZhWuQFj420dQtj3sq6eom2XbX9B5DGWbTmFRMYBk1XNMIiIior/T/43msKKT9FgSHX+9cosvWgoqzqADyC3HYVzs+nbC1eQClNoplvyef7VlJBBHotVExv6jgU4aQEn8fzlvdTLzqNY2sfI2YnqvDpGyB9waOOmjc9Peikt/kNMDGBdfzXyeofNwiMU3awD8AyITIa/1c043BTGzDHLLcWA+jnZrU/roHVTA7pjr2ZXBpxOnC7hevsSS6slDzel81e8NZKYSsPKpFqtiJoupfiyCVOobBcBdjxOeIVv6hPZHDbjsP7k5/TOQX/FcZ6kOlTp4PFgQnQy7bPP4MOutnGKk1Bk59cirmAnoz6lJKy2ikzrzPg+1WI2U/n31FCutQ7RbhyLdFw1gqhPh+on0Kor1WVPNuS5h1wwIqCfaMhJGBTu+eT1D9n1Q3TY7ZG8LuG6JQF62JJZo9Ga23YdTzMzmkdObOGrpSERov73bQwMn1hKMX3cwlGkkrNc8bdC42PUJdJp1RdPRljuqtVN7aUdOb6Ktw7XU4+WUrcOaLfEh4myJ0ZetH6ttijrRbh3a9xPLyyrbOBaxi5nZMzvN51p+9MtPiIiIiF6g0QQm0iksKoCy1UTbfkgzkEoDesQH20DSQ/3whD18htFwvhWXHn41nLfWI31Sr9ziy2oSR60mjgCRr0gP3+Hn3L9sILO1aXcIjItdV5DH+6A+PNZslu2+PhUUCNF/GzhalTorQfLfUL6KNqtBJmYMfMXSU+tjFF2BJAAwUN5bQfa3gaPVTWxc7NrXPzGlwLgPnSticgdJ1GIVi5E+J53/OfIPoDv4Z6qdYkato2NsIrU1jZNZM1CUjmECBqq90mcv+RHlsK/uInZ1iBUNQIR6PnB7CAo2+Qazgu1fNpBJx1zBwf6NqGwt6QK+rALlvf4KauhlG+TBG4wz7+eajna6ADX/lL0bRlm2DXy37/m9A9dEREREf7KRLOWwZj3Im5DtXDjLOfYvG1ACpsjrlVsY8wHT83/dwZjfjLYeOV3Axrw1pdo89m8j8lT3SMyHUGszOLW4jqgr/HMf3ctVuoMt1nTgNRS1JOzn4tBzrqGYdi+RkUca6/cGElvhezwMsscEAOT0dXSGuV46/w1lee+AQGco/1Swkfb2HKwp2D75TRfwZerHgEt5zOO69qU4Q+cBSFj7XWi6axZI9yaCc5iZNYMC+UvUYeCmcmanbWNe+rc4YPevkHhpOo5WDamjI1jr/N1tRiwDSWlPmD5vLk9xHffXHQzF2k9GbOrp1E2x5KKrHNQ8xDU0gNqlXX9yH5NQpH8H5wWAa+p8ArGurQb8yy9Ke+hfHtVa9LLNLce7O9Yvqmyt9wftLfGcZVtHx+hevhQUxBOzrrzJfSFlWyrjxoiLAJpIGFa62j0RERHR32MEgQlzWvulu6Ot/zacYERexc6FgozfZomlbSwdG0gd+GzuWNrG0nEDia2gjQsV53MHC7jxdpTz31CGmKXQ7zpkZfWwe2O00ja+15xzHk3domz0PBQAYP+fCia2/NYte49rrVuGz2vec54hW3KXnZxPPbuCk1rcVe7D2gA0M6/4X7OBnSH7fhflyU1XXvw6Tnr2Bx4VbydEBAvQtd5bw/lBEsq8fNx+OlDmcRX3hq7y+vb2FlC+iFgRkMeHvVssuuptxJkM8t4VAXsr6L9FOsQyITm9u6620PcGhL/uYEAKxgBAaRv/vYBdbxd/VsL3CJHTmV1x9okw916INDOq636xiQnvHieoo2MAMJcLuM45gvawr87h5EEq2y1P8GG+Rz5fStkCdqAseG+J5yzbM2Tfn+LRvheLJTwiwNi9F8TRu1vseDfPfTFle4ZsXv4O2AQi7jFERERE9Cf6179n/vO/cSdiOMSShs6zTk8fXE5vYuNeWjudLuC6n06pLzHtOFaSplBruvmTdH/h7u8jyru90WXIL4aoxarY/G/oy4765WzsN9wlPFGO+3LaZJRr9nKwbEfndZUtERER0d9ihD8XSsHWEJv0/OntNBRE/5lDf93T2NU3CtDr1y3+OOb08qEHJcRxj1aN0J8xfSnEz4EOPyghpqb7zUx4gayfCn4lHWeW7ei8qrIlIiIi+suM6Fc5KNwZsvkUrg/kX0UQmxE+rROdx4fjZbRdm442cDL78jsNw+X3yxkv+bijsa/OjWSWzJN+ueW5lbafZ4PTIWHZjs6rKlsiIiKiv8wftJSDiIiIiIiIiF4bLuUgIiIiIiIiorFhYIKIiIiIiIiIxoaBCSIiIiIiIiIaGwYmiIiIiIiIiGhsGJggIiIiIiIiorFhYIKIiIiIiIiIxoaBCSIiIiIiIiIaGwYmiIiIiIiIiGhsGJggIiIiIiIiorFhYIKIiIiIiIiIxoaBiRFSi1W0dW3cyfiDraF41UT7qgC1349qOtqtJs5fxeV5Qj4HEFpv0wVct3TkRnTunN5Ee5Djpwu4bjVxXVwbRbJejj8hn33VIQ3nrSqK6SGde+B2/7xtcJxeTBsc8b0GeEJeec7xMNuv+O858hOt3b+aZ71nL78ReqHfhTn95aVpqF5THer1fT+WOjTMZwlxrNfRj4lutIEJs1K85kYqvtC7//vTKkIv3nLwXlPX6xG/oHO6t3FqOPcee8A65E5v9JtnWD7dXzjmzUXXzDR6zyFed94v8uZbd8ybY1DZBuvVaTPTaB9beq/ry2W4HS5vGQ6lrXjSG/mYIflUi9Wudm2VffeDZvQvAL97hutzdprcdcZKj/PePr50Qq+npx48xwO0p04P5QFG033q6RqKV069HrTdD9oGw+pQz7zI7dH1gOTcK4KPaV3T/sq1Z90cOu89SK6DQff7pweinj+f5jWT66dvfR3+Obu+k4b4wNtd98Ly2V1vXe2w657Qb1o1nG8pKO/NYWZ2DjOzKvbNVwZu99775msILvjxqWvdHeTg8uu6NtL19LYbtVgdYb32P2f3s+Kgx+59bxF1yfOs1LNsh6/7Huat1z5tEQi4ltIxA5+5fe7VXWXuU4d8n3997u0BwoJ6XWXgWwcCyuGprHK00+ZTPt50D/qcGmiU7eHlGmlgIresoHxcAd6lXm0B7qtmA9yrwEADJ7Pi3x/y407Z87LLYXYOOxeG6zW1WEUGp/brJ9iMdEPaV3dRRhJfzPfm9E0kaqdYyp7Z7wmvQ2fIvp/DzPtt6N70TFawY6dXQcbbiPOq73UMy6c7z5+RejjFjJoH8peoI44V+eaRTmFRaeB79sy8wa2js3eKeteRNJwfJPF47NQzrB56bkT++Qyn4bx1KNI4a+VpBdmSO/9O3R4GceOW60K/bUWUv/TABIjyk78M9yqY2PI8YJS2sTQ756o7AELzqWdXnOtcE2nu+vwArDp0UgOMi11XGajFKtrpO+wcN/w/bBiYSId84QyQz5zurgdR2+eTmOkU5/Sr98PnbfcntXjEdu9pg7OneIzYBp9Sh4yagVjSDIQlp/FYk6+aIT38ifS4rlk6hcWHU5zUPPedHsLqpvs9njYYhW/dNMvNVRcaOFHzAPL4sFcBVj+bbVnD+VYc9WPpPjWgKPl03jdAXn0ZMJBEpsf1GOo5jQYep8zvxnQKsYeG7728v3OK745YaRdl3y+GoHzm8UH+7qxZ9xzzvNY9QX6W6uc7LR3DBAx0PHUjUrsPyucW7Ge6mdldlCfXPR3XQb57X6iA8oOmo+26/1n5zaNaAxLL7gB96p2CemlU5ZHHh+MGEltSRzddwMZ8AyfeaxD0XfgE4lm28SzfV1FY966uQBIAaMuYuDhFGQtI+TwL2XVaaqtRnrnrXfVA4leH8qpoc1InXS2udx336WUg0n7UNWC0CdQCnqcCnvNtgXVIw/nBguc7WXDKZxflyU0nOBHlORVAf/eUPtrDH2SEgQkNK5O3KOfLuPE2HCA8shQ2euV5LexzfiOeQ5+CFHWkzXpf4Iitu+JdXxVQ1EMibwNOSQ46Z073lpd/pK6bhswqUP4nb/97ZR5QpEBCYD5xhmze7IjrOjLz1gOrc+zAOiTXH0+6M6tAOe80Wj37A3XF+rxcDwYcmdN0HL27xY6d1u4vcDW5AKV2KT2Q+T9sq8V1JIwKTqxDlbbx3wvDOVZgPnulcRkJoyKlsV8xqZw8bcW4A6Rratd57RNSivcaetMV0O7lduQdnfiYBC6+OuVX2sb3moLFpPXl+lyjoha/UeBo9xM9uxL+hfTwA98ffO6XGDSfa4hNGlL7BPYvG1CmEhE/7x4Fta91uoBrT/vpdyQtJtUhd37kc27CTumvu4AAmoFOSUNm1f3AvK+eRmr31kOU8/CSx8kQ2qC473XPijjXAPWNAtxfojOVgoo1pKbuUL0POpJ4OHHdU5MLeLzMY/+y4e44dH0vRB+5Cm6D7lkprnOZ5RG1bub0TeBYesAubeO/F0DqQMe5+ZDsfYj0qyc5PWDmWZT612u2WNA9KkLZ3pQqmFj2KYA+z2m1te42Jc3ES8cwgTtU76eRSovgVufyLvo5vfcx+3URYAgLKAfmc2Ah91SrXh4koSCOjOte1Kvdh6mjY0gdKu0TUorU6erR7uXnmqNVxf57Tm/ivOiMtlptQ9Qb76i9/G+fZy7vaPQgI7Kh5QfkluMwLnb9A3eXDWB+WXo2FQMu1byUV02+X7u/B3vNtPXl6eiK7/9v5j2ju564y+AJz/npAr6sGjhRL6N+wibnMzMvv+KdReR5zg/7d69zLiu4qeRR/gn7WahbAjHFQOeX9e9ez9wBetShffUU9flNu47LfYKw78H+nKH80wAmY1LfQgwQfui6ZGHP+b3qkPiemrj4ipPA72SRnmy+AsNsH72eU7tmV8r3FPO7K+f3XB3aHtysc7zmVQrAKAMT2jImfpah46y74Wg62q7pQNKXYLqAa0/01olmaTg/mMZ3afQFUiQp99ET9ZUbnPbJM3o8hBGLdAHXBwu48Yxs+T4wWe+zOiWajqOpH056juGKOEJJImWNPB83kAgbRY0q5Jz7/zgNTLx32d1hDiwDKYJqzQw4rsBQpkWHolc+rY74fBz1Y5+IcFAdMiOhXbMafEcF6ugYCmJvAWcEb9BR3JQYZfF0Lt1f4OaowmXvG35iSgEeOu5R2N/SzTconz2ob7qP25f5JGIlZwRqQ77RKUlkrGu6VwFWPyFnndMKxkgPUE7gIqTdW1H+rpkEa4hNAo+/3RHt+r1hd67FaGDQ6N4ouEeBT2oGynvDGnUF9i8NpD52f2sPls8zdB4Uqe2soZiOu77cg62heLWOjn29dnHzzhzd9nzp9j+SFkfKqkOu+5uG89YmIM1ecLVT877iTKVNIKbAafe/5DdHa/eJKQXGvfuvw2iDenYFOxdASitAxRqKmvh+cjoAdZTvp5HSUojdl7H/2wgOGP26c+6pWEPqnSE6B/lL1OX7dl4V5Wl+L4oHrN1oI1eBbVDUodhbuDr/6hun3CLVTU1HBt2BBz37FWUjjoTvQ7J/PanfG5h4Yy17MZ8B3k5DiXLPC5stpuloy6Po8qhXlLL9VcZN16h7j3N6Rtqs2QZL2TNPUB3umXimeuUOsaSG1NQdyvkOHq16Ejorbg3FK8+Mun5G4ILyObCQe6rfTAvrubBnu+99zhNsiu+q9B125OfCkHavFqticCJgdmVidRrf9yow5jexcb+LkxrM+hrGExCFFTT45nynBtXNMGHlF/D96iTJPRvUNeBi5XVrGVVptspG0RkwcM2krfVIp0R0dNdRLOrITFbwX7u+e+uJ54MDP+db9+eA9ytJHLX8gw/h+XRmEVmzdzf66DQqq4cBgUVz0K4E6JXbrhnFTidYdLBdg2Jhz9wAEls+HfbQOmTm07w/F3X3OXt/D0YlnjGMn2Vxn7IDSX4HCnvO71WHvHUuRKmDRyiIpXs/p1qzK63vsi5KEhv42vVcDYS1B4d8TxrmLKJxGFFgQjz8WhfJ23DEzfar/whycgGKz6gJANFZlqJ1YjRNQcy8MdfvDdGo/Ea1ft3BmN8MiKAOGGV9Ow2l9kPKhxg5d30BzW+ifTCN754R89xyXLxmnXPL21mQHtJcD6XWqXpMUfIRes7SNr5L04Jzy/H+putpupNP6SGhdz7Nzjm8X9zhdWhclNUkfLsO8he4Z1RhHKwyHZjUBuWbqyDVzVIZN4bTBm1m/ZRv+mHt/rVSi1WsXD596rlL/pvPlOLB7asiYCra4GfgZyNa0CqdwqKiIHVg3RcPkVKcB/79f6QlVukUFhEhkGkLuL+FBURLHTwCANYQu2/g8QXcD3rRsys4eUjiqHWIxZ/do5J69hKxrWlU+3mQ0D4hhTvzgSuPqnc5R14Vy9da4oF5GA8pdiDgLfD4IEboE1NKcIemO9EioOv7EGkGl+BzHwmoJ7oVxEnH0KkBK5o7UDIo9Y3idAQB5/5mdXJ7lu0ZsiX/wGJf7O/IPE4unKC8mlzoHi0rbaM6tYnYZT/LIsR3VKTRUl9DyqePkdxTfbmXHop2GuXZr3cQ1qlD7iBSL3r2hxRo1LAy73y+Z90ciNX2gsizQf0HXOQ07atWp0jDyrx7pp5br2duUe9Tq30+h4Y+5wdTi5997882w1kq5H6u6S+fR6tKH7MVPUs5pMChWlxHwvoOL3XPKHY6wbu4eXfYNYLu/8ztWXZ33EAiSuDLkv+GMpJIzXfX+V7fg2Gc4Iz4rBVQK2oLuBnigJCg+Q48Pg+p3ErbWHIF1cLbQ2KrKQaA/5DlHaMJTKRTWFSkyNtBEkqkqXUR1Nzr1+V183ZjvFzujjDa664usdI1vce7DnaIlb126r/HATxrufodsRhQ2Dn3L60RKfGFGKljXergEXFk5NGGt9NQjDs7UhmaT82cTnbcgGKvNcbgdciOYMp/9E5nG5xxsRtwPZ3RDr9RhSD1e6MrUPPk2Q4Bxx011yjz0Jyh89A92uQ3yj16njpkzgYa/n4z4qF/MRn9ASacPGqzgjL6KDvPA5l7lksZN+b6VTW5AFgjGaOWTiGGb6haS16MO9Stdu96SI/W7rsDb8NpgzLDcJ/D6dTn8SHK9410T80tx10jeJl57zpw55zDao/6bzEinFueRvUfMUIfm4x+T1WL6+4lHBJrnfNJTTFH1SIwl/WoyWngn0tgWeszUPI0oWWb/4by5HL0jpHZwbQCgEerhuvBWK/cmqNna0i9A24qZh6lGSL76hj2veo3n1H0e099Qrv3Bmf21V2Ujf72bBk+EWjcKK6JIG3E54ggvdtDHR0jfDaHPZt2qAMuvZ+59cotDPR5vtDn/CBiOZDTARYDnqmD/pbu+VGLn5FCJXBmzWBEgMgZ8BMDBv7LOc6QLXmWbgY9c3vlL/ucVWwutQips97vwSjk4IwdCNY+ISUPmmw534lPWc6rFtddg99Hq1Y5B9Qje4b26J9Tw9pD/Vjsd/Hal3BYRhKYsGY9yA+zO1LUf/+yAUWapiLTK7cw5gNGC81oaM+Kl1fFFB7vLAPxIj7MzuGk9tRIs5WeddfaqY15w3lwMNnRQukmJ2Z3PGGfiwH2mOh5zvw3lLGAjL6OCdeozBqKRWdn2tQ7+QFQRNTt6VXmTAfr3+HntDY7U7GfV10Ppr3qULA8qjXFNZIjHnx/RBiBCcunw+96Ak7d/RJxGYf9GUXaSCxdwBfXnh2DEVOAnU2OvNRiwb4manIh2hRoP9onpCCmFCJ/GXrOsHYfputz5hdrlJGoQfOp/zbca2u964+h4Tx994Q9PHrIX+JxdR2LEd8eOZ+ajqNVo6vsun8RBOKhP+R6Wg89iWUdGe8xtYK0q/kyElKgMtSvOxiufSGkPSbMKdorH6fRqZxh/9LA4sdlTACwR/akJW9R233Xd86Q2iDgbAy89P4rypMRvrv8pAu43rJGSswRuj35of7UvZzD3APnv+/FfSr4+vXh1x0w9QkruMR+qQO8W0bMbyO9gPR/eXfrPwtGc9Y5i70BIqa31MHj5DIyU3col+roTC5jpWtKf//034bnXiP2zbEfBiOV7RnKPxVspCPOWus1/dyazah/QuohyvdYBKUybox4X9PKu/WZz54GuadGa/e+9zcA7lk6vWYPWEQnRN6DRt5jojfn2TOnb3Y9o4qZaJ9wnlZc96DQuum6b8J+Fu3dHsyOa1gH1aorWvQBF+teLa+vd++9MGr9POe7l1uI6f/mPbZnXQzPp3uprgiAuFn1TyxxiFSLrICanOa9oA3izedxu3Mc/MztJfY/M5/tnmgo34MyeZmatTTCHER5SoDWtdxiVt7E128Gl9g025rB9pTn1Kc7Q/Z9wFYCr9AIAhP+071cN1VpOqTvWqZjQ5o+LK1RL21j6bjhWgPlzIrwTg1zb7Ll3XjEb61r37xpPUjiMWBH8X3V3MHVnGKmZ1fEhib9bgz0BL3PKfZySMzDE1w5Q/b3shOdfXCX3b4qpot1T7cKO6fZ6ZCWDFgPpkf6Sc86ZF1PJ6LpRLedsjav9aS8CaS1GZEUFbejoeH5lNnncM3KESNfSteognxOaxZI1V6r76rTnjoUlk9BcbUV9wZm8hR+9+iBnu2YIwrmCF1fD4PS9XRNe+s+Z2ZeGrUJa/fWnhRS5NvOi/dzW4q0p4PV7g+RkmbYWMcNy6df2cobDoWfcxMJ17rT7p+szMw70xB982mVo++GfWLqnmI/qQyeT9eGad511KGsX02Q65AnyJi/RH0+3j2yly8DmlR2+YizwezNEEVeu38ZQEFi8s4OhD3Ox6VRY3PX7n7bfY/7eFgbDKtDarEqXQuxUdbEVo/7vD0KL7Vrc3+iD3mYQR7vw6LYxE+Msuqu8raX8Xg2qexZN71tEADm45i4rwPIo/oQR8JeThJWN80Hbs8a7fZVAaoVcLG/p81NPqM+XClxJNAx9yBSkJh3AiWh+QwT1u57lK1Mz/7AoxKxs5r/5vq+8mtn+5cNsSY8UsDbb0mMl/MgG/wsJa5nWPn1lU+/DfRc5wy+p4YJb/chup41xZ4hrl9QCnzGEJv92ffUoF9Z6mLOrDTbyMb9afe+LKUybhBHAp52HlY3+3gW7U6SihnPM7f7O0mMhCtK9AEXeZPFdquJo3e3KPexx8Sgej/nBz0vDcqTz6kfrlkRYraJ1bbX0bmQ6om5T5PzXRdt3zPfGbnmIEJG85bBIWIlZz+R4GduDV3LTt7dYmcIs7gjfQ/Ou+9/w/qZTf/n/Kdx+p9iLyx7FkfoM+NzEM9rE0HbGbwi//r3zH/+N+5E0Mthb6Dyh6xVej00nLfW0dl7jrW1RMPibFb5Un5CWS1WxXrLUc1moT+HpouO5XN+33nP2ZUGsTGlHOB3Nj4c8EF3HPl8Zn9Ou/e5/n+AnN7Exv0w8yTKKVZ6Od899NqMpw79Ofeq0Rjhz4XS69P901v0XPL44Bq1GNLP2RKNUNfP3b4AevarawT6T1l3ScOXW44PdS+RQc6pvvHOOBBLCpxlhOZ07ICfiBvknH+iP6bdm0s0nmcK+CuWTmFxSHuH0V9qLHXI/HWRZ98j7fXgjAmC/dNhitho5k+K0hPRCGi6uRylMfgoLtEY5HTp5/6MyrPMIgg/p/P9a7G+h+3P1U77Hl0bRz7pCdIFXB8kocBA+Q+cOTmUGRN2GQn1FzRTj16JsdQhzz1+gPv534SBCSIiIiIiIiIaGy7lICIiIiIiIqKxYWCCiIiIiIiIiMaGgQkiIiIiIiIiGhsGJoiIiIiIiIhobBiYICIiIiIiIqKxYWCCiIiIiIiIiMaGgQkiIiIiIiIiGhsGJoiIiIiIiIhobBiYICIiIiIiIqKxYWCCiIiIiIiIiMaGgYmoNB3tVhPn2rgTsobi1UtIR0TpAq5bTbRbTbSvClD93vNiypaIiIiIiIie20gDEznd7JCa/73ojqemB3ecaXClbSzNzmHmuDHulBAREREREdEL9H+jOewaileHSKGCndlt6KM5yfPKq5jJjzsRfyiWLRERERER0V9rNDMm0iksKg2cvA8KSojlCG2fKf5qsYrrYgHn9kwLHTn7uAVcXxVQ1INmYWjS55q4Lq65T2suGXB/1vzMVhxQkjiyXtetA8tpraKY9uZVWqrgOWdOb+K8GLaUwTz2E2ZqqMWq73n9ylZ+f1DZ5qTXu8oviKcMoucnuGzVYrXrODk9ej6JiIiIiIjodRhNYOLtNBTjDnXfF8VsisWfu5iZncPM7BxOHpI40p0Ig7KaBI7N12pxbMgdZCWJFE7FZ48bSKStDukailfr6OzNmcfdxc27z05nV9PR3lJQtl+fw4c8AOTxwVpqYFSwY742o1pD+GfIvp/DzOxpd37SBVwfLODGPuYpHlcPXcGSxKr1+i7K0D+GUQAAIABJREFUSCIzxOUsarGKo3e32Jmdw1L2zP7bxr1Ttjs/F/DFKj9Nx9HUD/u1mWMgI5U7lCQy1ut7FWD1kxO4CGMt15CuZ7R8Bpetnv2BurKAlB2s0LAyb+CmEiGfRERERERE9GqMJDChvlFCXk0gpjTw3exIA8D+ZQOYjDkj3rVTM2gA1O8NKFMJ6fMNnFhBg193MJRpJABzloaC1IE1in6IlKIg9la8Nbcch3HxFdnSULIovJ2GUvshHTOPag2YeON0kJ1znqHz4H7N7pgHziwJlthqiiCD67NrSL1ToKwe2jMJjlYVu/xyy3FgftOZZbAVd5e7XLalMm4MBTE5sBM4G8U9UyUz783nIPI4uQAWk1ZQZRkJu6zD80lERERERESvx0j2mNB/GzhaFQGDZ91fwqhgZ4BO/mtUP95FJ32I62Ldni0hGCjvrQQGYOrHc3bQpy8h+0Dk9E0kaqf2LJOc3sTGAKfw0iu3+KKloOIMieU46pfyYo3wfBIREREREdHrMJqlHPlvKBtx9zIBWx0dQ16esYZiOg7jZ/lpAYVSB49KMnA6//5lA0rY0gR59kVUv+5gzK87y0XSBWxIyw16e8oeE2fIvvcuHTlD50FBSvM/Xv3eQGJLj7Y8Q/uEFG5R7tnxX0NsEjDuzcUY6QI25iNmoZfSNr4/LCCV1rAyWcGJHRgJzycRERERERG9HiP6udAzZN/vojy5ie7NJp0Otb3k4uHUM+o/iDw+7FUAaXq/a3PHvIqdCwWZoJ8vLW3jey3uvG4HVaxlCptIwFoqYm7UWNrG0rHhLB85SOLx+DlH8UWeJ7ac9O6rYi+LI5986tkVnMh57FqSIb22hZDNS2VnyJYazrKKg2ncXBjOy9YSEHlzUTsQE1K2pv1LA6mDTaDkTktYPomIiIiIiOj1+Ne/Z/7zv3Engl6AdAHXB9P4Pqtif9xpISIiIiIior/GiGZMEBERERERERH1xsAEEREREREREY0Nl3IQERERERER0dhwxgQRERERERERjQ0DE0REREREREQ0NgxMEBEREREREdHYMDBBRERERERERGPDwAQRERERERERjQ0DE0REREREREQ0NgxMEBEREREREdHYMDBBRERERERERGPDwAQRERERERERjQ0DE0REREREREQ0NgxMAEC6gOtWE+1WE+2rAtRxnzNdwHVLR+450kFEREREREQ0RqMJTGh6V2c7pzdxXVwbxsFx3qqimB7CoSylbSzNzmHmuDHEg77AcwK+1yby56xASquJtq65Xs7pQa+toXglvea9dnKAZtjXlYiIiIiIiF48zpigCDScbwEns3OYmZ3DzOwuypPrdhBBLVaRwan52hxOsGkHodTiZyz+3LVfmzk2kPqoOcc9WMDNnvna3i0WDzhThIiIiIiI6G8ypsCEZxTdZ3aF3wi7+PsmElCQOrBe93RkzZH9c/eA/tN4Zgt4j+1Or5Qe12yA/peJxIpV/3N6juueieKdoWClR8N5q4n2VhxQkjgKmPmgFqs+Mxfq6BhxZKz3ap+QUgx0SuK4mVWg/E/eKiyszAPKuxRUAPpvA8rqZ/N4ayim4zDu6+a51pGo/UC2ZJ47uQAFcawM89oRERERERHRiza6wITc+W01kZm3XlhD8erQNYp+8pDEkdXpTRewMVnBjj06v2J3XPfVOczMnqIOA2VrlH1Wxf7IMgERlJBnC+xVMLHlDpZkXOmV0mMt15DymYnc6Y4jNfXDnGXQQCJtBjXSBVzLswxmT/G4eugELrRPSD04sxec9OTxwVo6YkjpVfNBCZCcIftezIRot5pop++wYx03HcMEzCBFuoDr1jo6xxUYyjQSAJBXzZkQTbRbh4iV5rCUPQMAJKYUO0iR05s4mvqBkxow8WYYS36IiIiIiIjoNRhdYELu/M7O4aRmvZBATGngu9k5BYD9ywYwGRMd71IHj0oSR4PuN5BXMTM7hw9R+tsRqG8UGBffpGBDGTeGgthbQMwOMFDOb0P3/bQ5S0EKzkTvdDdwYgUNft05Hf2301CkWQZAHlW5M//rDsb8ZvdMkoj07IorGCSIWRjWco2ThySO/GaqHEzj++wKsr+8fzcDKXsVTGx5Z3gkULxqYuN+N2KQhIiIiIiIiP4kL3CPCXNkf/YroPkvnXgtcvomErVTn+DMCNmzNC6xMqwNJdMpLCpOoGRf3UXZMJdclDp4RBwZeRbF22koxh3qAHLLcRgXX0Wgo7SNpeOGvcyjfm9AWd2UZlGsITYJPP4+C0oJERERERER/WHGEJgQ+xVs2KPm5r4DP8ueWQdi+cDOheGZZVBHx56x4GPIe0yIPRI+ObMDtE9IKQ1U84CYraBImznKRCfbWqqAdAEb8z5v69evOxjzzsaT4rgGbirezrwI8JzUPGUlz77w4b/HBAAoiNl/SyCmOOep1iBdv+7rqUw5Z1Pf2B+EXrmFAass4SlbIiIiIiIi+hv83/Of8gzZ9wmctw7Rbh2KP9VOMWMt7dB0sUGjxahg5/2Z+/OlT2hvNdHeAoAGTp66z4TrnHEctZo4MirYeb8NPa9i500VR60mMiJBKO+t2OfbV3cRuzpEu7Vp/sVKj5VOK58NlC8MLEY5Z1haS9tYequjfdBE+0D8qX4852wgWaziaNXp/KN2ipm8+/PfPzaRsfJTO+29hMLnnMbFLpby3jI4dF4zr6d/+Zh5tI5rl+0QriURERERERG9Kv/698x//jfuRBARERERERHR3+kF7jFBRERERERERH8LBiaIiIiIiIiIaGwYmCAiIiIiIiKisWFggoiIiIiIiIjGhoEJIiIiIiIiIhobBiaIiIiIiIiIaGwYmCAiIiIiIiKisWFggoiIiIiIiIjGhoEJIiIiIiIiIhobBiaIiIiIiIiIaGwYmCAiIiIiIiKisWFggoiIiIiIiIjGhoEJIiIiIiIiIhqblxuYSBdw3Wqi3Wqi3aqimB53gvqX05u4Lq6NOxmBQtOn6WhfFaBK722b1+Nce770BZ3zpZftOAxWJmsoXjVd1/pVSxdw3dKRG3c6nrlcR9UextHuiYiIiOjvM6LAhIbzlvNA2/9D7RqKWhKPx3OYmZ3DzOwKsqXRpHSsPJ1/z4s4H2lARsPKfAPfs2e+r+aW46iXtqGb/95X5zAzu4uyMar0dBvHOa0OZf+dMLMjGhRMCwu0abqrrbR198nlzqH3Nekgodfz+Qxafr1Eaw9qcgG4+Ib9YZ/ee55iNeRaPMWI2n3ovSbYeNogEREREf1tRjhjwkB5zwwsHDeQ2OpnFDOBmGKg82t0qfvbqcV1JGqX/h24dAEb8w1U88+dqtdLLX7G4s9dM5A2h5ljA6mPVsdVw/nBAm6s9rB3i8UDqz1oON8CTqzPze6iPLlud0zVYhUZnNrHPcGm78h46PUMdYbs+znMvHeCUK+XhswqcFMZd3AG+LPKlYiIiIhotJ5nKcevOxhQEJNGAV2jwPZInjXTYhMJKEgd+IwSu0ae3SOzOb2Jc02ereEOhvif0zzmVQG5YtV+3dv5U4vVAZeUpJz0ePO5FQeUJI48o+EinZ4yaEkd2ZaOnDzK3jVyax4/cER3Dal3QPkf/8hD/6POntkC3pFZzzWTy9Z1TfqeWeNXtn7H9QTFPDMUrPSIa3yIlAIktoKWEfmXrf7bgLL62XzvGorpOIz7unncdSRqP+xZP2pyAQriWNEAoI6OEUfGOp72CSnFQKckzpVZla+ThpV5QHmX8ox8+1/PsLJVpbreXYe8M56c8utqB+a1PdeilV9gG+xKr/O58PYgJ3vZVc7h5xTtqGiWg3PfMI8b4Z4QKLRtDiGfgQa715wXzfapa3bauGyDiIiIiJ7TswQm1OQCFOMWZatjVqxi494ZXd75uYAvxTUAeXyYncPM7Cnq8owL1emYnR9M47s9unwKeGZiJLaWUbVGl2txbEidTv9zmpQkNvDVHNGuAKufhrJOXVldQGfPHAlHEhkNTj6PG4BRwc6sO59i+rSnDGZVKVAQRyZ9Z37uFPX59f4CJtonpB66O3Dmi8isGn0sCVhD8erQNVvg5CGJI6tDli7g+kBeljOHJenYIq9zdrlPpKNPN/cvW9HZkmcZ7FwoyNgdtTUU04pUrk569OyKPW293u8yorxqzoRoot06RKzkHDcxpdhBipzexNHUD5zUgIk3a7BG1k+wKTqM6TvsWNc6HcMEzCBFuoDr1jo6xxUYyjQS8rkDrmdY2Yq8OjOaPJkx26FTflY70rMr2LkAUloBqrTk6kO+d/mFtsF0ARuTUluQPte7PUjX1ROcCW/3caSmfmDnwkBiax2dvVPU5QCqkkRm6kf/94S8apabz/qHJ+cz2CD3GgBIrE7j+14FxvwmNu53pbpJRERERPQ8RhiYcEb9jt7dYsee0ryG1DsFyuqhPWp4tKpAmUr0OB7EiCjiyNijjWJ0UZ6JYUgj/fuq1TmMck5pfX5pG0ueDoHodPW/14Vx8dX8zBk6D8N64DdQzlvlmUe1piD2Vn7d7IyofjMixGh+/TJgtkTfSwISiCnuvQ32LxvAZAwqzKBU7RQfApaFuEbuD5JQvJ3uEP5lu4bYpOHqoOqVW6kzf4bOg6ibg20WGFC2mo62tVxjr4KJLe/xEyheNUUn2fVZMdvECqScPCRx5DfD42Aa32dXkO1a3hR8PQcvW/cMGG9b0bMrZjpFQCro2nqPGdoGSx08KkkcDbq/gvYJKTjBz0jnhFRPfGZaAA2cWNeqVMaN4b7XDOSp+Qwx6L3GuWe+hD1KiIiIiOhv9Ax7TJyirkgj6K7XpP98O9E+aqfuz0UOFjzhnH+SdAqLqODEN+vhSzyGn5YCvqzCuS57FTzHHnvWTIL/4nOPDSWjyy3HnY5haRtLxw17yUX93oCyuinNolhDbBJ4/H0mrofidID31V2UDXOZR6mDR3t2jBkoezsNxbhD3Tpx0PV8Qtmqxc9IwRld9x35B2AYRrSAovOJkDZozdL4Cmj9LyfwbtYa7Zzj8LR8EhERERH9iZ5hKUceJxcGML9sjgKbI9baAD+j9+sOxvzmAA/yTzinafA9JkL8uuuelm+ro2N4Z0L48N2oMniPidzHJB59O3DoscQjiNgjYcOeHWDur/CzDB3mbIWgpSZvp6FYSxXMtCn9nNqXea0/OnnPfUxC8ZkFomdXRIfdnN3hfD5stDm4bOVOuvrGyYleuYUB6Rppn5BS5Gsmj8QnELM/mke1BrssvWVr5c33ej6hbBNTCvDQMY+pIbPq/qS1IefS+68o///27malkayNA/h/4L2FakQMM5GRhgQX2mCjFxCz0C5zBw22QnAjuqnJrDtTG8WNBHSEvoNYrYuYC0howe6FRGiESBMRsS5i3sWpj1OVqkrly/jx/0HDTKdTH6dOnTrnqeecjPnvx7Dyi3sPiqktm2embxsR94M1PaI92Nb/fe8IzMjoRw/nCTjrV3Sd7RPZ1hARERERjdajrDFh5P9BRRq8FlUxB9pZiC3uW0PrTbS7sF7AQoshet7nMJU3cHwpTU3xDHZPkC/L5yqn90uL4+3M4GI75jz0yF/biJriYaf2exc2FOV3gvz7Izw46fK7yN4fuetIlDcwd2BKi/lJgyr9X1RM9/xX7qpuJkDkPqMV1S1Uxlad/a2NVbEpr1MiL+y4M4ML3TuwL36pAs75xAtG+fe5t2ji0J6+VN7A3AHc67wOHNoZEG3ls4o3Z+70iKK6hYtZt2zffd9yyzbqekaWbYdz+SLWGxD7/IDWmbsGhVqqiXNTdQAnyOvt01bCyi/yHvQtSLo3+wOfPdMKwu+HwscMIAVr2q5Lz/d9ynvN/L+wMb3qOWZ7u/YUmr1Fxf03zuKmvZ9nXyLbmjC934NERERERN347Y/kn/+N+iCoGxpOmx/Q2u5+vYuCIdY4mAuaR64ZYuFF/rzhsxF5PbuglmrYG//6PKc25fZxvjOB4y4WiRzpdomIiIiIqM3/Rn0A9HiK6lT4IEtXkXyG49LXLPJ6xiYWiDS/x82neGLKG5gb2PQKIiIiIiIaBQYmiF4d8ROvWXvpiMsjJPlrDERERERENCKcykFEREREREREI/Moi18SEREREREREQVhYIKIiIiIiIiIRoaBCSIiIiIiIiIaGQYmiIiIiIiIiGhkGJggIiIiIiIiopFhYIKIiIiIiIiIRoaBCSIiIiIiIiIaGQYmiIiIiIiIiGhkGJggIiIiIiIiopFhYIKIiIiIiIiIRoaBib5oOG3WUMqN+jiIiIiIiIiInqfhBSZy+zhvXuPG/vNtH+rQdiYUDGl/zWvcNA0U4n5ZMx7lGIVllL75jtXQBrZ1tVQb6PaGi8EdIiIiIiKi1+x/w9mshtOdGVxsTyFfHs4ewphnW5jLnzzuTnvUOJjCkg6IQMUubgwgqeqjPiwiIiIiIiKiRzOcjIlcAm86/BNPdoM/U8GXbXFeWh7IYQXvU8Np8xo36ylAyWAvMIPBl+HgP96M0eexniCvV2FOz7sZHr4yOJUPx5+NYh+r9fd7iwowvRpyTNa5dJ0dYpWTf5u5fZx/20fJuMZNs4aSZh2btX21VMN5SZPKz82OENdjFWkoyO54s1zUUs13jOK4B1UXiIiIiIiI6GkYTmCivIHPZ7AGm+3TKdRSDSt3W0hOTiE5OYXN7zP4Wx7o7mTwcDDlfN5NBoSyuBsYQAjfp46lySkkD64As4pN63M3c0FkM2Tvj5zvJt9vwHD3iOzsrfjedhVY/BR/+oinzFp4gIJEDhAZJxM4tvc3eQSsu+VY+OgtH+dYyxuYm5zC5pkJXB71VH7BllH69gGtbXufW7iY/cudfqFk8O5uC4eXCrLrEzjersJUJpC2P15cRaJslfsZkP0oAilFVZxbAyYqzrZVFAEY+a9oKDPI2vvIZfFOucLxM8mGISIiIiIioniGtsaEkV8QA80DYM0TJFhGdlbxBBD2FhUo42IYq2ZmoFweWVMc2qmlmmdthlPfUgrm2VZAACF6n5GsAfFh6BQLExXd2o8nuAD4swxiZylo80gjJcqt6WYV2Ntt3JlIr/e6LsUJ8u/9wZUOclm8U+Sshl1kFQWJt/Y/cAMG5tm/KPq/L11Po/oD5lgiRjnoODwD3mVEwErNzABB2yYiIiIiIqJnbUhrTEh0FUldZB2saYChA4CJyvZCT+tPGPmF+ANqj9732TsdS5Mx14zIJfAGJmplABpExkNIMMQpA01MIYFZxWY3gYZehO1jiItWGtUf+HtHZKAkZoELndkSREREREREL80j/VxoGgnF/u8TtO4VZLXg7AGj+gPm9IcB/0pD9D4BAD9vPdMPHOUKLswUVoa6toGG052MmxHw8xbm9GpbNkgbXRVTIXzHbfwygdCshB7WmCi38KBk3Ok2fSh8zADfK1KAo4GWKWdfyPvdwPFlCgvGJ2Tvvz76QqpEREREREQ0fMMJTGiGZ7rFTXMVcH6BAiiqW6hAWmhSnpJR3sDcgSlNGxjMgoeR+7T2e3wpTZ9wpkmcIP/+CA8ha1f0I73uLR9nLYjyBuYOrqTPvVNhvD81ugocqN4pDvq/nnPtv/x0LG1XAbkMuvkpVmkhzjUc+da8OEG+LJ+rd7vF+hXS0yk06vy1EiIiIiIiopfotz+Sf/436oOgl0st1bA3/rX3n0HVDNysA4eTKteXICIiIiIieoEeaSoHUS+WUcqlghfUJCIiIiIiohdh+ItfEvWgYFxjbRpiEVD+RCgREREREdGLxakcRERERERERDQynMpBRERERERERCPDwAQRERERERERjQwDE0REREREREQ0MgxMEBEREREREdHIMDBBRERERERERCPDwAQRERERERERjQwDE0REREREREQ0MgxMEBEREREREdHIMDBBRERERERERCPDwAQRERERERERjQwDE33RcNqsoZR77cdARERERERE1JvhBSZy+zhvXuPG/vNtH+rQdiYUDGl/zWvcNA0U4n5ZMx7lGIVllL5d48bQnL8Rx97F8RIRERERERG9AP8bzmY1nO7M4GJ7CvnycPYQxjzbwlz+5HF32pMrNDCPAoAiNCzgCo1RHxIRERERERHRIxtOxkQugTcd/oknu8GfqeDLtjgvLQ/ksIL3qeG0eY2b9RSgZLBnfy5lMzgZDmHHmzG6PNY0EgpQqwMLGgBtHqjXvf9EMzzZH6ea50NxzM1r3DRXkY51nr5z6SE7xJuRImd3RJRPbh/n3/ZRKNWCy8h3noO61kRERERERPQ8DCcwUd7A5zMguxM8PUEt1bByt4Xk5BSSk1PY/D6Dv+0BaW4f5zsZPBxMOZ93kwGhLO4GDpDD96ljaXIKyYMrwKxi0/o8qerWN5dR+raL7P2R893k+w0Y7h6Rnb0V39uuAouf4k/H0OvAvIbCPFDTG2iZChI5iMH6OnBo72+7ijfr9joSGk6bq4BTPkeeTIvIsu1DwbjG2phUPpMqilL5vPvu7vPwPoM9ObCjZLCCf5xzcctoGaWcgsp2b9eaiIiIiIiInr+hrTFh5BfEYPMAWPMECZaRnVU8AYS9RQXKuHjvr2ZmoFweYUkP3q4qvXlvzyQQUznaAwjR+4yUy+KdcoVDNeSAYKKiW/spt/AAK7gAwJvZEJSloOPw7gNW7v61BvnWOf6uwDyT/q5cwYWpIPEWgDaPtFnFYeDhxDnPE+Tf+4MrnWhYmJbO0yONhHKFYymgUKxfAWMJ6Vylz8sbmHOCGido3SvI7jBTgoiIiIiI6LUa0hoTEl1FUhdv1dc0wNABwERle6Gn9SeM/EIXA2pZ7/vsnY6lyYAIQi6BN+YtGpDPZ1AD81GcZ++K6hSKsANOu8DlkZStQkRERERERC/dI/1cqFhTQbDekmvBaxwY1R8wpz8M+Ocvo/cJAPh5C1OZaFuvQWQrpLDyiG/0jV8mFHlKiPYJWeUKNd0+zhlkc4CYRiGvMRHjPHtaY0JH7VJB9qMW8FkDLU/5LKOUS8H8XukqgGTkF5DcrsL0ZFoQERERERHRSzecwIRvQcMba00Ee3pGUd1CBdJCk/KUjPIG5g5Ma32KwS2IGLlPa7/Hlykx7cSz+OUJ8u+P8BCydsVgWdM1dBWbZ4p7LOsKKtvW9AfP+h27SJS3UDG7OM8eFdUtVMZWAxa/9JePWI8j3loRvqkuOzO4CJwuQkRERERERC/Vb38k//xv1AdBRERERERERK/TI03lICIiIiIiIiJqx8AEEREREREREY0MAxNERERERERENDIMTBARERERERHRyDAwQUREREREREQjw8AEEREREREREY0MAxNERERERERENDIMTBARERERERHRyDAwQUREREREREQjw8AEEREREREREY0MAxNERERERERENDIMTBARERERERHRyDAwQUREREREREQjw8BEXzScNmso5Ya1eQM3zWucakPa/mvWc9kuo/TtGjff9qEO47iIiIiIiIhemeEFJnL7OG9e48b+8wgDuYIh7a95jZumgULcL2vGow82/ccbf5AsBscMWBAREREREdFz97/hbFbD6c4MLrankC8PZw9hzLMtzOVPHnenPVBLNazhCMlJPfwf6SqSER9TH3ou2xPk3z/9+kVERERERPRcDCdjIpfAmw7/xJMt4M9U8GVbnJeWB3JYwfvUcNq8xs16ClAy2LM/N+R0BCt9P+x4M0bXx5oeVyI+lffnnSqilmq4ae4iqwDp9eB/E1m2vU5F8GfAyOUTmh2j4bRpoFSqWRkhVlnLmSy+73abNRJ4nrl9nH/bR8Har/e6hJdt4LnI56oZwecPcV3OS/vW+XWZrUNERERERPSKDScwUd7A5zMguxM8QFNLNazcbSE5OYXk5BQ2v8/gb3vgmNvH+U4GDwdTzufdZEAoi7uBg9XwfepYmpxC8uAKMKvYtD5Pqvbr9GWUvu0ie3/kfDf5fgOGu0dkZ2/F97arwOKnWAPSonqExvRqSDDjBPn3U0hOHqHh+8TILyA5uYWKCTScMlpwMlMiy7YPhY/ea+KWD4DyBuYm3c8O7zNYc8btKWTHv2LzzER6/QNa20doQEEiB4jMmgkcO989AtbjDOjFNXn3fcuzzz05WKBksIJ/xOee6xJetuJ4pPO064R9rroqyvTMDDwqZTEDWN89vExhZUABNSIiIiIiopdsaGtMiAH0FJIHwJonSLCM7KziCSDsLSpQxtMAADUzA+XyCEshafaq9BY86A27ebYVEECI3mekXBbvlCscqmF5/yYqurWfcgsPzqAbcLIxArMXrIDI5BYuZncHtMhlnPO0Buae4EpnjTtTZGgYQQfpPc+1aeDN7/ag3ETli1V2l1+9U3u0eaSREvWjeY2b5irScvnJGQqeAE4aCeUKx1LAqli/AsYSUvlKn5c3MDepotjF+TqUCcSoJdb5ufW2cWfGq19ERERERESv3JDWmJDoKpK6eMO9pgGGDgAmKtsLPa0/YeQXuhpQu3rfZ+90LEWtIQHAWbNAM3CT24eqdxcwaDec83TK3QoWwKxi0wpuFIxVpC+PnCyKgnGNlbgblr7X5tHX2NBRu1zF2vo1btYBuyx7CmgQERERERFRLI/0c6FpJJwlFU7QuleQ1YLXODCqP2BOfxjwT3BG7xMA8PMWZtDb8XIFF+bw0/LV36PWnPA7QetezkqQ/77Defb7c5e6KqZBOGW1jMQYYN5ZEyNy+1iZjrmtn7cwp1d7yBRpoOW5Jsso5VIwv1f6C+rk9rEyJk3nmXzsQBYREREREdHrM5zAhC8F/6a5ChxMOWnuRXULFUgLTcrTGMobmDswrfUpBrf4ZeQ+rf0eX0rTCpwpCyfIvz/CQ8jaFb3xLdzYvMbe7A8nA8GdGiGmNoiy8C7UWPxSBZxjcj/reJ4DOd5V4MCeGnGCfPnKnT6yM4GLkDUY2pQ3MHdwJS3iGbds/ddErAESby2hKc7fAAAbl0lEQVSSiLItb+D43lt2ctna04j2FhXAWh8keGoLERERERERxfXbH8k//xv1QRA9Cbl9nO9M4Fhaj6JgXIufdQ1dY4SIiIiIiIj68UhTOYiegbcT8E6o8U1TISIiIiIiooFjxgSRpGCIXxVxRC3OSURERERERH1jYIKIiIiIiIiIRoZTOYiIiIiIiIhoZBiYICIiIiIiIqKRYWCCiIiIiIiIiEaGgQkiIiIiIiIiGhkGJoiIiIiIiIhoZBiYICIiIiIiIqKRYWCCiIiIiIiIiEaGgQkiIiIiIiIiGhkGJoiIiIiIiIhoZBiYICIiIiIiIqKRYWCCvDQDN81rnGrevy4Y17hpXgd+Zn/npnmNG8P/YZf7/rYPtfctDFTBuMZ5abnr79w0DRR63quG02YNpVzPG6DHktvHebP7OvJyLKP07QnVVet63DSvH60dUUu1/tq8AdShXtqp52cZpW8Bz54XQZybeIaG3E8h9aTv+veo+nm2DaOtefrP2tdxbz8l8r04uLKP1S98Yv3f0ej9nuS98nIMJzARcIM9jUqj4fQRO63AEDoOmuHtvDzS4KioTiE5uYWKGfChriI5OYXNs6AP4yvMp9Aob8AA4H9AdDvYUEu1nr4nf39trIrP+RPxF4EPjSc2MBsIu9ylh2huH+fW/8sBKvlP3AGDc10Crknv18y6r7s8lnAhgyDNGNC97K3bQccryvnx6pan7APO0f7ce6wnyOs/8G6nt0Bc8Db7UN7A3OQUkgdXXX0t8NmU28d5v88J6b4B0N52dxDv2aFhYfoKx3Y71andlIPInmsd8L0u7kN/u9B+TeV7tPt6XTB2kb0/wpIub6/9OSj2G9C5ddpvb1vh/hHXSdRJ/zVzz2c4gYAT5N9PITl5hMaAt9yPztf0MfXT1vjr9nN5ZvvvbfF3p6HXwz3P9v5gHwNuOeDbZdl56lA3903P++zvWqulv5C9P0JycgrJySnMecp+uLrq/z6rdry/vnw8z/9eca+pt43z9M2Cth25z/4DbYF90dD6NxivK2NCm8ebsyNUMIPss3gwBTMvTSQyooKpmQk8XPYXEPCwggxuB/CR5PaxMn2Fmm+/jYMp5yGRfG832h1oBvZmf2DT+t7m9xnsdflQ/HvRxGHc/UlEAEdFscvvPTWmqWAloBET5zeF5HYVJq5waJVxnPpSMK6xN/41OIDV8zVbRunbKuDUkyNg/ZE6ntZAuLvOi4bT5i7efd9y6rW/7NRSDWu4erRBSsG49pR9UvUdkGZgb9ZEI6iZKW/g85mCta4fTMvIzpo4PLhCev65vPHth4bTdQWV7QXky9Jf91SHXGrpA9KX9bb2JrTdtNp3+15pTH+w7hV7cOz+2TwzgftWrDbQaReswFA6J3U8c/s4b8r3qK8MOtEMrI1Vsemvl45llLQMHg7itEM6luTzu7QHIW6b3bgEFqwqWZgX/z9yfdaT7ojO7BqOPPXh0fsEfj21NaK9lQebXde/EWm7t3P7OG9+QGs7KIAlzjNRDn55pJb+cp8521Vg8a+Yz0gNpzszuNi2n/vxg0PiOeaW+yFWYw6Met9nwfA+W7u91ulxBebd4J+8HfuF3fZ/n2E73lNfPqaXcK/c5G6xGfBSxcgveK6n6HubaJUB8exz97l5BmQ195r1fi7ucbX3RTWcrsPp+ycnt1AZ+zDQPveIAhP+CFpUhEj+zHpDrfWWsluYV3BR1VH5DrzLeBvI9jfBYREpOfqm4bRpoCQdr9PwWt/ZW1SA6dWQiJVVDt1kAvyuAHd1tMazULGM7Pgtanfyv/CVbVSU1XM8MdJJe+J/QxV8o6qZGeDs3wEM6JdRynkjz9lZBZiej/2mpfAx034sP28RHP6xGoioNHLr7WspdDqMXEarSPvPJ+h6hrzRLRjStn3Xu5to6UP5Kx5mswONahfVgEEvgL6umfYJWVRxaG9Wm0caiu/+tso3dof2BK374E/sTkvU1KaCcY3TUkh90OaRvjwKH2DYQTG1Hvx5yFSrcO1tjPetsHjTEB6EswbU+r9ohezByH+VOkYx5bJ4d19HUa+j4bnOok0thEwPE/Vbvl+6eIMa0o437kICu1JnzvN88N135h06tJ128MzbkQutQ7GeHWK72Vmg8qXHEWMugTdOB8dPw9pib9tWf1c8ZSfa9q0eB7b+tqGdPRgZxMA5Pa4A9TowrwHQsIA6av1vti+R0yhldv1uu9e7vFe0T8gqVzgMDQRF3w/++yzsuWNvwzmnGN/ruq3R5pE2o4JaADJG8D6tDLmw8vf2Gd2y9bT/0ve9/cZO5RNwb5c3MBc6GBQBt7B7wMgvuM+ccgUXpoLE2/AisYkB31dnn2pmBgpSTuAunL/90LAwDSgx+hS973MZibHoYwrri9rXaG0aUBZ32z73v7WOXU9iTi/sq//7LNrxKF30fwPbsed+r1jBh5jBGu/45AT59+55GtUfMJUJpwx7PRcAEX3RBlpmyg0Qa5+QVcLqX29GE5jQPvki2FIkUTOwN/5VitrBFyFXkM0Bn+1IDTJYi9VJ17Aw9gOVsrh4kBpIO21/096mCTScTqSG050JHEvRSazLN0YKWftt43YVWPwkPrPecHjfygzqjUcDlbsJZLUsEncVFH+ZUMbTEDexN2J8eJ9x3zzLUdbtKkzPAGlY6aTuGyoR0Qt6E69hbdH0pWEJ6fWYnTL3G0goJlo/xXZFZPQIDShIxEw7S4yZuKgGXCfrhndTv9NIKNZnndLIlQyy9tsDTyRaw2nT+8bfLf+I61lu4cE6HrVUs45HHLs492WUcgoq21M91j0dtfu491a/er9m8sPTjjofntn3Q3/e/L7sScdXf1eczyKnNgFIL9pRbG8bVZhPwbxLhKRD2m9+B5lxc4L8e3EMf5eW3YeN3eZq80ibt0gYwZ2ugrGKN2f/dHgzoqN26Q8GRVMzM3io69Z3/Q/vFNZyt1Z7fNQ2EEmvf0DLqteHl6nAzJ520e24qC/SFIC3E7CvtlqqYeXOvQc3v8+IsrS/u7iKRFl6Y/HRe9MkrLcW/o5QaB2K++zQPiF7/zXw2kS1m04Heie8rvk7WZ25ncu9RVMa1Iog4wOy0qCzm3T8NBJK+5tER8bAGoICfQqyO1Jndj0Ve4+AjhrmUdDmgbqOxp0p2oIR6dTWABDtlP22zu7gduxLBVN/VwD77aPWPmiPvB9y+zjfEdkrUc+dguFmZCzpvuO37s+Hxd2AZ353bY1/cNVOQXb2tr3/ZptexUK9/Q2yfPx2v2ZNGnimFydwvF2FOb2KlbstHF5azxMso/TNbb+Sk1u4mA14ixlxb/ctl8W7qHtKImcQ2BmP7rlE7UMaLNtvrw+qnkHTwPeJE+T1KmAFFoLqTlhf1M4UOLwEzDO7brtto/et9REeYtaTeNMLe+v/Pq923HsubpAmqv/rTuFzPzNR2fad63O/V7o6HpFZE1RXACsYEpBBKb4b/1yi+6JirHgI66VJ7habA84SH01g4uctzOnVwIpdmE953hLdrKeAsYQn0ui+PREF5HT4It4Qq6UPSNsPqHIFFx2mcziVSZtHGimseSJ68oDJREW3jqfcwkPsAbB7/L2kNRn5OhLrE6h5KqjoxMmVtli/ais/QMOpBnyOeoswMN6I596i0jZoDE5H9qWkHVwh3U2K/ls7lavbFFRrkOxv5MotPFjnk7i76iGbQHoD9fPWfUBbb3QOA48x6no20DJFXUvDxMN4Fqrn2E/Quhed817XHyl+qeJNbtBzASP0fM3cB0Hy/UZAYM3qkHRR35236G+Bh0slVtRbZjqDeZF9IT+clMUJ1Jx6bTqpd2rIANZ7Kr1MtTpB/r3o6N/szODC/2BXMkjU5U6X1VHWwgZ97UKzDgKJtzgiECXqtHc6h9SmWgMROcpvSoGSYv0qXhAqoh03flnHnkugdWn6Bj2iQ+a+RQtowy7dtQ+M6g+YnvY2heyigsGzMgnq/orQud1003WPgPXgecTdv2WTOv0HwJrv2Z6etV8mWIO4uNlLuQTemLchwXIF2cWwgIPpCcp2u+5I8cstVnK3Ie3yEzO9ipudCRz73hDG6Ut1ZLU3h850luj7QXSMjyLaJ/FMWrnb8rbHbyegeAZQOmohnfpu2pr0eKd7r0P/TX4266rVVxMvAOT7w/+m0nTeaPoGEbks3ily0GwXWcX/FjPs3h4EDacRA9lgaZS+BVyzWLsz3Lr5s5sv9rhPOxBgtW1tgf8OfdHI8wgdAyCknsTTa//3WbXjCJnKEdn/DfKC75UYArO5bZrhCyZ5PuzqXKL7ot6pfof3Gez1teB/u0cNTDz8slNK7MajjoWA9FdPBe5mPpJn3pUcqbdTw1c9DwO7AyoeKhns2Z/d+zrjl965lqOco5geV6xy1LHUU5TKitjrg53jFUYt/YUsqu7aAW3rC8RMR9brMTM5xIA9uy511CJT3bqUyyKBf1G7twJboZ3mYbOnG2hYGK/j8G4CWc3bibcfXJ/xV1tKfCzlDRzfzyAbN/WrZ71fM+OXCVhvpewHwSDniRbmJ1D78gNvrIGz04b1wZQfLE6QSsPaotzhF52f7E4P1y18zzCDUvk8HQMr4PVWPPC9bab11qPfhaus6TZO53w91dVUq551aMfVzATwpe4EHd065BvkdhXkusJh6NvfPuSyeIcYHbrIdlPH4Vl7NkDBWO3yLZt/s/+iYno77vJUDOOX2f0AOZCJyvYWKmNx5653ImWclTcwN+B50ENzedT2xt7WS1+q8/Xp534wUdkewv0QonE3qLo2QKbbHwpcvyPuvd019+103MB24850MsJEn1hMl+j4HCy38OBkvln91LcTUGL0l3rep4cYYMsZbJ37omE0nK6npHtpkFnFg+j/Pvd2PFyxfiX1QVbxxj+V5CXcK7EPycBaWLaEZuBmHW4mrPfDLs+lQ1/UyrywAyBFdQsVM96UlbiGE5j4eQtTkTIScvtYmTadN2Qu0XgcSm/EGncm0uuDjb44BSk/DLarznSOwkdv6qHnIWtld/T6EI2+ebtfYyKamPuzIq8bkUvB/F5x54mV/kKi/HiBlfS4nEopKrxHzDQstfQBaVNMxZG+HPArKyeofDfdVFSI6xua3tTGzUQI+vuFjxNoVU9QrJt493Eeb2JtM4LnXhFz0d0YfvT1bNwBiY8i3dj4BbybnwhMWzXyC2LqTg8PkWLdRDY30/PpxRPvmgX+ioNeRwPS1BurrfFOxen+PjN+mVDGP2EBdRTLFVyMzWOt49u3zor1K888Wzf1zptm6qYt+tqjnn6Fx13jYE6v4o3cvup1NDxttZ3u519Ey57iFjy4cQOmnRXmU1K6rDslI/DBFrIomHNecd+WRLXjP29hjs1jbfwWlbKO2v0M1ubta21lHmkxVzX/mAGk9lbQsbRdxZsuF2WNenYUPmbwELHugi243bSJ9thz3az7J6yjHOuXVDxzTsW9LWfEFOa9z6RI0pS1YG420NP4KdHH/+UvQLTxnmmb6KMvpdfRUDKe6Uqu6PvBqP6A2XENiID74eet93uB7bjQTVtj5L9GnEuvrDKQpmzF7mOUW3jocDxx7+2uSAsXRr0F9WcxG9UfMCG1v9b6I5722Mom8D6TRMaLe5+390X72mdMcsZMx75oGPsliTV+UUsfOk5Hia2v/q+zkaffjoeJ7P92no787O6Vnp8P1v0TkC2hlmrhQYmeziVOX1QeI0lT2gdkOIGJ8gbmDkz3jdhOBg/Swl/+hWTWIKXC5hdweCmn3Pb/U5iB826sB8SaZqWsy/Of5LfL5Q3MHVyFzI+KQf8XFdjZGEP8Wc+xBFQ5ZTso+0MzsLeoeM/F6cjYc8uk6JiTyWJXXumtadP3E2pN32Jt1naLX6rWtJ1r3DQ/oHUmp9RGDSx8aXezP7AZ8w2WkV9w5z9Z9Sv+Gx3R6Qiew6ogPXYrHg56HQ/TKSj2g85O9VtPAXb2TZx6Ut7A5zNY5e1fKbjD9QSQnlbEA9M6HjhveX0LPe3M4KKXLBn9X1SgYBDtjqee2GVk1ZPer5mOpe0feLcjnaf/lw/s7BKly1/jmU4BdR3ioawgPS2t3xFxP0Qfrmqlvkn1uqtUVTGlKM4iYoJYp8T5qUV7ZXvn3tax5GmrA6Z6dKRhITDwHP5v/QOOxp0prbuiRB6PIt0PnnTDqHuwUzuupPDmTnSyinUT6Wm3o1dUtzxteNu1nvbW28CpL9IzUXw3Rh0Ke3Z0CtZEtJveBfvap02JAVa3b9l8bY1vzqmR/weVsRhlFEgEZ6PfxtgD3eE9Xz0p3/L0iLb7voGWCWc9onh6f/bKiuqWVc6ik9l7X0rH0qT83BGLAsa6H/x9v7B9Sv/uvLTcsc8ol1X8tib4XAaxuLdb1lb5RP5qjO94tt11ENrm6kfe23I9setCcD1RfOssFD5moCBsnn+E8gbmDuDWodC3ssFldDHrbatj3fc977P9p4DlfkR0XzT6eI4v3WfS3viP6PVePIcU1S/svf/7/NrxkLrXqf9b9rYl8Z+Dz+te8dQTe8qpZ9F0EeRoz5awA2zB7XzP59LxPOXrEpDJ0qff/kj++d/gNvc8FQwxJ8i5yZyFmJ7Hz0o9W5ohGr+nljKb28f5zgSOX8DPfpKglmpdBbeeLndB1Mf8jfUoaqkm1vcYyJxKDafND2iFtL1tbfUr9OrK4Kk+J0K8nLbm6RlsW/P0vLp7+zV7Zu3a4xN9nUTZt46gNeAH75UX63+jPoDRs35iSP7JzbcTUAa1JgGF01Ukn2L/oryBz5ka9r7to8GHxjMn5telcYXDyWd+LTVDRNQvj5B8Kg9j51c+nuKN/DIV1anXFTDVVRzOX2PP0GA85QGp9YsUilnlYGMYXkFb8+ru7dfsqfZ/n4z2KQLq7wpg/kADgMF75cVixgTgdiicvzBRYbbEq1cwrrFQ7/4XIoheh2WUvv0F6INsK5kxQUGGUdfo+eD1J3p17Jcxjqv40yPo2WJggoiIiIiIiIhG5lF/LpSIiIiIiIiISMbABBERERERERGNDAMTRERERERERDQyDEwQERERERER0cgwMEFEREREREREI8PABBERERERERGNDAMTRERERERERDQyDEwQERERERER0cgwMEFEREREREREI8PABBERERERERGNDAMTT4RaquHG0Aa0tWWUvl3j5ts+1Lhfye3jvGmgMKAjICIiIiIiIopjKIEJtVTDjWeQaw2UYwy8xXev3T/dDK5HQpzb6aBiCh0UjGucl5a9f5nbx3ncctKMRyxTDadN3/FqBm6aNZRyAfVEM3DTdMsyPFij4dTahme78nlFnmfA92MoGNfeujmwQNKw9HaeREREREREj2kogQkjv4DDyxTWrIGbWvoLWVSxqerxNnB5hOTkFJKTW6ggg7/9A3Hq4AT591NIvt+AMdLj0LG0XQUW/7IGxxpO11NoHCwgXxb/onEJLFjj+8K8+P+nzDzbsurmERrTq48WkCIiIiIiInqphjaVo6iKgdu5YeDvRaCi9zJIPkHrHlDG0+5f5fZxLr219g4MxRt69622+7bYn2ng/39vpoZvSoP1Jt/+Y39PfGcXWQVIr7fv095PWPaHvM+9RSVWiTTuzOAP7luifOVj9bzRt8pmPQUoGeyFvPVPSMfUNuj2ZTTEUt7A5zMgu2Pg1FhF+vIIS1Z8Kj2uAPU6MK8B0LCAOmpdbDpY9HmK67GKNBRkd/zXW8Np00AhtAxlDbRM4M3vMeuQr9569ynXmfYsh6g65M3i8Nb38PMkIiIiIiJ6Ooa4xoSOpYMrKNMp4Owf5w15dzQsTAONuu78/+nOBI4np5y31liXB3irwIH7WSP2bgzsjX+1vjeF5AGcbA9gGaWcgsr2lPP5XP4EgMgMSU5uoWICDWe/bjaAWqph5W7L+d7m9xkn+0Mt1bA3+wOb9mdnIQGHACJQIw1g307ACWvoasj2dCxNTiF5cAWYVWe/SU8WSwpZuxwOrpDODWbKh5H/BxUzhfT0FQ7bsmZ01DCPgjYP1HU07kzPYD+cPOC2AhExzrOo2nXDlK6piqJUBmu5W+t7R2hMfwieCpHL4p1i4qIq6kJkHcrt43xnBhf2/rariHu1o+oQcvtYGZPOUap7nc+TiIiIiIjoafjfMDeu/i6Gy2IgfSJ9IoIITh6EWcWmPO1gehU3zVUAYsC/5MQl5pFGCunmNdacbZlo5QC8nUfarGIz5mwRWWE+BUynnH2Kzd5CBWDgBK37XaztXOM8s+UEJTpbRnZWgaLs4qa56/71pTjr7KyCRjk8i0Qt1TxZFHY5GL9M7I0DyCXQujTxLrMM/OrmbKNIgYOftzCVCaQB9xh1FckeyhdII6EAgIJEDoAvSFX8cotzDfj8HkAp7jZNVLbdgTg0AzcDWUvBlLJ7dNQuV7Hw1v1UWbSvp3f/UXUImRkol197CM5F1aEToNzCw84q9po1ZOWyICIiIiIiekaGF5jI7YspHAdVvFtfxammuwEG6FiajBjhXh4hqepicL5eQ+mnNOiyPmvT51x/TwDEp6hOoQh36kboMbTxDZ4dnTMCjPxC5NQXNTMBfKnjQctC/QWYd7HzQx5dwZrCcYhVrGn7UMsbMLCMxJiJ1k8A5Q3M2VkmIz3SzswzEZwqGNdY2zFQKLtZCGF1qL9zCqtDgHsfWYvL7kTXYyIiIiIioqdoSFM5llHSMmIKh76Bz2cm0uvdz2838l/RgCKyAgDxFj9swcGftzCVGWRz1v6/SRkZFmetCs3A2rT79427eMdn5BdEGv5YQhpsinUw2qcfnKB1ryCrBU2HEN9Jz2vO8cRdYwI/b2GOzWNt/BaVso7a/QzW5mN+1/6+lQnRtV7WmNAMrFlTOIrqERrKIy1mGnmeDbRMBYm3gR+6cvtYmb5CLWCgX/xShYmUs3BnVB0yfpnA9Lw75WgnA+8Vc4+lYMj1NqoOycRip5tn/mkwMc+TiIiIiIhohIYSmCgYu8iiis/OWgxijYG1rn+m0lqnYvGTGNSVNzB3cCUtNCktBugssniNm+Yu3n2vetaYKH6pwpxeFd/J3eJQWoPB+RWRgAUu2xbU3JnBhW8hz+KXKrC427YAYVEVvyqyJ33fHtTbi4Pax7N5cBW/WJQU3txVYAAo1k2kpxU8/BJlbS/AuLeoWFNifAs4ljdwLJ/rMH/yMreP8/UUGgd2VoF9PXcjgxuexU7tcwhbkDNM5HmeIF+W65EcUJDWrtiZwcV2yLoMZSvgZq3DEVmHdFX6bBU4k9eY0HF4ZjrHsnJ3hIq0AEVUHfIvyro3+8O55zqfJxERERER0dPw2x/JP/8b9UEMh4bT5ge0OPeeYnukOpPbx/nOBI65GCUREREREdEwf5WDiIiIiIiIiCgaAxNERERERERENDIveCoHERERERERET11/wcNgOi4YuFgSwAAAABJRU5ErkJggg==;" vertex="1" parent="1">
                    <mxGeometry x="200" y="-260" width="750.92" height="210" as="geometry"/>
                </mxCell>
                <mxCell id="29" value="" style="shape=image;verticalLabelPosition=bottom;labelBackgroundColor=default;verticalAlign=top;aspect=fixed;imageAspect=0;image=data:image/png,iVBORw0KGgoAAAANSUhEUgAAAZsAAABvCAYAAAA67G1DAAAZwElEQVR4nO3db0xU977v8TdNk7sfUMUg1IPOdNqeyrFsu+MMFi2aqzm5XfypF7g+2DnS+CdeJqGNtN1NKs5OQWgywkm67cZYE7g9KKkmTW4D3FZ0muxTdywtUxh2WqocsVU6c2RbkStSHvjoeh+stWbWrFmDDDgO6PeVmDrrz2/91tjMZ76/329m0v5bUend/zt+HSGEECJZHk9LS2NiYpL/d/cuaWnAXbib6l4JIYR4qDyeRhqkwWNpj3H37l20h0IIIcR981jaY2nc1UqZtDT1jxBCCHE/PQ5ppIUTRv1vWpoMpAkhhLh/Htf/cveuBIwQQojkeFyvatJk/EwIIUSSPJbqDgghhHj4SdgIIYRIOgkbIYQQSSdhI4QQIukkbIQQQiTd4/c+JLnsFfupXg8Drc18OmpxgKMcjzub855Wzocfu3jidoBjzV0E73N/Nrvfo8QxbepPIdXeIuyzuqaN7fvd5C8N0aP3eVbXBDBf18BRjuf38PEn8KrbBf2teG8UcyjvAgdag+o1Sc5zcv/V0OHPZ6BgJy1xjlCae2jYkjmLti5xSmun5rif/EABO4/M7vyRj9VjF6TiJk7vg5aSWnyWByg09TQyq6do+CQbdsd7ph+gfR30uQZMfamhw18JFv8WNcf97Fhj3DLBuXM32bIlN7bthXKPIq4HGjZqsKRb7st3v0d+1Bb1hbd/XS5PkM7mChvnO0NsftnFE8CvI4EEXlT1AIBf+1vxdoasD3OUs9kBkG7oT4iB/mXYAZa6qPa6ovpnGQxz6Beo4fRzxX4OudMJnn6XY72RI+3rcnliaTql6wL6FrZvsgE3sDuyyF0KjI4vvKDZ10HfqxYvDsBqv58dpm0T5+oo3e/Dt7/E9CKr0NRTyVhJ/IBq2X2SDr+fDgo4aWhL78fpVScjjxeQmYKxwe+nwbRNDUkftSWmeylu4vTvxyhdkC+6Ck3Fyzl3pEXt58GtRN3xq376XtX+rgVHy+4CWlCfn8r/LIn/xmBfBx1x/68QC0Va8Svld4cv/DCrg3/zm9+QvWJF3P23Jye5PTk5uysXujlUajM1YPXOPFIpDPQvIz9OWKm0AFhp0fYM1AAiUh18lU11qU3bblermtGz9FBEyTJTH/VK655XMVY6xpAx3reNzRXFbF5v09ozBpqN7fuL4SvILbVB/1kurd4EnzTTv84ixEfPcqC1l4Wnho6eIjIzbzIxDAO7rcNj9pXNBOcOllB7RnuoVQS+oRdQ+DMtvGHdzkJ+J1zcxOl9LwA3mbgxxsndVtVNApXNxJfUW1VIxU2cPpiDz1xhRlUgauWx2rg/6rm7d5WqtxkO+5mqtpjqR6Gp5w04Evk3rjneQ84n8R+LhSmhyuaVsv/B6n/6p7j7R/7jP/jfn5y6ZzvhCmf0LMfGN2nDaF+R7S6iej+mwAnx6Vch8vMge3068SqKyFBUhLk6iGEMvMJibehLvfax7P1Ur3axuSIXOyF6Wns578his9tFaWFXTLuRiil2GC22byH6R6YjwRlVMRmlk/9yIZ+29rLZrYVTqbZrfZFaeb1cDsvSw4FFxX6q19+iZyEGzb4O+l6FUwVnyffnM7B7gHy/nw6LIZToymYWL2iGF7DSM2pYKdquqApH74fV070AKM09NKz9nvoj31OzD05+AjX+HrYeNL+YmiobyyGq+yUyVKmHXMe+lgSGIBWaisFX4qPmuB+FS5CZa1m1ATA8EPn7vkq28D31ZyJt5WTfZCz8uIb8NTcZkKBZ8BIKm1+u/33GsPnl+t/v0YI29wHhd972ik3avl6OeaDaW0S116UFheH42wFOe86wfr/bNOSmhs8NAG5xYxRYmchd6Zdv5UAv4UqF/lYONKvDbec7ow+15xVCb/SL+RPr3Rxab9xio8T7HiVxLhfsbOaA1q4evjOF4/nWdzlvqKLC4Vbo5lApcFs97qmsdODWrG/7gdCHTYZPsqFAe7cMQAs7C1qoOe6nz294QbMaZsF62E2lVjctQz009DRBSW3U3swtjfT5G6NPMb6gLQTacOPEuTo2lKjv/msAztRSekahqcdP375IhWJd+eXS56+0bj9edZMwH18OvUHNKgVm21rxVtZm5rLF71erok9yOL1vbBb9UWgqzmVi6KThuFxyGOPLcNs5ZA4PyCDaIpBQ2Jz/65e8sG4dS5dmxOy7fXuS83/90uIsnY3t+7XgAHAUcchbFN5rnrOxl76HJ7sVr6dVG94y0IeICt0cKl0Weyk9OIzhFkMNqQOe6K3qnFCIAXZwyBtnyM5RxCHvJq3C6sLr6TLd58wLBKyqMP2eD5XGbg+efpdjqFVYsD8A612x4bY0m6f0v49emNXChAeh5rifHdmXGJmAzDWVUS+G0eGRyw6/nx3DJ9mwW61OYObxeqW5hxr+HKlazpSQe9xP5T44aThuYVc22nDYjUuMAKtNwRj97n8rDX4/NefqKA1XfjPNZcUOQc1fDZVbYOhgArGlB2ZzLrX71TkbyKGyx0+D1TCgFow0v6EOE+rPyfBJNuwGMrfGVEV9/sqFveBDJL5A4POuTip37bHcPrMQnza/y6fa0FW8d/HqC3H0/EaMqKCanuGavRzzGC6iD5vFW1VW6A6HwA1D5RG5rlZZzHM+5Hzru5w3BOGv/a14/+YKr7LrGcmlRBtmVK9jY/v+ZQy0niXbXWS6fiHb3XnkOmz8trAQHPBr/8JZJqBO8qoviPGHwWro6MnhZNQ7XeNcgWHy2GTiXOz1AJTmyLaFXdnow2E1dPTM8G7favLfuPhipqpv3n3U3ggA6pBaScKVhNL8Blu2ZKqhcE5/U3qJUwUD5PfkcLJkjErDf0Fh69qbjAzD2Ccl1NLE6d+DXg2bWldD9cd53aRIsoTD5ufRq/T39bF+w4bwtv6+Pn4evZpQO/Hexc/KPSqbeJVDmHmOZPQsB1qh2rSoYLP7PTaPz7B6bcZrxQ6jRS1EWBrZ/sR6N4dWBzjmeVcNQIeNnztDPOV+j0PeIn7t7+YS6eS7tYA1hO2v/a14W6Haa2PZpk08wTQDf4vf39QxvmBZmDBUxeG5nQIGDMuZzdTKxigyt8OTmUwEfPiO+LQX71lOZKeSxTv2KMOReq3muJ8dnGRDwcAM96W9CM+bPsSpVmFKs0JLQqv6FLauzYwsLNjXQd+TYwxl58xwjhrCNcd7mOkosXjMaenz+b/+O0897SD7yRXc+OU65//67wm3MXNlM5deGfrX+m7sMNK9Pp9T6I6sOHMA2Ph5PETJejceZg6c2FVjpmE0fR4ICFd4Vv3zvhde1aaGiPE+/gvZ3iKWaXM1+jzPrRshIMQPo0WUONRqaH7LsZPFOMlsplY2YUd2suGIvgdWvzrLyqY4h8yJMS6hsDV7grEfITLMpFUyC3gJ9IzzKsX6O3uVvixYfYZmCvIZKpszY0wcfIGcYsAwzKasWs7EL5csTvBRe2Qrpw9WUoMvgdCOXsygtj8A2VvZ4VcrswY/kf9OxBuOz6Gpxx+7Am/4y/tQvYlkm1PY3Llzh4+P/xtPrvgHfrn+d+7cuZNwG4lXNtmUuovVv856GC0B2jzPZr16IESws5UDN9wcKi1mc+dMH9BMt/ickEVlY9xtXvp921DZaIF1yGsIscI8de5pvRsPAW6tV1egndYC++fxaXCkg2MT2x29CzBwEqhsTOKNxZsrG2XLCzD0Z3z7KmnQVjApzW+wdujP1JKrLko4shPf8R6ain0Lb6lsApVNtHhBfq/KpoWB4Up2/L4GzmhnFzdRM9OczJlaWrb00HC8hpYEV75FPqQ5wbmDl2DtTMNoVsaoLSmwapkO/wuMJdQb8aDN+UOdd+7cSXjoDDBM3idoqQ2+auXGJrUCiZ4zsbF9GXD7Bj/fq51bCX7w0aK/v46bW0iksrFqtzC8Ci98jf5WDnSC3WE4Xlsk8MR6dUVa8Cu1Qot8C4M6p5PvdnNjlt9e8GBYfAAxAbOtbHKfzGQigGEFUw0da7+npcQHRD5Y2vLJ95w2vsAuCFZzEbM1x8oGaNldR05PY9TCjZGPC2YMYt/+s1T6KzndfInS/RbXN1do2urCiY8L2BDooK94jC/PwNZ9s7m3TLYc9NMH8cO2OIdMZPnzQvcAv0HAFjNXcS/qUJud7KWGF/NefQjKvNJsmoHW2OGx6GG5aQa+SDzpotsI0WMYUrMcsjOLWbEWu0pODZfYobpgVIARma9ylONx69WhIdi05eP6Ny6kWuxXjtyDxYctZ1fZ1JC/5hIDu3PJf/USvv0+lOZKxo7sJPe4n4Y1ats7QXt33kFTMQugukngw5mamNV1c65s4N5vBFrYGVNMGIPRd++QPBNZXVhzPJeRMzvxobBVb0sr/3Nv+NVhtGHjUmftQ7tEDyOan7eJc3ULdy5OAAl+g4AQQggxF/Ktz0IIIZJOwkYIIUTSSdgIIYRIOgkbIYQQSSdhI4QQIukkbIQQQiSdhI0QQoikk7ARQgiRdBI2Qgghkk7CRgghRNJJ2AghhEg6CRshhBBJJ2EjhBAi6SRshBBCJN0D/D2bB8mG8lYVriXTBNr/FV9Cv5ZmbeW2d9jlTGdysI0PP0v978QIIcRi8lBUNiu3vYOnvpEdG1Ldk/us4ijfXrnM1SuXueo/Slmq+yOEEHP0UITNiuXpqe5CcnS+zovPPMfTrRfve9Nlx77manet9XY94K5c5uqVbjz3/epCiEdNaobR7OW8tsdJxtQgJ77JYpdiA7Qhr5wqPIoNgFFfHaf69JMK2VGvEP515qAPb3tQGy5TNzmURjwbBzlxOGC4mOG8oA9ve+RnoV17GlEMv80cfT2boe0QgUHjDUT2RZ/zkBj6iKfLmgDwdF+myn+UCwWv053ibgkhFq8UVzarKdOCBdJxbX+H18KPwbGxnJVATNAA2BVe2/bkPa/w7HbDeXYlPNRmDhpQwyqyPxJiYMPlnEf1ZBwOu3I5pqLwdBv2JTJcZmr3c1OhEtWuXqFo53ygZMHaveH93x7bZnkJ7zcXIWsVeZZtmq5pvk/Tvc75PoUQi15qw2YJ/NReh7d9kEnLx1msAFZuK4xUJg2R/Rn/uIofDteFFwCM+urwHu7iWvgC6fBjG96GyDEZWTawl1NgBwjha6jD21DHicFpABxrCg37pwm010WdrwrhO6xun01V49n9Mjdan+PpZ7Q/WtUA6rBV+dgfwvveHFzHH+O88Eer5fP3V9Glt/nMR+CODHl5ui9TteIL3gzvL8ML4aG5N33jagWj7X+x+jPrvm98Hoa+Uc8FvGWG+3j7C7Ir9NCo5fP3DffZehHGv+BN7V7nfp9CiIdBalejTY3wQxBgXA0PbnEz6rGJXcFTryRwgWl++k5dOXb95jTYTdXJ1DjXtb9e+26ESaeTjIwsrZoy9i/O+bN0YWycKvdlrm78KCpoYBtFziyysv7E1St/imweygOsX/zDajeSx/PkXblMVXjjOKEKoLOWl9aOc/btOQ59rd3L1St7tb58FBOOHyhZhoMvkgfW19Eqou753KcQ4qGwuJY+m+ZcdCvm2p5WOV0DVv5utRpuk+NcIytm/3wWIXRXv6S+GNd2c/XKZfUdf3gOZJyzb79EdeccGh4yh9d9Eq/diqP8UYGzbz+n9rfiKN++v0rb2cTXQ3vVUHWDfl/e8MnzuE8hxKK3KFajXftuRB1Wsyt46hvDf8xLnR1KI563yiOVSTzBLvxBABuK1tYuZzowTeAvvRAM8NNU9P7o+R0bylvWfZhRUxlPP/MRF8JzIJ8Rup5FUe0c5i8u/Sfja/fGzNNoF+LroSyKdlvuBKD753FYYUvsurmryGKckBYYnt0vE65xKo5SHjVsZwyWedynEOKhsCjChmAXH+rzOBYCf4m/L55AexuBKeMW4wdAQ/g+NbQ5NYhPm9NJ3DaO+Y2T5nuhtcwwB/IHzvIyH1hNumuV0FX385ClHaNPrHe+zoutF8lzW0+6e8v+wNkVe2MXCOia/lfUdeMtEMB8zvjzVGnnlI99wQV9X+frdF2Pvo+rV77mWMUs7lMI8dBLK36l/O7whR9S3Q+x2GlDal3PRILU032ZKpI01CeEWFQWR2UjFr7cVWRFbdiGbQWMj12Ic4IQ4lGyuBYIiIWrqYy2jZepMq6OG/qIp+MsqRZCPFpkGE0IIUTSyTCaEEKIpJOwEUIIkXQSNkIIIZJOwkYIIUTSSdgIIYRIOgkbIYQQSSdhI4QQIukkbIQQQiSdhI0QQoikk7ARQgiRdI/kd6O59ph+n2ZqkBOHu7i2oQqPYos8TlkPhRDi4fKIhY0N5a0qXEtS3Q8hhHi0PFphY3fx7BKI/qE0G8oel7q/rw1v3wPuU223+uNoXKTN8FswgPYbMfqvYcrPKgshFq/UhI29nNf2OMmYGuTEN1nsUmwATA628eFnIawqkFFfHaf6TOcDBAcJZDhxLYk+JnqoLISvoY1AcJxJIIN0nv2dDYIhdV97SD1MH0YL+vC2w456BYep6+E+Gvtg3J7AUFzZsa/5wPk33myFD9zmvbV8/v46Am8/pwZMxVG+fb8bT6cpkIQQYhFI8QKB1ZRpQQOQ4fwXLSDsZJqGuhzKO9q+QnYYXuSxO2OGxWLmZLChvFXOSnq5FNSvVYWnvpHXttlImClo9PZ2bEisme7ql3i64HW6LfaVHfvv5A39n3AlU/byOrJ4npfkp5SFEItQaofRlsBP7XX4gnpA6BVHL6caesOH6fsyc2Dl7wrVaiPow9veCxRGVyD2cgrsEK5mwlXSan5rB197HQG9+kALneV6W0aRPqzc9g67nOkQ9PHhZyFce6rIILaacawphPb7MxSXl5MV/pVL/eeV24b2Uv7UNkB+kEwIsbikNmymRvhBqzSu35wGe7r6wKJyMJu8qZ1IL5eCCg67+QgbSn0jitXJ+tyMHjr2QhR7Lz6rYzdUhYPGHEgZzio8zplvcX7yOOb/E67BP/B09Wd4uvcm82JCCJE0Ka5sslgBXANWLE8Pb3b9sxo06hyM9QqyjOV2IAQUkhsTNBCpbIwK2bEHTumh0XeRUcUWMy8TZpx/ial8jHNM99+FsXGqlL3YWp/jxSaAbdhWwI1vpKoRQiw+KV6NZq4+pvnpuxDXf6dWOQ6lEY+pNLn23QiTTicZdgVPvUXdEgzw05QT1xJT29qkP1bn6RVWjmGbvZzX9PmkJU521aslzORgGx8Oh1DsNlNlo61wy7k/n9Xp/uJv/FFZxddN2oba/0lR1kXammY8TQghFqTULhCYGsQ3OB1+OOpTlyNf+6yXUX1j0KctUdYfd/GhL1JNTA76CEwBTDMxBhDCd7hN22YWZMK8PV4o5GTFH8bra8Pruw8VTW03V69c1pY+P0/Vlctc9R+lDKDzdV5sRd125TJX3cQujRZCiEUirfiV8rvDF354sFc1Ln2e7yf1w5P9VsNmQgghFoJF+KHOwjiffzkrQSOEEAvUQ/FFnMmcqBdCCDF/qRlGE0II8Uh5KCobIYQQC5uEjRBCiKSTsBFCCJF0EjZCCCGSTsJGCCFE0knYCCGESDoJGyGEEEknYSOEECLpJGyEEEIknYSNEEKIpJOwEUIIkXSL8FufUyXet03Ll4AKIcS9SGUTh2tPI576d1Asf3I6IsNZxY4ND6ZPQgixWEnYWLKxPO7PdIbwNdThbagL/4KoY03hg+rYLNTyufbrnp/XprovQgihSuEwmmlYamqQE4fH+a/1Cg6mCbSrPxHt2tOIYodRXx2n+mwob1XhWjJNwDfCs4oTBtvwL6/SjvGBouAI+vC290Z+EVS7RHjIS/91z6CPEzcL2eVMh/A1jf1Kx7WnEVfQh7c99g6u35wGe7r1/RjuATD8oihMDg4y6XRG3WfM+fo9hLeb2rNScZRv319H4O2P4P29Cf1rCCFEMqWosrGe/0jEsxsjIaLL2FgYadMUNGAx5JVRSJlTD4t0XNvLWZlAH1YsT488sGeZ+pOOa08VLr0vWtCo/XCa7t3i+bArvLbNRkI6X+fFZ16iujOx04QQItlSUtms3KaFwtQgJw53cS28Z7bDUenwYxtebWLetUfdmjHZi/dwr7atkQxiqxnHmkIY1ppZcgt/w78S0INpSRYr6OJUQzBSQRkqD5UNpb4RJdyXaQJ/6YUgfNjQFTnmrSpcS5ax3A6uf3ZG98UUhOHnw1yR/aOLlXRxqqF31s+tEEIsRCldjTb5Y8AQNImY5qfvYleAjQ7HvihnOKvwOOM0E7xIACA4ziTEVEqz6Uc4jAzDZPFMjmt9Dgb4acqJa4npALuCp16JOU8IIRa7lIaN+s49ZAicIBNT4FiSTmYOEJxpon52LJcmb3h+Hi2G8DW0qSEVZkPZaMN63iciI8sGhMDu4llz0IBhnkYIIR4uKQmba5/1MupUcCxxsqteKzu0IbWbk8AScCiNeObxJj8wHEKx20yVjRYGs25l5gUCESGt39rxs+pLxLXvRph0OskwVTbqoogEFggIIcQClaIFAr2cavAxarEn8JdBJvUHQd/cX1z72vD65vphyxC+bxI719jvyUEfganovpwYnA4/HPXp936Lm0Eg2MWH7Yb7njN92fNe8oA892WuXvmaYxXzblgIIeYlrfiV8rvDF35IdT8eKSu3vaMut45ZICGEEA8n+bqaB8FiGTbA6DcSNEKIR4N8g0CKqPMxqe6FEEI8GDKMJoQQIumkshFCCJF0EjZCCCGSTsJGCCFE0knYCCGESDoJGyGEEEknYSOEECLpJGyEEEIknYSNEEKIpHscYE3eb1PdDyGEEA+x/w+hhavW3vlqxgAAAABJRU5ErkJggg==;" vertex="1" parent="1">
                    <mxGeometry x="208" y="40" width="333.24" height="90" as="geometry"/>
                </mxCell>
                <mxCell id="30" value="" style="shape=image;verticalLabelPosition=bottom;labelBackgroundColor=default;verticalAlign=top;aspect=fixed;imageAspect=0;image=data:image/png,iVBORw0KGgoAAAANSUhEUgAAAY8AAACtCAYAAABIifNuAAAgAElEQVR4nO3db0wkaX4f8O86q0S24mzO65odEcgM7OGxaLESjMIEFOtWOam7IwFNS3uRctIpKzWNhNFaCF6kpndf7rGdSCCUCy6JpqWNNvIL70pNAS+als46a09NwALkazXyHB5m1o0xS93ZGd85F69ycV7Uv6eqq7urmm5gZr4faaSBpqvqqa56fs/zewp+r/y70Yl/ABERUQCvvPlffszgQUREgbz608f/87qPgYiInjOv/r//+9V1HwMRET1nfuW6D4CIiJ4/DB5ERBQYgwcREQXG4EFERIExeBARUWBXGjy+9bvfxrO1BH78u28G+vlnHwzV+ak38cmia5vvTATaDxERBfNq6zf5Jj5ZfBvjrxlfPn2Kja/dtb8G8Mbg23i29rb+xbOnmJz/Pj712NKnh1/iu4N38cbdDnwI4IMae9z4rIS7ibfxbK0f35tcr/lzRETUGp7B45/+k3+Er//mr9Z80/nPvsL53zb4/ZCnJXwP/XhP+Pq1D/ccP/LhBwm89zXzqyF8vtaPtzw39jreW0vY2wLw5cEP8Fu//xjAY3y68xif7uzp21ubAPL1D42IiC7HM3j8p3/7L/Fvuv95zTed/+1X+A//o9yeI6ozE6mmBxzks/idz4APPsziA+jpLiIiah/PNY/HP/k/dd/0p3/186Z29uEHCX0No+E6hmkIn7t+Vt/Gt/HJMIDhn+K/5n+Kt6IJPFv8Jr7leveXF4+bOk4iIqrPM3h8/Cd/hcc/+YXnG/7uq1/iv/3wtPk9Pi3he0/r/cCv4/cWzYCxhz9+CsBY8wCG8I27AJ59iY0dADuP8eln63ht8gfYwF2seQQQIiJqvZoL5uk/+gtk/v296u9//wv8/O9/2cZD+jW88RqA176OT4b3sPHXvwDuvo5vvAPgL38dbwDA3/wMn7oX5gEAd7G2lrC+eiuawLOo/aq9TkJERJdRM3j8+U/+N/77n5zjP/6r29b3fvjkf+GHT56194j+5s/xWzsdeBZ9HePfHMJ3vq8/cfXWbw/hW7fewBsAfvRn+sL7d+Y9AsE7E3gWfT3g2gkREQVR9/c8xPTV3331S/znP/oL/1u+24/37gb4/rA+q/jyr38KfFbCxjPo6aqdp9g1/v97v/GrAH6Bp39Za6dv4pPh1/X/vnYXa2sTRrqLiIhaqeEvCc6qx5hdP8bkH/5ZsHRVrbWNpyW8NpmtemwX/8IIHhf647cbj38B4HV8453H+M58Fq9NngHiekeVIXy+pqexfpTPYvJAf/97awl8/o7/wyYiosYa/pLgz//+l/jTsyBPVz0W0kl7+ABv4pNFfaphPkqrexN3vmb/X58x2LOKT3//D5wpp3c68BaALx8/daWihLUPR6rqD+x1kWgCz367+vdMiIioOW34DfNGnL8M+KO83tl/+tld/PibP8PGwLfxLFH7FxTN307/8uAH+MPfeFtPgT17islJr/UNI5C9M4Fn0X58/s4efueztjSKiOil8so/S6yxhjkREQXCv6pLRESBMXgQEVFgDB5ERBQYgwcREQXG4EFERIG9+iuv/uPrPgYiInrOvPr6m//6uo+BiIieM6/c7f46f8+DiIgC4ZoHEREFxuBBRESBMXgQEVFgDB5ERBQYgwcREQXG4EFERIExeBARUWAvfvCIr2DvREXquo+DiOgF0t7gIat4sruCmPCtlHqMPWXM6NSP8cT9b3cFMcjY8nrNDAIe792SvQ8hFh4AttewIH5PKQr7CtQg67hq7c/bGJRd+1j3lDHnMZrH43VMjrYWocQDHTARUVtc38wjN4Ohnl509/QiUwK07Tl09/Si+8EMVKQxarw2u60Bpaz+Wk9MCAJHyBg/0716hNCUV8cqIxkB9gub1ndS6jGWOzb07QYRX8HeyTgq81mUAzY1pjzE/QOjffMFIPLQPlZZxfLgIWbN9h4MYFk1I5OMrcUB7M8b7Zw/xP1FzqKI6Pq9GGmr9A7KkNB1z/V9eRih0gamc/a3FmK96I6lg+8jN4OhnhHHtvxSp0cwNG0EsFwe+5p5rGNQ4n0o52agQv86OigB/cNIAYgp447jj4UHIKEPI4FmPURErdf+4CGFsSykl5L9bdiHPIwQjlB0xIQxKHEJ+Y+bCBTtFI/ivmQeawhdkobKI0BPiS2hK5fVA2EcCHVI0M70eY45Y8qUgFt3xursgIio/dofPLSClZIxU1St0YekGZSmgIwjpQVAnkQUh8g3MVNoHxlbi2FcrLqO9Z6ZEuvFaFWsC0HZPcbE2VxzMyYiojZ49boPoHlH1QFDkBruQzkXM9JBN4GMrZMEsCoGiDIqWgLRqU5kekb0tsS7cAsaijmgHNaQjCTQtdqLoTQAjKHrNnCxs1lrJ0REV+LFWPNwi69g4nYBmaYG6uaTUS1cmI6vYK8qcADAJvIHGlDasYJg6t0wJONrtXAITUzHyZOISu70HBHR1Xshg0fq3TBwkPecdZiPxS5HJHs9RvWzAm0+pptACEBoyv+js6l3w5Cs9zgfyVWnR5BBwl4TQtZOT+VmMLSK+uk5IqJr8OIVg4qvYG+xE+vsZImI2ubFCx5ERNR2L2TaioiI2ovBg4iIAmPwICKiwBg8iIgoMAYPIiIKjMGDiIgCY/AgIqLAGDyIiCgwBg8iIgqMwYOIiAJj8CAiosAYPIiIKDAGD2odWbX/5HyNP3OfUltcK8WH9u5Tr/+y5dHc62hrUCn1GHsKyxoDMOrumGUT/JVbeJldSfDQbyL7n9eNFpyMrXZ8wLJq1drwy6wR4v730t2U6Ri6e3oxu61d6W5jStFnTZY2iEdxH80WHiNPTdyDftS/TsagyGFcrJols0cw7aeEtThg8l0b6MXQ5jK0Y1B2lxBFAbM9MzeoJGxrqdMjRttkbJ2MozLv88J7CS3Eeq+8zko796kXHpvzvLavo63UrBC6JA2VR0HeI2NrCsj0mJ/zGJTdh1Di6Zfi/m/vzCMexX3pCJkHtQKHWfLVWV0P0EcJe8qKUb3POf3XZzIJhCAhulj9ul31r3oGkFKPsaUI01Nrn8Z7pvrsCoOtGEnEV7DnmiHFlKK1X72dsnAeXLMpx1TaY9ZmjHyCzeac58dx7uIr2NtdQUqYTdnnT8bWiYqUj/SU93mo/pxt9a8Fzxmdsc3liAT0J2q+XnOfrlGjfQ71diqe58B5Hkf6j7A+vVlzm1X7db3u2K7rs/Z33brOX8Bzq4va14PjtTrXCcag7BahyDWOydUW93XiyEa05B50ZyKEr+teJ2KFUKE/8bXPMipaH5Lmz8qTiEoaKi9B4ADaHTzudULSTlH2fFGfldw/mDOmib3InIexLHxoUiQMGNPITKkPE8bNtBDrRXdPFmVoyM+b08yYEP3HUbG+P4f9wYeODjkUGcD+vP5aHmEkZQBIY7SnF92rR4BWwKxxTFZJ2GblZrBeknA/bHYEY4gOSijn7IAqRRLoyvUaKR8g+q55DmRsLXZi3TyWniww1YocutHWHnOfknVu9QMKI9mxob8+XwAik8I++5CMnxrnJ4ty/7i/1GFuBkPm+a1izFDPs9YxdQsDDnV6xP5+TxYX5vEY25zd1oCS/d4hszOvt09ZNcr69lrtvDUldj59iA4e6u2sOge6mDKOW9trztmFkbozt+lM4I1BiUvCNSsca3wFe4vmdWm2c8kxKPC+bhupf24BQIoMGPeLe7sNrhNIiMaB7/ZUvzf1rpgCct5HMaWIiTP7vp89GMD7yhga3oPuwOx3baLudWK20dWf+LrvNzH9oNcuIx0/xexLVMG0rcEjdkeq82oIXZJz1LawcwTc7rJHL6UsRo3PsHymQeoINd5pPIr7kjgjWUJUktB1z/4RbfsjY1q5ico5cOuOv7UJ9wjY72h/4eMCMBjV2+WVIxfaqRYOoZnnQB5GCH12DXNjdNQl3ixGZzUaKMY5R6LLEcl1bo+Qseqo57GvifvUkE+bnU8axZLz3DbFnKHWumEdnYbHOWhC7I4ETez4zXZabRHamavgomqfMpIRYL+wCf82UTnXr82qmcy9TkilDSHdkUax5Lw261+3ekfmDgwNz23d7Ta6TiAMgvT9i/draMprBK8PnqTIUt3tehIDs/Wv/Sni2ve9fn6SyNqD3xv+gEQrtXXNQ/1Cw3KkEyHgatc7tAJma6bKmmevbQSUy2NfXtJHZXcGgIOP/G+nlL387Mclpjx0rEPFlCKWO1q6ixaSsTXVh/Kq2THp60rXTh5GqLSB0YAdl7kOondIS235fFvlMteJda8Ygd95T2rIN7MuKKt6SsuhyW0FUPO+t9Ly+ue3EJtD1+4SRmQAN/Mjban2pq3Sa8iLOUEHPV9oT4PHoMT7oB3kfXasZVQ0j1FvroILKWxMg5vw6BSapAe81tnEdO4IoWEVyYjmzJG76Auwxjl4dAqtP1F/htPEmkeoQwLOK9YifzJSZ4YoTyKKQ+S9bs74Cib6j1C87I2Sy2PfcS2I++jCLdgLmTFlvOqzUb/QnDNWH9QvNEhiKkqeRFTy2xYj/fRx8w1Xp0f0tJZ53I9OoYkpwPgKJvq1QDMbz0eD653bBgJdJ7WkY3pKyLqnjNmXXOdpqlr3YMOZh90fpNRES66TxsQZaQhdTZyi51WbH9XdxPSDOeRvJzymfZuYfqDnda300nnWzgH72XbuSJ8aOxbz0hidLwDCtDjQs/a5GayXhFRRqx69S++g3N+HUGmnOicqLOIlkXXm7FfFNtZaEA1m4eMCNGuf46hsu9cEhPZPwfXAg5ASXBzA/ryd4zWn946FSWsx0Ug9iYuhVlvc14LwmrFmZO5zueMQefeTwOk15GEvsFopoXr7TMcwuy0J7ZSQn/eZr64XUOu/0bkAvTiAfSs1NoOhVU04t2FcrAYbUZfPNAB9+sjXUufcNtD4OqnFtUB/kgBW7XO7EJtzfF5Vg5+m7sE0Mtuada9MnGX9XyfNcn9mJwnc2p4LmEJ+fr1yt/vr/3DdB/FykLF1kgBWnesTeipg4+akLuIr2FvsxLrnwh8fRTYXoLtyPtaZZFVfRG1DCrXm/qaAzEu0aEvXp82/50GmmDKOkFbA7A2JEdSsTUw/8Dc7Tg33Aec7VxA4jCeqJD3/z8BBV4HBo92sRb4jZF7gX5QkXUo9RrLf+EIrYPbBVYwW/Ac0olZh2oqIiALjH0YkIqLAGDyIiCgwBg8iIgqMwYOIiAJj8CAiosAYPIiIKDAGDyIiCozBg4iIAmPwICKiwBg8iIgoMAaPF1RKbcGfnCYiquFKgoej2H3AwkW1uQvet4isNlUzI6YUW1f7wze9bkJrzmewfVbXQ3DVqqhZi8H4OY9z7Cj3eeXnkoiCaPNf1TX+VLRQypKeZ2ZNkjnk40u473gtjdEe51+QTanHmDgrC98Zg7KbAEpHwG1U/WzyNq8ToudFe2ceVo3fWh2Cq+KYMBqNKUXsKSvCaNauBqjPZBIIiVXtHNUCnaNgcYScUo+xpaxgr2qfxnvEqnMtHAE7Zl8+26kfllo1mt9Txqwa2FEJQqVB90wsam+3aqRvnPtAs6w0Rnt8FEECrBK1YsndmPIQ0fMsRnfcPyxjpL/edUJEN017g8e9TkjaKcqeL+qzkvsHc1Y94sx5GMtCZy1FwsCq8VrJrsO8EOvV6yJDQ37erGVsVk8bg7I7jor1/TnsDz50dKqhyAD25/XX8ggjKQNmx9i9eqTXYTBrJLegwl9MKWLizG7n7MGAo8Z6rXYivoK9Kclq4+y2BpT0MrXq9Ih+/BpQXvWq5wxIkQHjPIjtvBqpd8PA9ppdmCi+gvcjGjJe51MeRkg7RZfqHfCJ6OZpa/CI3alXDT6ELsk5Ml3YOXIWqC9lrVFu+UyD1OEuae8hHsV9SZyRLCEqSei6Z/+Itv2R0cluonIO3Lrjr6Ny5OR9r92MITooQRJqSC9HJGdbgrRTPD8N1G/nJqYf9KK7HaP9qlnHGBTZWe+8ihRG144ZBLO4iDxs/XoWEbVMW9c81C80LEc6EQKuNh2hFdpSN1qdHmlym3p50MB1v3N57MthPRAuAs9HNcIxKHIY2J6zA4U8iagkAVY7AKAPyyfHSK72YhQAtAIy1qSkjIqWcAR8IrpZ2pu2Sq8hr/Uh6bluUEZFE1I0GIMS74N2kPfZOZZR0aTqDiZXwYUUdqSFAnl0Ck3SA15rbKJyLiEqB3+CC/IkoudZK91lp+bEbfufOTk1s+bhgzyJqGtGiXRMaIMzNTiaBpDeQVkaQNScaRhrZUXWeye6sdr8qO4mph/MIX874ZHu2cT0gywurHTOEqLnej7f97ZzR8JisbnQnMbofAEQ0kRVi9D15GawXupDspkF836vdgILMX3NYTloyiu9VnXu3G1Z+FhsaxseXXYwH3DQF+rNVJzdFmMAIK51+JLG6KpmpxoXG6S4iOjasYb5TSareBI/FVJw9kMG/oMsEVHr8TfMb7DqBw5C6JKAiy8YOIjoenHmcaMZv2QpxBBtm7MOIrp+DB5ERBQY01ZERBQYgwcREQXG4EFERIExeBARUWAMHkREFBiDBxERBcbgQUREgTF4EBFRYAweREQUGIMHEREFxuBBRESBtTd4yKqrFkXAehOy2vpiRQ2k1GPPmhzXxnEOnbU8LnesZm2OALVOLslxvO46KfEV7NW6Tuq95r7GgtRfaXafDTjKFbuuX2cp4yDn3vy8PGq8V91nAa8Fz3No7E84n/rnpx+z+9q7MfcLXZn2zzyMinF6BTkN0cV2FyxqXkwpIomso+rd6LVWs5OxNQVkjGPJlJxVGRdizup8oXiAQBuP4v55FplSH0au4oaXVeHcZlHuTwgdjYytxQHszxttmT/E/UWzYzXrn+uvzW7DWZXRUaUwi3L/uM/r6xL7bNDO5cFD65qfPRjAsvmZySqWI5r1eXavAkmfg6OY8hD3D+aMYy0A7hrv4n0W4LqNKUU8Ea6x7p5edMfMNx+hjGHjnMgYwRHKxivWtTdfgIYj6/3Xe7/QVbratFU6hkxJwv2wMWpyjO7EUZqMrZNjPJnqAyShAp84qnS9t2rEY4ymgoyEQh3u+hmC+Ar2xJGi42sZWycqFGFUuddsGVyHNEaF0rMLO0fA7S7PziZ2RwLOK77rm8fCA7jYSWNh5wihYdd53V1BqkZbUuoxtmTj8wkyek7HhE4pjWLJLp8bU8YRKm1YNd5j4QFIMIPaJqYf2PXf1cJh7TLB8S7cgoaKj1rxl9+ncQ4cMx29kmI5Zxfvig5KQL/eAcfuSM4qi+kdlN3brXHdqtMj9p/iz+Wx71WCOTAZyYiE8qpX1Ua9dkxxB/o5kYeBnZ3L7pBeIFe+5lE+0yB1GLdLbgZDwogncx5GUgb0TtNZ69o5IpKxtdiJdWHEianLp18WYvqIuLnOvw9Rc8Q5XwAiky1PB6WG3TXe7U58OaIhE/M77BtDdFDTa4Snd1DuH3YeqxRGsmNDGOU62xKaGkZRmA1NBD5XMkb6NewX9M4w1CFBO9PHtCn1GMsdG8iUvGuzx8IDkEo7js7OSqEshnHh2RFWu+w+a2wVXZKGyiO9jVsnS+jKZVGGhK44oH6hQRqMWsE/powjZLwWiFeNd3GQ5TfVG+/CLZjbEQYE4vvTO8CwjNQwUEyXUdGaOF56IV3zgrk4gj1Gst/75q1+2zBCEOqMnySqb0IjnRFsGm0ErZ457A+663M3oiGfNkacuQoumukU6ogpRSRvF/BdRyEo83iNFIjfWYA8iShOjRREGsWq1NWRHYjMUa7QFnH0vBDrDVicagzKbgK3tj+yRva6EJTdY0yczQmDBPdxq55B0k7fZYGpIJ9Z8/u0zr3X++6tYO9kHJV51/WXjiFzbnfy7+MQZfdMqeF1K2PLHSQdqbs55BG2U2W+CQM21/czZ+OYOAtal55edFcePJwjvgRCJXuNIVMKsKGSc22iu2fE1RldxiamHzSxjtAmMaWo59GtWuYe0mvI+xwVpoad6cBkP5ypq7bxrsFePtMgRRLoypmBaAxdt13ldmXVyM3Xm1mkkdnWfA1AWrdPx1ZR0SREpzqxbl6PrlSauE41VABuaafWOkJjMrZOEsBqveCyifyB5m9z9QY58S7r2BwpMyLDlQaPmFJEsv8I68LNagYSxFcw0e96w6NT7/z2o1NojgVXD02seVQdb1UNcfNGG4Mih1FnhcTrgPRZVsCnx1LqcePAAeizCclPvl9PGeXnxcCbrU5didvFIfKXDsx6GscdOABjTQFCGkaeRFRIy9iLuo06cT2H76fG++X36bXmYXTcQoor9W64RsrLmEHkXJ9rres2voK9hoFD324yIqG842fKnUaxJPl/GIBI8Grb92CMcJcBY/3CvFk2MZ2bxJOpJTw5WQJwhPy2hvvie3MzWH/3GMmTYyQBfbYRS+trJfdUPJk6xpMp42e1QuMOtq7qeuGObZrHsniMJ4tAeTWL8tRwgO2XUdGAkBEMfR2nFVCFcwigvNqL0bQ+CrUCq+Pc1iEPI6QdIuMIBmVUtAQmlDEsFAAYKcEkAOAIGT/bbUDP7wOImJ+3ue0YFszP07FPs9PWO0NAEo7JruWeUvWZk/Fd5Od7/c1AL7HPetTpEYRUPZUKwL5mje3an1mAY4URhABIXte8rOoPlxjKDQOMbSHWC6jHjusLpR2o6ML7nu9oxUI9vQhYw/wK+Uo/Xbf4CvYWO7HuO1VDRC8j/ob5VTAeK77xgYOIyKf2p61IT5G0bDGfiOj6MW1FRESBMW1FRESBMXgQEVFgDB5ERBQYgwcREQXG4EFERIExeBARUWAMHkREFBiDBxERBcbgQUREgTF4EBFRYAweIrEueq26Gy2oE3J1xqDsBq8hQkTUSJuDh4ytkyIUs1KZ0Tlff8dbozCTWVO9qhTnTaUHh+s/nz7JanOBTAzq4vVksGqYVxVnIqJ2ucKZh1597yJAoZq2kYdxazuLPAYQDVpnvKna6NfFKKf7XP8Z+DEo8gD2jcqHs9twVL6LKUUkIZQyRgJ7SuMytER0OVcWPFKqXoLU3ek6Ro2uUWlMKdqvnah2mdT4CvZ2V5ASXg/SYaSGJewX0sgfAPfDft9npIA8Rr8xpVh17CnVeUz12tlMekk/N3rlw9CUx3EZ6bXq0biMrRMVinHutmRjFuY+vyf28TpmNq7X3G30/trYx5Szdrq/WcImph/Y9enVwqFQmlhGMgLkP7Yr9Y30A9JglGk6oja7muARVpFEtqqEZ0wpYuJszho1zh4M4H2z85FVLHds2HW2V4Gk2NlIYSTN1+cLQGTSuwZ3FRkjt/Wa3GrhEPDd0Rij+J4syq5X1OkNlCVxFqPXCd8vbDZuZ5PU6RF098whr+llR/Vt252sOUOa3dY83t2HaMcGZrc1hKbGUZnPomzVZ5extdiJdaG+OaaMwBJfwd6iPQvo7sniIrLkI22WxqiZDtQKmDW3bZZnFQNdnfQUAMTCA3ZN8HgXbsGo2x5fwd7JOCqrBe+690TUUlcQPCREI30e3x9DdFCCFFmyOozliASpQ7/tU8N9QH/C7kym+oDbXUJHf4SM2fnk8tjXzM4PVZ2ROBqOKeMInVeMuuR57DeTuqqSRmZbmMXIwwiVNoyOvH47dVedXtLs0bp1nLCP3ahhrh9vAiEzsNzrhOT4+TSKJeDWnUumiYxA5/w3Ul3fW1axHNHsz134/pPFTqz3jGD60eUOhYj8uYJKghry8x8B8hL2lLJr9qEhP+/RSRjKza6PpGPo9nyf3pFDSuDJScI+ivAYkNv0eoNvauEQ78tRxLCJ0HAfyjvifKZ+O2+cUtaeFYjatRYtq/rgwMF1zmQVT6aAjFhbPVfBxWIYyXgBsz1G4L3XCUk7rZodElFrXdGaxyamH7hTHJuonEuOxU9R+UxDaEr1l4qSJxGFnoqqKx7FfekIGXGEO18IkLqqIzeD9fMBROMyRm4XkLH63vrt1DX7SO0mKuctGPmLHp1C6094p6IenULrH3c8PTchpOcA2DMqWUWy3+P9XimlBjOPmFKsDhz6G1EsAdpB3pixjUGJ9wlfE1G7XOHTVmmMzhdwa8pOIy3E5pCHsIAqLM6q0yPIlMT0iXtRXHhtCsj4SPk48uWmXAUXUhhJGXa6S1zYtTp0c2FZT+NEF6vz8gs7GqKLCSDnPJZ67byshY8LgJUSs4/HfNhgOSLZ6T8/C9S5GQytHgmL8MI5yM1gaFUz2n6MJ4thXKzanfzCxwVo5r7ip8i411tyM1gXP1NfC+YykhEJjs/7xHkN7Q+a7dcfynCvrRFR6z2fNczjK9hb7MR61UiUiIiuAn/DnIiIAmPwICKiwJ7PtBUREV0rzjyIiCgwBg8iIgqMwYOIiAJj8CAiosAYPIiIKDAGDyIiCozBg4iIAmPwICKiwBg8iIgoMAYPIiIKjMEjKOPPtrfqT6o3T68Bcv3H4ZNY+7xW3ZIbc26JqJErCR4p1Vmf+kZ3DrLaRFEmaig3gyGzjjkRPffaXIZ2DMruEqIQyoQ+72qWuKVL47klem60d+Zhln2tWeXPKL/qkc6IKUXsKStG9b5jPDkRStLGV7C3uwJFrTWbkYX3uSsQwq4Y6Hiv8R6xiqCj2p14rM4KgtYx1dhnSj3GllIvbdNsGVqbWTnQvV+vcyv+fK1zmxJerzp/tbjOgf/21D63MaVYtZ2U6r+dRNQe7Q0e9zohaacoe76oz0ruH8xZdasz52EsC6VJpUgYWDVeK/VhQuzEpDCiyOrvXT1CKG52GmNQdsdRmTdrYc9hf/Ch3SHJKp5MScjP2/WyR9MAkMaomVbRCpg1a2nHzKHwJqYf9KK7J1vdnvgK9hYHsG9t012vHQhFzNf1krTJFqbuYkoRy4OHmO3ptUqwxpQiJs7sczt7MID3zfMnq1ju2LDrha8CSbEkrBRG0nx9vgBEJv3VkjdTU8Ln6a+dtbp2fXsAAAKaSURBVM+tOr2BsjSAqBVQZIwIddPrtpOI2qatwSN2R6rzaghd0hHWhXrTCztHwO0ue+RYyhodO1A+0yB1hIT3HyFjduyPTqFJnQgBxmxHsutsnywhKknouqf/aGq4D9r2R1bd7Za41wmptCFsM41iCbh1x+7E7H1uonLufM3qPH3UYXcLTR3rgcDx3jFEByVIVm1zvZa5ef5Sw312XXNztiWed/Hc5vLY1yR0icG35qzOOeNL9rvb2Yw0MtvA/bAZ+IYRss51/XYSUfu0dc1D/ULDckTv1K90vUMrYLaJjvh5VF6dQyW+hD2lbM06dBry8yM1g2R5tdcKzIHUWZdIqQmESllrtpZSjzHRxC7c1MIh3pejiGEToeE+lHfExFT9dhJRe7Q3bZVeQ17rc6ZELGVUNDEVNQYl3gftIH+5Tj9XwYUUrpm6WNg5glQvDSPOYvx6dAqtf9xOjcVXMCGkVhq7zJrHJqYfuNNkm6icS4jK3tsrn2kITan+UlHyJKI4RL5h5zyGrtuAdmYknuIrmOj32YRGcjNYPx9ANC5j5HYBGSt41W8nEbVPmx/V3cT0gznkbydQvUBtd3pWeuk86xo9NyON0fkCIKQyHAvC6RhmtyUkaz06nJvBeqnPft0KfGZKJoEQzLSYsbibm8HQqmanyhbDuFi9ytGw3uZbU/bxLsT0tZVlj3aq0yPIiG2sSj8Jr02hzgMPok1M547sFNJiJ/a3NftlM90lPpBgBcs659awsKMhupgAcs5jqddOImof1jAnp/gK9hY7sd4Tw8J1HwsR3Vj8DXMiIgqMwYOIiAJj2oqIiALjzIOIiAJj8CAiosAYPIiIKDAGDyIiCozBg4iIAmPwICKiwBg8iIgoMAYPIiIK7P8Dskf+Mx7W5xUAAAAASUVORK5CYII=;" vertex="1" parent="1">
                    <mxGeometry x="570" y="30" width="399" height="173" as="geometry"/>
                </mxCell>
                <mxCell id="31" value="" style="shape=image;verticalLabelPosition=bottom;labelBackgroundColor=default;verticalAlign=top;aspect=fixed;imageAspect=0;image=data:image/png,iVBORw0KGgoAAAANSUhEUgAAA7cAAAFuCAYAAABayu/NAAAgAElEQVR4nOzdfXATZ54v+m9OhQrxBoiRYxgTG5MxOE4CeZETeQ74jpXgCJvhkJDdeMvy8lJz1wuTtVJ3Z2oBpQADFWNO5szWiMomxZ45OF6bc527IcllkFFgkHMNG2mwZzOQxGNCErCDxhgLQ8gCKe/W3D/6Rd2t1qslS7K/nyoKS63ufvrt6f718+un7zAajX8CERERERERUQb7L6kuABEREREREdF43ZnqAtDEun79OgYHB/Hdd9+luigxueuuu5Cfn49Zs2aluihERERERJSG2HI7xWRiYAsA3333HQYHB1NdDCIiIiIiSlMMbqeYTAxsJZlcdiIiIiIiSi4Gt0RERERERJTxGNwSERERERFRxmNwS0RERERERBmPwS0RERERERFlPAa3RERERERElPEY3BIREREREVHGY3BLFEFOTg42bNiAnJycVBeFiIiIiIhCuDPVBQgnJycHq1atwuHDhzEyMoKamhrk5+cH/e7WrVvo6OjAyMgIAGDhwoUwmUw4dOgQbt68GfR5oi1cuBBmsxmHDh2SyxjNOIsXL8ahQ4fkzyaTCR9//DF++MMf4oMPPsDnn3+etDLX19dj27ZtuOuuu+Tv+vv7cffdd6OgoEB3nNdffx1//OMf8Vd/9Vf427/9Wzz33HNYunQpnn32WdTX16OhoQF/93d/h2PHjiWt3NGqqanB+fPn0dvbG/G3IyMj8Pl8eOaZZ9DR0TEBpQvQHgMWiwUjIyPo7e2FxWJBUVGRat9XUi5jVlYWampqYDAYVL9xu92qdbBw4UJUV1djaGgI165dw+LFi4OmOzg4GHI9pOpY0x4vStp1GKtY9hUiIiIiSp20Dm61og0sRkdHAQA/+clP4Ha78c033ySzWGFlZWVh2bJlmDlzJtavX68advbsWbhcLtVvtQHIz372M4yNjeH3v/89AODLL7/E0NAQ1qxZAwBJC3D379+P/fv3AwAqKyvxi1/8Av/8z/8sf1dfXy8HsVLZpO/1/Pmf/znmzJmD9vZ21fevv/46du7cmZRlCEVqge3r69MdbrFYdIM6QNgeStptmGjz58/HzZs35aDs3nvvlf92uVzo7e1FTU0NPB5P2ODr5s2bOHDggOq7mpoa1d/5+fm4desW2tvb5UBaL/gNtW4AYX984oknUF5entT1ojffBx54ADU1NVHXEzk5OaipqcHdd98tf6dd3skiJycHa9asgdvtDqozFi5ciGeffTbpN8yIiIiIki1scLto0SLk5eWhq6tLd3hFRQV8Ph/OnTuX8IK99NJL8kXn+vXrw7YWKVksFtx7771oa2uD0WjEkiVLcPr06YSXLxpSsHrmzBnVBbPRaERZWVnQRbQyANG2ROXk5GDOnDkAhJZEKchMph07dqCurg4A8Nprr6nm+b3vfQ9ffPGFKrANN53Zs2ejv78fX3zxRVCQnyxGoxFmsxkA4Pf7cfr0aTzzzDOYNm0aAOHmh8Tv96Ojo0NubUx20BqtoqIinD9/HoCwPwHAxYsX5eEjIyN4/fXX5c/aGyT5+fkwm80Rl6ejo0Nu4YxFqGyK/Pz8oCA42evU5XJhzZo1WLhwYdRB2s2bN+WWb2Wwn0ramyvJXm+ff/45g1oiIiKaFMIGtzNmzMDPf/5z7Ny5E4cPH1YNW7VqFXbs2IGf/exnSQluX3/99bjSeS9duoSioiK8/PLLcDqdOHDgABYuXJjw8kUiBRk+ny+o5ausrAwffPBB0DLptRhqWwqVAdnY2Bh++ctfJqH0AqlFddWqVfB6vQCAlpYWVFdXy78ZHh4GAHz88cd49tlng6Zx9913Y/ny5di/fz+8Xi9+9atfYXh4eMJabAcHB/G73/0OJpNJ/qxNXZVSacPRpqbW1NTg2rVrSQ06srKykJWVBbPZLAfpAELeHBgbG5P3eb0yh6JtwVy/fj38fj+uXLkSNG9AWIdK6dTaqZeWHIvvfe97ePnll+UbIJL8/HwsW7YsqcebVGcAwD/+4z/KN1p+9KMfIScnJ66UaiIiIqKpJGxw29vbi507d2LHjh0AIAe4UmC7c+fOkK26ifDAAw9g5syZqKmpwaefforS0tKQv5VaNz755BN88sknMBqNWLZsGS5duoSZM2cGXawm26pVq3D9+nUUFRXppnGuXr1a/lsKDlwuF1wuF7KysrBmzRp4vV65RWW8zw3GaseOHXjppZfkz8eOHcPAwAC++OILOJ1OVYC1Y8cOLF26FIA6nfn3v/99UABbWlqKRx99FL/61a8AYMJTkgF1i+6tW7fg8Xh0f6cMDq9du4aioiL5+dWsrCy5RTVZtKnERqMROTk5cQfUeq2s58+fl1t/9W4m/frXv4572krJbn3csGEDDAYDbt26BZfLBYvFoko3BtQ3Bfx+v+6z33/84x+DlnminrktLy+XW5KVlOVR3gCTbmYoW12V20HbF4FSTU0NcnJy0NHRgezsbNV2l567njZtWthpEBEREaWbiM/cSgGtFOBKf+u15iZSVlYWpk2bBr/fDwC466678POf/1wepg3+tHp7e1PamiSleT7zzDM4fPhwyM51lKmQyotKQB0A/+EPf5CnEe75uUTZuXOnfGNj6dKlOHXqFJYuXYpbt24BAB599FG89tpreO2114LG1euMSuvjjz9OSWArGRwcxG9+85uwabjKgHZkZAR5eXnIysrCvHnzMG3aNFV68EQoKirSTfcFAp08afchKS3Z7/djbGxM1cqqTcN94IEHcPfdd+OZZ57BqVOnsHr16qAAEdAPqjo6OpCVlYWnn34aJ06cwM2bN+UW4fPnzyc9xfvAgQPyDaBr166pUrVD3RjKyclBVlaWKug9f/58SjqQysrKQl5eHs6cORPyN0ajEUVFRWhpaZGDULPZjNHRUfkZ6aysLLnV12g0YtWqVUHBsvS7AwcO4ObNm8jOzpaH5eTkwGw2y9tXOY1UdMZHREREFIuoOpTSBrjJDmwBYN68efLf3d3dMBqNyMrKUl1gzZw5E/X19XKQF64jIECd0guE7/U1GbKysrBq1Sr85je/0W0J+fzzz+F0OuWLy4qKClUAv2bNGmRnZ+OBBx7AxYsXJ/Q5uQULFsDn80X9+wsXLgR1NiVRtvSmsy+//BImkwlZWVn45ptvMG3aNGRlZWHmzJm4fv36hLZmSan1f/jDH+TgEQikskqtyJ9//rmcOisFQ9I+rg1mlft+VlYW7r33XvzHf/wHcnJy8PDDD8sBYixZA3/84x/x13/917h16xamTZuW9q1+es/cSjc9Ll68OKFlHxsbC9n5XVZWFpYsWQKPxyOXSeq8a/78+QCEzsfcbre8b/T19aGkpATz5s2TO9krLi7G/PnzQwarRqMR169fl+uWixcvYsmSJUF1LxEREVE6StvekhcvXoyLFy/ivvvuw7Vr19DR0SFfrEuB9TfffIOLFy/igQcewOeffy6n9WpJnUxN9Gtc4vHEE09g5syZ+Mu//EsAgdZbt9uNf//3f0dxcTHy8vLG/WxhrKTWrZaWFgBAbm4uZs+eHdW4UjCr90xuuhoZGcGlS5cAQBUcZGdnqzp5mihPPPGEPM+SkhK5VbGkpASAuudn6TiJVEblzZb58+djbGwMN2/exLFjx7B06dKonvMcGxvD9773vaBnw6WWY2WraDo9mxvOyMgIzpw5M+Gvfpo2bRpmzpwZcrhe8Hvt2jXk5OTg4sWLGBsbk/dTQAjcx8bGMHPmTIyOjmLatGl48MEH4Xa7w27X/Px81fYcGxtDdnZ2Wt+kICIiIgKiDG6Vz9gCCHoGNxmuXr0qtxoAQuuR0WiE2+1W/e7LL7+E2WwOeSG+cOFCPPjgg5g2bRosFktKe8CVntUMR7qY1ku9lp4VjXRxOhEWLFiAW7duyR1KRfrtY489ptqHUi0/Px/r16+X06yV/uzP/gxffvmlKji4dOkSxsbGMG/ePGRlZU1oSvLChQsxbdo09PX14ebNm3IL4zfffCN3TqZtVbt27RqAQKCi7QQKCOyPd999N0pKStDX14clS5bg9u3bOHz4cNBrqaRAVepZWprG2bNnVc+FavddKY0+la/kitVEP9Zw8+ZN+Hw+OQ1ej17we++998o3MaZNm6YKQqVHO6T1PjY2hk8//RRlZWX45ptvQmZ+pEtP4URERESxihjcKgNbZTCb7AC3q6tLfh8poE6XUwaIytQ8vd6HH3zwQfn5sZqaGrkX5YlI6R0ZGVG1/BiNRhgMBtWrjcK1DE2bNk3VcltUVCS33kgBRFtbW9KXQ2n9+vVyh1AFBQV47bXXglpklZ1K1dfX4/vf/z76+/vl4cqbJAsWLEjqq4Hy8/ORn58vP7stUaakK3vTzsnJwaxZs+QWMOVztwcOHIDRaFS9dzbZsrKyYDKZ4PV65QC2o6MDNTU1mDt3ru6+nJOTg6KiInz33Xeq5ZRujih7Px4cHITf78fXX3+tupmk7Mwq3DOrY2Njcgt3KM8888yEp9FH2/mW3jO3qSK9s1j7rt4f/ehH8Hg88Pl8KCsrk9OlFy5ciFmzZsmfr1+/Lneid/PmTZSUlGDatGm4dOmSXGdeunQJN27cQHV1te6+8+WXX+LZZ5/Fl19+ydcDERERUcYJG9wajUbdwFb5DO6NGzeS2mMyIDxLNn/+fFUqrjIF7/z586oWD+ki3u/345/+6Z9UQYHU4c7Q0NCEpRwqyyN19mKxWPCzn/1M1RuptjOgsbExvP/++3JgDgAnT57EE088gdHRUYyNjU1I+ZWkzqJ+85vfoLS0FC0tLRgcHMTu3btV78GtrKzE66+/jm+++QY//vGPdTueWrBgAb766qukllf7KiAgfKucNnjVBkcTnZK8atUqXLlyRb6pI7Wmnj17Fr/73e9QXV2NP/zhD3I5c3JyMH/+fFy/fh2lpaWqFttwy629mRQNo9GIa9euRXwWc6Kfa5deZRTNfNPpPbcjIyM4cOAAampqVGnBUqaGtI2lYFzbk7F000PqW0D57mblDcHe3l7k5ORg9erVcLvdqhb1zz//HDNnzlR1ZjfRfRMQERERxesOo9H4p1ADFy1ahLy8vJDBa0VFBXw+X1LecwsEtxgpgz/lhZtECiKjuRhL9ntKlZ1bhSuPMtVYGXgoUzufeOIJVVmlaceTPhhtqqWyx2On04l/+Id/wK9+9SvMnDkTL730kuo1KpWVlfjFL36Bd955Bz/60Y9QUFCAa9euqX6nfbUQgKDfRMNoNEb9W62FCxdi8eLF8k0S5f40ODiIw4cPy+v8gQceCNs5mSSZF/7Ss7NSEAtAt7VN2h9u3bqFjz76CIWFhTh06FDQ+2v1KHs+Vh5vRqMx7PL7fD7853/+p6pztEjHZ7KFei92PK/RUh6/fB0OERERUWYIG9zS5JMJHfqEM57gloiIiIiIJq//kuoCEBEREREREY0Xg1siIiIiIiLKeAxuiYiIiIiIKOMxuCUiIiIiIqKMx+CWiIiIiIiIMh6DWyIiIiIiIsp4DG6nmLvuuivVRYhbJpediIiIiIiS685UF4Amzthd2fiPn3wI3DUr1UWJy3cAvvrjKSz45I1UF4WIiIiIiNIMW26nmDvuuCPVRSAiIiIiIkq4O4xG459SXQgiIiIiIiKi8bjzyshoqstARERERERENC53Mk2ViIiIiIiIMh2fuSUiIiIiIqKMdycbbomIiIiIiCjT3fkndidFREREREREGY7P3BIREREREVHG4zO3RERERERElPEY3BIREREREVHGY3BLREREREREGY/BLREREVEG2tO0W/V/rOMREU02DG6JiIiIMthW+zYGrEREAO6cqBmV1+9GdSFw4/R+NL07mNBpFzy/GZvuO4mt+08ldLpqS7GpaQWyT+9H03AV9qzMRs/+vXjnQpTle3IUTnsncjfXo3T0aOLLWvgc7PW56LbvR3dip5xgwnoswLdRrz+ihCh8DvZ6I5CEOogSYMLqMKkOApDAekg6xwHJOc9NmKX12LMyX/j7QhLOVTGbKueMyNcYoYJX5fd7mnZjq31b2HGUw0Mpr9+N6uxevLH3ClZK5ZL2abEunYFBONP+moOIppqwwe2cuXNR/kMz7po+XXf4d7dvo/tDNy4PDYWfy9J6oZK0v4eBuIuaagMYvg5ky59HMaw8ycqVPaC9YBoYHlVN6caV1K+FibkhEKy8XjhJbs3UCz9RqPUn3Mi4R/FNup/88/HC5nqUzsrwC3JAfVEOpMmFeWjyvnK9F2/sVdeNqv1IZziNV+IDpe7929ANISgoT9xkx1FXL8WmpmUYjnU5T+3H1lPSfGOcZVih65rgelO5fU7hDfsp4fiueQ6nJ+2xEOEaQ6QNTLXBbKjfK38XKpVZOZ2LV75VFgajw4pzw4X30GR/T9hu9UvRncb1LBFNPWGD20XFJVj0YEnYCVweGooc3ALA6JVJcUIaHR4ELg3jBnIV3y7Fpvpi9O/fJpyMC5+Dvb4e5cqg5vowLmIQGAWKJ77YaUV1kpyMFEFVef1uVG9+DhfT8oJMaCnAkf3oWVaf2ftl4XOwrwSc9m2hbySIF2TpoLx+N6pxFG+cXoZNizQDl9Zj06J++WagdAGZzoE6UXhR1DWRbkZdGsaNZBUvjehfYySWlMIcqYVXuG4Tgm690gwMjwIJvQFCRDR+YYPb096PsOTxxzFr1r26w69fv4bT3o/GVQBlKpe6lStwl1eYmbr1IuhOb8hWVGDgyDa8oTxnii08Qd+HNYh39kongvfQZA8MKXh+GQounMQbYhkKHi/GDNyDR5YC3acg3wkHgIH9YS6+Y6VZTiD0nXD5TrlqnBXY07RCPRzabZKo9RdJqO2tbX3QfF5ajz0PfwonVshllstV+BzsNUD3uWJUi+vihm5qlXY5l2JT08MYPp2NUu14Uaw/pe5PB1G9MhfzAQwgwroN2p4IDpSlcYNa88T1h1ha+cQWEeTjhWVRjRCdCOs95L6pXI5ZygkG6gX1uIr6Yl6uer1pKNeddr8NbjVS/ybkPFXjI6aWQKmVr+B57YrPxwvL8jFwcr+4DfPx5KJ7gFkPoxynxld3xH08COKqq2Ocp7IOCxoWFPyI6app3kIft5jr6sA2UX5fUL8bpZrh4Y/BSNKoromXuF/2jxpRWvgteo70o3ilETMU+6563Wpa+rVZItCswwRfYygpg9BYW3FjMfDuXmwV/w6Ui4go/YUNbm/fvo1fv/curOs26A7/9Xvv4vbt2xFnUpCbrZuKKz/TEZSuLJw8i88F0lfL63djU/0VbN1/Sjgxa1s25LuHS7GpPhfdcgvOUmxqqkf5qeSlhs6/7x55+aQWGeeFFSjPzYfqYi2RCp+DPai1OHBvdeDdvdj6rvRpKTY1VaH83f3oVqYThUh161YG4IXPwV7zHApOJaLlMR+52d9i+FLw9y9IzyLvjeMitXAFHjmyDVv3Q7ioWKYo7ywjyrEfW+1SYCquh4j7ST5KF4n7pnK8KNafUvnD+cCFo/L6DL1ul2JTvRGjR7ah6ZS0HMN4Q5x+wfObUX5lP7buDwSIdc/np28a8Swjqu87iq32U5r1HmbfBFBer9wPpBsZ4jZZWi+sc7u4zpfWY4+UEndqP5wP70Z1025U66TxCutd2M+0LRCq8iythz23M3BBGm6eSVGA3FnSMSK1dh3FwMplyC2E+iZePOI8HuKtq8POM0IdVv6s4niYiiLUNdK5Rto3C57fjE1iloiwv4dOSw53DKZMYSCA123FvXAFo7Melm8UjtssI4rP7YcT9ahemQvn/l6U14s3IgufQ3moR6kKn4N9ZTZ6xP1W2j4TVRdrU4tT6tIwbiy7DwVI0DYhIkqAiB1KXbzwFbq73CivMKu+7+5y4+KFr8KPHLYDl6V4pPBb9OzXC5oKkDtrEN2Kcbo/HUT1svtQILZkDJwMEWwtfRgFyEdB025Uy19+i2HlhaGiJTVxClQXeeX1KxI9A/XcHi/GjAsnQ7cUBd1Z1qyDcNPWeW5UdUERx/oL27pVaETxrEE44wlsAeB6L45IowaVTbEfXVDcDY+4n3yLng5xH7twBaMojj64CHORFnHdKs2SWnyFfX7GrHrseVIx/EIBAjdPhLv+70RRvIkxCKe03Bd60X+9NrD+Yto370HuPGFY+cP5QGF+YN0CwPVh+cIq0Bq6GZuadsf+zG3hc7A//Cma9gfqnUjzBLSBQoLMUwZ+S7FpZaImHM/xEG9dLa0j/XlGqsMuXvkW1St3Y8/Dobaj1Bo4FQk3Cns6Ass/8G/9uPFkbnTB3zjOD8moa4KD7RWwPz+guW44hTfswKam3ahOSGu9uF/WAzdOd6IbxsCz0heuYHTWCmxqKo4uIyNbE+Al5RojvES22kbtwnto6ngO9qbd7KiPiNJGVL0ld3/oxvzCBSgoFHJ0Bi5cQPeH7sgjKu48258/OHEV3wSnqV288i2qn1yBXLmVIR+52cDop6mq6JdikyolSriDH5XC51D3JOS70trWlHgJFy/5eGHzZrzQkSY9XiZrPwk13bDr9hQ+ubBCuJhfCUhpcIGWlMnSU2j4fVNI49akYCpWZTRpfsK+Jkz3hcJTUa4zqeUy+JncxKbfRzKA4ev3oHRlLpx2cfsX3odsjOKTZG/7NEvvlQOepfXC/sCOtRJkHOeHCSHUhcGdcgmPi3xi34Y3JqAMchr15t3YM0tRD1zoRf91I0pV6d6p2y+1z8+GC3LDpTTHRUzvbrNv43FJRGkj6vfc/kvHQZz2eHDa48G/dByMaSYDw6OYcV+B5ttT+OTCPSh9dqneGBi+no/y56U7y8JzaDfO9WIAgxgeBQoeFsdbWq9uCbs0jBuFK7BJb7KSpfXY07Q7/G9iMPBv/biBQXwipzJWoXSW4nNES7GpaTf2bH4O2rUUcp7Do0Dhw+IFgJDSKj+bVngfshFI/y14flnQdAeGR+W7zSrzcjFD0Utj+bPG4GcZ415/gxgeFVvilC70ol+1vbUC45TXr4h6HYUVzX4SRsj1F064dSunwW3DVvs2bLUrA1lhvZXWhNs/xIuwGPah6MS+bwZPogql6MfpC4iwb+bjhWVCut9WcT0ob4hdvPItClbWR9cTbeF9yo4+IyqvV6Q/K0Qzz4LnN2NP02a8UBjmR1EbxOlz3wIXPpXLUv6sETMUnwPzTFwdFv54iLeuDi9sHaaa/X5stR/FgJjJECDum/WJWgnSZIX6za6sjwqfg71pM14oFI+z+qXi76LcHxH/NtOva8Q6QbFNgvcT4UZJUH0bxfkhvGTVNaLC51Be+C36/01zc7jwPmRfH8ZFnVESfjzIhFbqN05/i+xccX9YWiU8OiHX1Trp3Am+xtDSe/VPuNcESb+R/iXMvFzMmCSdhRLR5BH1e25v376NYy5nQmfevX8/cjfXK1L+pA4vBvHO3qPY1KRIw7xwVH6mq3v/UTzStCJwN/8IsOlh6XfvoelILvbILWBI/h3/C++h6YhwMqtWLUe0hN4IC2ZFmVIGqJ8xxLfo2X8UqH9YLk/3hd2olu4sX+hFz3VN/5SnOtGzrB6bmowAFJ1hiN9Xi8ty43QvBgqT12ujQGd7y9vsFI6cXoZN4va8cfooerIT0Mow3v0k1PqLYhzddXvhPXSP7panJwi01krHinL4+FsUNR0BPSmsf/V049g3xWlXq44HKcU73L45iHdOjmKP3CIikNbtwLt74bxvt2K6gWHhXyWiWU5xm0vLWfD8ZlQX3gMo5hvNPMdDXV6jsF3FltOBd/fCWb877POHwuvF7hEvuBOQIRLheIi3rg4rXB2m07HYwJEEdsYXzqVh3EC+eENWfzmEPhYe1h0WStzbLERdE7RNrvfiDdWjHYN45+SgYpuK2yzC+UG9b4rn2XG36oeva9TzjD1LJeHHgzZt+3ov3tgrTlfcHqpHFSb4lW96rbShAtxkdjpFRJSO7ihcUPSnpM9F7NE2nVLe0o3cSdYkT7srr9+NRz6dyDTPDCGmKHcrLpDkDmNSfNzEvG/qLEt0xA6fTm5Tdei0ZyXS/F3BqSB1NsVjKXaR3v8a6CQrnpsY5fW7UX5Fv58JbrNxkFJgdeuhCVy3Umd/cjnGt79ES+/VPXpBaqS0ZL1gF4gzTZnXdkSUhqJuuR23wgS8ymIykl73MIWeJyt4eClwiidDlaBX2QjPbd84l8I9YsL3zQLkztJ8k5sNXO/XTUWcqqRXlEzss8BTg9SCmIjWeSVuswSYl4sZGA76eqLXbUFuNqAqh1BvJfv97drgM1QwGi5I1Rs2nlZcYV0QEaWXiWm5ReAElOiLBso04rspJ00HSYmjfQduunXwE7W4W26h04vrxKb70VQg1UFAIjtqUx6/PM8lUrqdM4JT5qfc9pbfwcz6mYjSz4QFt0RERERERETJEnVvyURERERERETpisEtERERERERZTwGt0RERERERJTxGNwSERERERFRxpvUwa3JvhXHHcuSPJfvY+/fW9FSmQ08bsb7f78aP82Lbkxj5Wq8//dm/AWy8dO/seL9F7+f3KISERERERFNUhP3nttJ6yqGrwNz5M/fYMCnGJz3BFrqSiC8De5b/H9t7+N/iMN7R75RTWl09GqyC0tERERERDQpTeqW24l0eWQUuHwdo6pvv4+9dfk429aO1f+9HavbBrG4zoy/UP7k+nV8iVEMqEckIiIiIiKiGKTte26tjiZsKJE+DeBA5ZtoBwAUwN6xEU/PFgdd7cErNYfgFT+a7FvxqnlGYEJ9Tiy3nRT+LluDt3eXQhr1s7fssLUpZtrQCk9dMc61mbB23/iXwVi5GtuzP8Hqt78IfH78HvzhWDs2/9v4p09ERERERESCtExLtjqasGFOD16pDAStAiGwfez3b2J504D821cdw1huOykEto/2y+OZ7Fvx6lxp3GVw7M7F+5V2MUheBsexjbC2SUFz4j2QfY+caokiaKwAACAASURBVPwXL1pRBw/aLpRhZU42ADbVEhERERERJUoaBrfLYCq5gRPbtIEtABRg7uwBvC8GtgDQ/tsBbFiVCxMK8MyjM/DZYb3xANQ9godQgIeONWGD/OUNDJUB8Igf961FWQJabNVm46d/U43FXzqx+tgo/uLFskTPgIiIiIiIaMpLw+A2iZQpyhPgy9Fvkf14GXKPtWP9vwFANgqygcufs9WWiIiIiIgokdKwQ6mT8PbNwNO1eq/wGcDQ1QKstheInwtgX1WAq7/vgRcDuHgZeOgpcby6jepnb88P42pJNRx1YWbd0AqP14vWhsQsSe+ngxiFDz3S87WPP4b/Y5biMxERERERESVEmnYopek0StWh1DI4jlXjIWmQqjVWMexqD145nItXn/okMLxuI46vkwJjBHVGlegOpQAI776tlF5860Pbf3fj/0nQpImIiIiIiEiQpsEtERERERERUfTSMC2ZiIiIiIiIKDYMbomIiIiIiCjjMbglIiIiIiKijMfgloiIiIiIiDIeg1siIiIiIiLKeAxuiYiIiIiIKOMxuCUiIiIiIqKMx+CWiIiIiIiIMl4GBLfL4Di2FfayVJcjEhtavV54vE40V6W6LDS1WNDs9MLjbIYl1UWhYFXNOOJthS3pM5LqoMTWQ7YWaZpeHNmbwXtYQ6u8HJ6W5G+NaEjrNqPXKxERURpJSnA7v3ABCgoLQ/5LqrqNON6xBqbkziWIrcUKQ9d2lJmqsaVzgmeeQJa9Tt0LP8teZ+DC0OuFZ0Iu1sdDDPgmw4VjVTOOKNd9ugexchChs4+oloU3ghLPj65GU0LrIcd6E8pMJhzsS8z0JKHqmshsaI1n39m3FmUmE3Z0+eOYZ3hy/ag9NpUBtfivtSEwWFi37fBXvMxjgYiIKAHuTPQEnyr7AZZbwp+lj7s68VvPR4medcr5v3alugjJ1deOsvUOAEKLQ62zGf3VW5B+S21Dq9cKtG1HV9UuLE51ccbFhtbGJTjbaAoTrLiwpTo9toJlrxM7F5/BjjZgZ512qGZZqppxpLEVts61cKSgrESJYGvxohbt2NG1Ajv1Khu/GzvC1pP98PlXJK+AREREU0jCg9vLQ0MJ+M0yOI5V4yH58w3IY5Stwdu7SzFb+ny1B6/UHIJXNU4BXj1WKgzvc2K57SQAwOpowoaSwFw+e8sOW5titg2t8NQV41ybCWv3RVyMKFnQ7NyFCoP4Ub7QsaHVuwK+RqmFRfO5oRUeYw8OwopascxyuaqacaQBcJ1dglpxwv6u7Vi5Wbx8qmrGkUYzpFkGlseGVm8pfF05qNCOpxrHCo/XGjxdBUdvP2rr8lAMwAXxAk+xblXrUFMeAMGBsjRu0IWguP4Q6QJRVTqsNTmEcRPaGiKsv542oLauWPhKsRxBy6lZFu06ElrZqhWBns42q8qDAYAvVJHEfTaoLNph0hyj2k/U48dyPLg2VwvL29CKnZphlr0rsKjvKNaKQbqlYgkMMKC0AcB4jre4jweBerv046BJCrZDHbuxzxPoV5dXOUy73cSbM4uCvp8koqhrQm0T5feLGr3wNKqHW/Y6sbMisNZD1V+hCOMjcFxGwbHeJM6bASoREVGqJTwt+eKFr3Da4wk5/LTHg4sXvgozBSFIxVt2LK+0Y3mlE58pB3sO4cVKaZgdBy6XwloHACdhq7Rj+VsDQsAr/UYMbAGg3RYYb/m2Hsxdlaj0ZQvycv3wnQ/+vtm5CxXD7SgzCal9ZbG0dJZYUdorjtfWj0VVipQ3gxkW/FIY1ugGKqxiCqgNrY15cEnzM7UDdcr00GJULD6DHdrxOrdgpZSy1xcob6gLQ5uxGOjrkVvcpNRFqTwGuaw2tDaa4W8LLAf8buwQL9ote52wXN4uj7vj7BLY0jqNuBi1VT5h/Znaca5kRSCAFtehtCwHh82wiimIlr1O1Oa6xfG2o8sPnGtT3NgItc06t8DRBVQ0hkjzDZdqKQ6Ttom/r12xPSPtJ4lXPMcA/2UhyLO1eLFzzlEc7AMM9ydge8d5PNhavIrtYkKZJrBdfHa7anvuVKbRhppnVTOOiC3U8rpXFNVWozgeTKbJGcCGE6GukVpC5TqhKwe1YrqvlMZ7Tk6/Vm4z4eZKmWJb++X9IIUMZuwM+0iBC75hA/KKUlA2IiKiSSbhLbcA0P3hCcxfUIjcOXNV3w9fHkL3hyfCj1z3CB662oNX2kL9QNuqC1wdKgAwELFcJvtWvGqeofhmAEUAvNLHfWtRFmMLUtg7/VVmLDb042B1nBevfjfapfIEla0fLilQ6dyCldK8G0qxCMVY5PWiNjAh+KoAdAp/d+0TA+xOH/yNS5AnD4ugJNDKom1t0raYAP1yq24Qg9Tia4F5sQEGwy54vLsCw/uUY6ZPyq1Asf7gQE+fFaXyRanY4qb89WULQqwFMahzRdxmytZQj9eL2ohpjlo2tDYADuV+GHE/QVzHQ2TFgaBxswu2FmuCphvP8WBDaYkfXY1667IYeQbFNCFmK1TlIbBF9edpqVgCQ9/RkC1//Zf9qK3zwmMM1TIrZR5MRcKNwq59geV3dZ2BrSIvdH2iFJStoNmnI5CPtURRHUPCDZOdLTa4NNvdsd4kdi6lzBwgIiKiWCUluL19+zYOv3cIP/6bn6i+P/zeIdy+fXtc07Y6qvGQJtV4dTQjlq3BT83AiW12NHkgpjfnjqssgHQxZEGz04lmpElnUslKZww13apm2CqALtWzlHniQCEArK3zwlMHSKm4gan4Y0oBTGe2FnUqqa3FK7fSCBfoQgvOTkBYl8pW8Wi22b61KNsnXCBbGwBXVIGnBc3OFfDt07lon+C01/7LftRWWJHXZsLKfULZ8nIBf2+Sb16kWXqv9mZF5GcyKTo2tKrS6IVHPdKHC+6zL6NiTvAQW4tXyNJZP/GlIiIimkyS9iqgy0ND6O5yy5+7u9xRPY+L88O4OrsYz5QBQAHsHcpW2gLMnwNcHRJbacvWYHWJ3vi5CMrwKsrFbIziopgxba1VPLcrES82lb1ZRidEWlmnG2f9xbCETLMNjGNrUbf4xe28D/4SaxzLIHB9PQLk5sXWG29RHgwYgU8MUG01iucJq5phUaV9KgNZYb1VNITr/TdZr7kRX5synulWNcNS0o8eZaAmpt0KwxRzC5eKGtM2K0aeIfKvJJa9LyOvU+fmQTTzjPt40OfqOgM/pPUFoMGKCoPis2KeCevhOuxyOtDTZ0BFjV7iaj98qmPXguaqYvjPuiMGoa6vR4CSUkVatOZ5c8m+tUKKrZjJECDum4l+XY3euq1qxhGvE81V4nHWYhN/F32KutRTcKz7iX5dI9YJim1iqzHDoHgEQtg2OvVtVR4MCDweYtm7IuY6VViWZPXibYO1woBzvdobLaEeayEiIqJYJaXlVtL9oRvn+oX3R0QV2AKA5xD+h3srXt3dhKcBfPbWmzixSkpdHEDT4QEcX7cRx83C5xPuG3hMM/77fU3YcKwJG4BAh1JtTpxYtVH+/qq7B5+VjL/lNjwXtlQXo9WrSLuVW2kcaO9agZ1ii6a/qx1duQloZejcgpVFrfDILaWIrWVoXzu6qnbJLYxRdcgijlMrpn76u9w4V5Inl8dV4w20WAoFkltrHeu3I8+5SzV8/B16aToCqhDWv3q6/fD5gUWGKNMdZQbh+dfGwHIIl6oubOm0wlMnbet+dHX55Z6aHR1uHGlUbBMg0KIYbpvpdAqlXA51OriYNi5Nt6FVHKaYbjTzjHpd6NCUt1aZRi3NU04R1knBPO+DH8UwzIltq4QUYTml/U9Ot5fLpHPsalvbQ9m3FgeNXvF48KOrsR1oFDu40+6bELbnhLQrR7FuhZszpbrDQnF9PYKdMATS7KMVoq4J2iZ+N3aoHu2QjjVpm4rbTKxraqXjs8+NLv8Seaywx8o4qKcrZmcojkHl8ZDYzgqJiIhI647CBUV/SnUhJgMprYwXLhpiirJLEcTIHcakOFVUfm1N1AGdtofr6NlavLBc1vamuwRnJ0lKduIEOnKKpZdbAiLvn+Nbt0H7sGq+VoCBW5wsaHa+DOxjXUBERDReSUtLnooWGVPeL2f6KcrTpGRq0ndToaoZR7zeGAPb8RCWWUWTyk1SSigD22RI1roVOkFiYDs+sT1qQERERKGx5TZhpJ5yJ08HSYkS9H7XNOvgJ3rxt9wGv/eU+wklmrK37sTtX8rjN9b3xlJ40rrleiUiIkoMBrdERERERESU8ZiWTERERERERBmPwS0RERERERFlPAa3RERERERElPEY3BIREREREVHGY3BLREREREREGY/BLREREREREWW8O1NdgKlrGRzHyjG0bQ+aPNrvq/GQ4pur7jfxYtPABJcvBsXvY2vZQwA+wwdvrUZvqstDRERERERTDltu09INnNhmx/JKO5Zv6wHMG+GoS3WZ9M0r+1dsfeRrtHo+S3VRiIiIiIhoCptcLbd1G3F8XYH88bO37LC1ASb7Vrw6txvLbScBaD8XwN5hBQ7347F1pZgNAFd78ErNIXgBWB1NMP3WCayTWlMHcKDyTbSL87A6mrChRPygGM9k34qfoh9D5tKg8ZTjPLS7CU/rTFfm6cHHV0vxWEEBgAGgbA3e3i2WUzPPoPIAEAJlsXVYM660fmQNrfDUFeNcmwlr90W3yi95/iv2AEDx+9GNQERERERElASTJ7it24jj67JxYptdk+YbjRl4ehXwSqUdXhTA3rER1rpD8IqB30PrHsGBSjtsEILH1fYCtDcNwGTfitVDb2K5TUgZNtm34qf2AjmFeLa5FENv2bG8TT1eu82O9pBpyRplpXhs9g18fEJMS/YcwouVh+TBVkeTXFaTfSs2zOnBK5WH5OWYe1ia/jI4dufi/Uq7GEAvg+PYRljbdAJqIiIiIiKiDDNpglvrUwW46n4zjsBW8NlhqfVzAE01dtWwq26nHAAKgSkAFOCZR2dg9uyNOG5W/LhPbGEFgD6n3DJ6fugGZs9VDAtrBp6WW3QVLa8AdJ/JHQo93blSi2/dI3gIBXjoWBM2yENvYKgMgDTtfWtRFmWLLRERERERUTqZNMFtamgDz+RP1+qoxkN9TjnF2upowmpxmPdEP66aS/HqsVLhiz4nlis7olKMR0RERERENJlMmg6l2n87gNnmalhD/WBOLkwAULYGPzXPSMAcB3Dx8gw8/X+tEaYbx/hDV2dgblEs4xRg/hzg6pAYsJatwWrF87XWWjENulL8pwxkzw/jakl1+I6pGlrh8XrR2hBLmYiIiIiIiFJv8rTctr2JVwq24lVF2q3UYZK3qRufHasWWzQHcOCtAWx4avyzbLe9ifkdGwMtpdDppCmkATQdHsDxdU04vk74rNuhlO44Uir0AE64b+AxqTwHe7B6tzQ9kdRa6zmEF9/KVcwPQZ1RxUV+DZDg2XWf49lvP0DrOy/h0nimS0REREREFIM7ChcU/SnVhaDEsDqasHpI8U7csjV4e3cxPk5K6jQREREREVH6mDRpySSkLKsU5WI2RnGRgS0REREREU1ybLmdTLTvwE1ah1dERERERETphcEtERERERERZTymJRMREREREVHGY3BLREREREREGY/BLREREREREWU8BrdERERERESU8RjcJpnV0YTjxzbCmuqCEBERERERTWJ3proAma0A9o6NeFp+9066v3pnC2rX/RjzAVz0LMTBfv1h0B1ORERERESUvvgqoHGwOpqweuhNvNg0kOqiRHbf69hU/Ti+cP6/yKn+MaAKXlfh2Rd+gZxPpO+2oHbdf8OI87/igyupKzIREREREVG0Jk3LrdXRBNNvncC6ajwEABjAgco30Q4AWAbHMel77TAAdRtxfF2BanpX3VLQqh438H0B5s8BMBSiQGVr8PbuUswGgKs9eKXmELzyQG15tL8JNU+JDa1eKxb1taNsvSOKtQPgykt44y0A2IJa7bDi/xNGfIBWKdgt/gHm4z7M+v4q4Mrh6KZPRERERESUQpPqmduH1pVjaJsdyyvtONBXgNV2KWA9CVul8P3ySjtecWcHhpWtwdvrsnFimzTsBtDnlANYe0dgmssr38THj1phLwOAATT9Qw9g3ojjx5rgqNMUxnMIL1basfwtvVZdZXnexImrAzggB7bh5pkc87LvA74ZxCUA88r+FVsf+Rof9F/BvTMeTt5MiYiIiIiIEmjStNwCwFV3u/y8a/tvB7DhqQIAUpCqfDYWQJ80TMecXJgAeMtK8djsGZi9uwlPKwZ/VgTAAzGAPQShpbUJx9fF/syt1WEF/mFPoBU50jwBAA6sNUXZYhsDY+XneBa/wp53mjGv7F8TPn0iIiIiIqJkmVTBbSgmuxVPowevVAqtoyb7Vrw6Vxzo6cHHV0vxtBxMDuBApSKFOCilWM9J2CpPCtOtXYYmz8koy7UVq4fa8aI2GI5qnolzafQKUPxjPNX/d9jjEdKQ5864D9dufDpBJSAiIiIiIhqfSZWWHFAA+6oCfPZbIcgsmjsDuDwsP89qNc8I/LSuGk9fdsopy8uVz+J6hjE0uxQ/taufxw2laO6MyD+SlK3BT+d2B3dGFdU8bWj1euFpsUU/v3D6P8JFXMEXX4jP1973Op7KU3wmIiIiIiJKc5Omt2SrowkbSgKfVZ0wKTt3wg2ccI/i6bmfYLntJHRTlpUdTqnGVQ7T6RSqzylOE7qdVAVaZHXGjWqekjg6lNK86kdwBb1Sj8j3vY5N1c/iXu33REREREREGWBSBbdxvZanbiOOrxpWpAELwe5jv8+QV/wQERERERHRZE1Ljp6pIFvzTQHmzgaGBhjYEhERERERZYop0aFUON6mdpzo2IhXj5XK3111v4kX21JYKCIiIiIiIorJpElLJiIiIiIioqlryqclExERERERUeZjcEtEREREREQZj8EtERERERERZTwGt0RERERERJTxGNwSERERERFRxmNwO0FM9q047liW/Bk1tMLj9Qr/nM2wJGSiFjQ7vfJ0WxsSMlEiIiIiIqKESYv33M6ZOxflPzTjrunTdYd/d/s2uj904/LQ0ASXLEP53dhRvQWuhE3QhS3VLghB7i7kJWy6REREREREiZEWwe2i4hIserAk7G8uDw0xuCUiIiIiIiJdaRHcnvZ+hCWPP45Zs+7VHX79+jWc9n4UfiJ1G3H8qU9wANXYIMbJn71lh61N+Ntk34pXzTPEHw/gQOWbaJdHLoC9YyOeni1+vNqDV2oOwQsAZWvw9u5SyIPcb+LFpoE45gmgT1PedQXyR9V0ASG9uK4Y59pMWLsv/KITERERERFNdWkR3N6+fRu/fu9dWNdt0B3+6/fexe3btyNPqKQaprfsWG6DEDyuWgNT2yF46zbi1bndWF55Uvhd3UYcdyxDu+0k5MD2shPLa06qp1e2Bm/vLsbH2+xo8gDAMjiObYRjIBDAhpon7Fvx6qP9eKVSCJJN9q14da404QLYV2XjhDxdIiIiIiIiGo+0CG4B4OKFr9Dd5UZ5hVn1fXeXGxcvfBXdRK72oF0KOtvexHLxb+tTBUBJAY4fq1b8dhgmAN6yUjw2ewAHtIEtABTlYnZftyIAPQlvXzVWFxQAGAgzzwLYH52Bzw6Lrb9BBnDx8gxs2N2Ex7QttpJ9a1HGFlsiIiIiIqKopE1wCwDdH7oxv3ABCgoLAQADFy6g+0N3QqatTBdOB+02O9oh9qJ8bAbQ58Rym06ATURERERERBGl3auA/qXjIE57PDjt8eBfOg4mZJrnh27goXUbYdUb6OnBx1cLsNpeEDzs/DCulpTDXiZ+LluD1SU38PEJnZZWlQFcvAw89JT46p+6jepnbxW8TXuwfFsPrs7JhUk5QHylT6Jfu2PZ6wyarmWvU3htUFUzjojDbC1eeFpsiZ05ERERERFRkqRVyy0gPH97zOVM6DS9TXtwYG4TNhxrgvRUb6ADpwE01TjhOLYRx6WMaKlDKc8hvPjWRhzf3YSnxUGfvRXdc7LtNidMx6qFVOirPXjlLeDVp6Shy+A4Vo2H5F/fwIlte0KkMCeW6+sR7IQBhvstgO7LgvzwnQdgnIDCEBERERERJcgdhQuK/pTqQlACNbTCU+UL855bG1q9ViCuXpjF99x2sgdnIiIiIiJKL2nXckvJY2vxorYEfL0QERERERFNOgxuJyODGTu9Xuz0u1UtuI71JjjimqDQYlthED6dS0wpiYiIiIiIEoZpyURERERERJTx0q63ZCIiIiIiIqJYMbglIiIiIiKijMfgljKSx6v/4qRQ38f7OyKavJT1gF6dkKx6gvUPTRU8VxPRRGOHUjQllZlM8Hi9KDOZUl0UIkoRZT2grRPC1Q/RXHDrjasXTEvzjTQu0VTEczURxWpSdCg1ffp0PFn2A5z2fITbt2+nujgyy14ndlYYgL52lK0X+im2tXhhubwdKzfrv4WWpPU2goOmduQ5d6FiOLD+YrmLqzwZxjseqppxpNEMf5sJ7fdL5VobZ6/TlBRVzTjSmAcXt0sS2NDqXQFfYzW2dKa6LLGztXhRm+vGjmofrF4rDF2BujfuOkHHeC++wwXV4epDolRKxvGVXufqaOo/8W0SUL+dInHSvQ62oVXa9l9b4anLQVfaljUNJekaUy/+mEomRcvtk6YfoPyHZjxp+gHe6fjfuHjhq6jHtTqasKFE/NDnxHLbycQUqqoZtooRHDRVp/iCW3qNT3/ggEnzYMD19Qh2Kj77L/fLf0dqVQl3kRnNxWfQibXTB3+jsjA+9CPZ1K9egvxKJ/H7YfXNktoSYdv279VUjA2t8NQVJ/C9xsJJbJHmFVNS5SwU1685sYnjiJ/S/h3LDa3wVPmSdJESB3EbCvo1J70MW7cp0H/ZD+QGPvu/Vm/VuOqEcdDWT9EExeHqQxLJx4n2GMG46if5AlFb5xGA8MfX1DhXp6EJP4f1w+cHDPLnEfiUge04zmHC9Y34QROkyccmEOPxGbi+8ncFNzTFfcyHW07VME0dlKT91rW5Wr5mbG1wTLlrg0n1zO306dNhXbcB5RXmqH5vsm/FBjixvNKO5ZV2HEA13rYXJK5AaVS5+v05sOy1pLoY0fP70A8XfMOJmVy0rSr6v/PDd164yJwIthYxgBVTJQ8Om7GzxSYO7cc5lEL4ZEMp+lXvHT7XB5Q2iNMxCp8Tw4JmpxXo0+7RNrQ2LsHZRqGsZY1nsLixVSyfOE6bOMzUDtQ50VyVqDJNdja01gEHpf2grxi18n7AdRu1YR9c4gWYkvLiO9Q/5e8SQZmCrHdxH/KCP8H14WRi2esULubb9M628ddPthYvds45ih1dfp3pkizE8RWvTDpXC1zYUm1C2RS/+eH/2gWc90G9G8R/DrPsdaIWiusgWHFEuoZtaMXOxWewQxy24+wSxTVSODa0enchr3M79A7r+I/5MMtZ1YwjdTno0q2DJMnab6fuOWNStNxqlf/QjEXFJWh/63+FSVNeBqsZOLHtpPzZVALMnlMKEwYgXH4kJ93E/3UxWr27xLtV6js8qjtV2rs/qjvQ0NzJ0rT2acb1dx4FqsywwBW0HOp5Bu6eWfY6YcMZ+CvMWOR34+DZJaitMKjudqnGDbrTFef627cWZeJdJtd6U0Jal+NPQXRgrUkqQaBciaC7rauaYSnpx0FTYKkdHW5YGoWANs8A9HRKAWwp0NsDlJQCAIrnGIDeo4BRqDZL0YMeFKNUOdM4W3Mte18WAu7eUniqlN+vwKK+o1gr3oW0VCyBAQaxfFZh20vzaSjFIhhgqLAAneM8mrTHguo2kvpusHZ/Le1tB+qsmuNPOU4xdnq9QmuZdIxVNeNIA3B22IwKcZup1qGmPMF3hMXpx5Qi5MBaxa7o6O1HbVUeLABcDUlct5r1B/jhk4a0eFF62Q1DhbisqmNeO16gDlKN19eOg7CitkS5DkNvM1WZYkyxEu5eC7ZU66+XWFuV4qX3vG1U9VIS6kMAQftstPV+6GNIM65mGABNC4ZOtkEc9ZO8jRtaVS3cwPjqJ4e4ri17V0RXkKhFqJ8m2fEVq3Q8V6OiFZ5GYb9VrTvl/qxdd+I5wyUeP0Hjhjj+BKHr4KBzn7yPRDiHRZwn4rw+cCm2/RasVKUjx3sOK4a1AuhqlK+MUVoCGHLNsAAwVxXjXOdacd+zwLzYABiEa6Twe6+0j1h0bwTHf8yHWc6iPBj6jipaat042/Ay8qoAdCrLBCR8v53CJlXLrdKcuXNRaQnTjFGWi7kYxUUPgLI1ePtYOYbe6sHV2bkoSkQBivJgGPbpBnSL6lbA1xi4wyO1qNpavKo7VTu6clDrbIbU3mqrEfLypeGqirTBqmrtKwtKOXagZ9gMa0NweRzrFdNsdMNQFZinoWIJfI3tOGcwo1a8o2WYI1Tmlr1OWC5vD5T37BLYJrB1OFRLi57Aegn8C/d9ssnPKmm3V1EeDNoW/04f/MgRKkMA2NcDGG2wGYGeff3w+RXD4EAPSmFrKAV6Hei/7Ifh/nFuEynFXueip3iOQU6TlO56HuwDDPdbYLk/R7yrH2hdOajYf8ZTniOq1hi34m6xBc3OwPFVZtqOs4tfVp3I9I8/B9aaTChr6xcuFvSOMYMZFdLx2daPRdJxoi2PqR3+il1o1TnWxsNmLIb/rFtYn8lat+IFkvJu+jnNLxZVSMu6HV1Q1iniOlTUX8pskUUVeXA1uuEvscJyebu8n0SzzSZSsjqv0atrtHWOXudSyWFDa2MeXKbAdkZdoDUhXL0PhD6HCeOa5f1HNayhFR5F60ZZoxuGJGcbpKR+CiuK+mkSHl+ZfK4GDKhY7BPOCY1uoMIaaHXbt1bcFiFa+gxmWPBLeX8PjBvu+ItQB3duwUrFOjgoX9dFOoeFP+YnQtTnsKo8GKT05qpmHPGugK/NDb8hD8UoRp5BaOkMtMS245zyGinFlMuJ8z74S0oDbRTtqQAAIABJREFU67nBigqDAXkJCTQiS8g1YAaalC23ManbiOPrgAOVe9BetgZvqwa64rgbGfkOqL/rl/JdHEdvP2qNwsk0L9ePrn2BcVxdZ2CryEMxABeEnbS2zguPUWfa533w11nh8ZaGfBjd0eHGkYZmWDR3hlTPLgAA+iE8vQRAvOPU2uhHV4cDqJDuaAl3ywyGXfB4dwVG7ZNKC8S3/qIXqTfS9GVDaYkfXY3xZgM40H7ZCRt+iZUAmrVDO3w40gA4qgHs1QzcF+udQQuaG5bgbGO4Z8eL0ezchcVnt6Nsswu2FqtqqHzTptoBy15nLDPXL1HFEvWdUKUqMxYbDDA0euFRPMdyTnEi0T/+otkS/YEA/7xPPNHq3JmFAz19Vljutyimq7w7GzvLXqdwM2S9upyJXrdoKBWeqQ6zjwTWnwu+4V1YLC+nNnsEqvrA39UOB8ywoB+uzS6gRaw3othm411/esLVFcnqvVhvninpBbahFItQjEVeL2rlL/3wVUWq98VfhjuG+trlVp/+y37UzhGGWe7Pgb/rl4F6pNONsw1m9UVezPVTNCa2fgorpvops48vpcw9VwOAH137xHN1pw/+xiWKVrdIxG0BCEGpNE6Y4w9Fkepgbasu4L+sPNeEEG6eUrmScvwJ4jqHyTfEquGoasYR5bCiZhzxCjeCtnQKacHKeSmvaRPTH0X47EjlvFXL2bkFjgondkrrvc+NLn8OcH685YmOa3M1sNcJj/flKdXR16QNbocvD+GYK8xW9AxjCKXYsKoHr1QeEtKQi3Ix++rwOPc58STR0ApPiy2hvZQp0688Xq86ZUmuOG1o9XrhCeo4Q/iNq8YJc9GZwHdVzbBVAF2NJuG3YmdT0dGZB42PMmiSvhPvYvYgD4vFVt1AOph0R86CvFzxbqbiJDru+3XiXUaoLoyElCdrmwntl/2orbAir82ElfukcgD+XhdcsGJnhRWWLuGiElC3pCTNJOv8xbLXKTxfpFgm19cjqVm3Ycv5spBmZtoi343fOSfKkVOwzSYqHTncfFN6gR/iBqylIgVlSZL+SVQ/ZdrxRRGEagCJkPFja1E3nthavNGf51PUc27M57BOwN9oRm1VYH8PZLX1I89vRUVdXqDDVukaSbzuUabLJ07kxhq95Qwujw2t3jy5rMkmPCryS5SZptbRPynTkru73Pifb/5jhNcCnYS3D7j6+x7x+doC2FcVKD4Dwp0aLzyK1OConffBn5sXYTwLmquKca7XAeEurQEVNYEkEVuNGYa+nuAWs31rhVQVMQhSE1JTDvbppz04ekdQUbUk8EWRIv1DmmdUCyiWtyHcuhnH+ssY4jJ6Y0nvcaCnT72tZZ1unPUr0/wsaG4wA13tiXnWTrwxEnXKrJh2Jf9TpDyt3SdkF/jRjx75uRkrKgzi5309OAc/znYFnjGylCg+A5BvxsSwj7i+HgFKShXpXYp9ttMHv8EcZXq88vgTKW4uRO28D/6SFYE0v3DLGVWnF4qxWry6J8vo1m0c++Z5H/yGJTBXSeOrWwjCKZ5jkNPMABusFdHVJNFts/jWXyaR0jVjD65jP4aEfdaagNR5nWMoBNfXIzAoUzqVdYX8XYz1U6R5jrt+CieO4yum+kmNx9d4xXOuTpJwx1/YOli8OSPdgKlqhqVEb3ydc1g0x3yCjz8g3nOYAz19CKT2ivWM8NkF91k/oLg2DnmtPIFCLqeKsD0NMV3P6e+3thbxeG1ohcfrRHOV8LsjmuO8eI4h6C0BU8Gkarn97rvb+Jf/O/pXAbXb3sT8jo04fkz4fNX9Jl5sGkhiCQWGikAqr79ru3hHGXCs34485y54vGLalN+NHdWhOowSUi3kodrU4r52/fSSfe3oqtqFCoyoPteKKRP+LjfOlUTXciuVV+64ABP7OpL0SGsSUsdgyIkhVUlnW8spLi5sqRY6HJPTvfvahTubVaF6ARduZPhCDZ0TbdptHDq3YGWRcEIUUp2UqToOrG3MwxG51VevpV/oZXORtrU6nH1rcdDoFfdZP7oa24FGqdssaZ7KdHl1+lCo409aHleNVz4eorrTLa0DRev2uTbT+DMa5AsXs84xFs26jWPflFKoxOmea9uOrqqXoyqu0PGZVdyn/ejq6seiqFqWIm+zySRUvRV/i3Ecx5C0z9Z54ZHS+cTWvWiEPYZC2bcWO+5XpOeJ++y4t7Gmk6parxe1UkvlOOon9TlVPAZV9UE8dX/8+3omH1+ZfK4OR72PiNsmlnOGzvHnClsHu7Cl0wpPnbQt+9HV5cdizbR1z2Hh5jn+VaFvHOewwDWSop4RW3hdm6tR3OINXD9F3SKtuY4W6zFlZ3rhj/l4llM9z3NyFkm0otlvhQaqvAT385HJ7ihcUPSnVBdivKZPn44nTT/Aae9HEVprJ5DYU56DqUBJEc+785S/kSQkBVF+LmRyXownW6hUnmSwtXhhuRz8brtJi/tmVGKpE+LvzTX0e27Hmw7NYyhFeHxFxHM10TiNY78VerefuEandDEpWm5v376N7g/dqS5GMDG1JNyjvxSf8bz8PXHP1EkdO0zeVqakkl5LwOfBkoD7ZixiqRPGU39ox1X2BBsXHkMpwuMrWjxXE8VrvPutkMY+FU2Kltt0Jac4pOghfiJSY6sT0fjwGCIiSm9TPf5gcEtEREREREQZb1L2lkxERERERERTC4NbIiIiIiIiyngMbomIiIiIiCjjMbiljBTqdRzp8T49IpoM9OqTZNcxrMNoqlHu89LfkY6D8RybqTiuiWjiTIpXAdHUo/duyHDvzdM7cUnT0PueiKY25UV2tO+i1dYnoeoYaViocaW/9cZn/USTSajjKpb3P4c6dmKZHxFNHpOi5Xb69OkorzBj+vTpqS6KimWvEx6vF54Wm/ydrcWLI3stKSxV+hPWWytssKDZqV5/SqHeGRnqt8p/kb6XVTXjiNeL1gZluShz2NDqdaK5KtXlmJwyuT6LVM8o30Eb7QWxsh7R+z/ce221dZFePRWE9ROlqyj2zXCtpeFacLXHY6hjLtJ4kb4Xzh9iHdfQCk+iziXiuuHxSpQckyK4fdL0A5T/0IyfvPx3mF+4IKZxTfatOH6sCcc71iCh9/KqmmGrGMFBkynF75gSL9yUlWhVM46kcaXq+npE9dl/uV/12eP1RvynFXcac6cPflVhfOgP9duEkbaZ+M/ZDIvye83NEmnbBl1ANLTCI15cjIt8ItaWR2+49uQvXBxI42rLIpTfG3QTKD2lW6Ac2E/0Akz55preNqOw9YyyHtG7yA5X18RLO62opp2S+inTBOqg4Low/vops+quFIiwb+plXmmzJfRu6ijH0/4eCJ0toTe/cN8L+uFTLcQIfJ3hFzsqnVuw0mTCjq4c1HLfIUq4SRHcSqZPnw7rug0orzBH9Xurowmvzu3GK+4bySlQGl1o+P05sGRSC4vfh3644BsOHqTXuhGpBTZcCnLki0g/fOeDL4aTxdayCxXD7fKyHBw2Y6d8AuzHOZSKAawNpejHOcW45/qAUvECzWYUPo+beCIWyrMdXTDDKl8E2tDauARnG8XhjWewuFEKsC1odlqBNmncdqAuEBxa9jpRC8VywpqxrYATz4ZW7y7kdW5Hl19ncEMrdi4+gx3iut1xdoliHyJZiHomVN2ivOiWhmnFm/aorIv0phF6uhNbP2WUqmYc8a6Ar7FdVU8KxlE/NbQqhrXjXIl1/DcRJ6XQ+6Ze5pX2WANCt9wqHxdQfhfNeKEC61DHmP9rF3BeE6wnAI9ZouSYlM/clv/QjEXFJWh/63/h9u3bIX/XbrOjHYDJXh7iFxY0O3ehAm7sqN4CV4LK5/+6GK3eXVgEAOjHQdNaSG27thYvakukX6qHoaoZRxrNMEif+9oVrcJiWQ364/o7jwJVZljgCloO9TyBc20mrN0nnNxtOAN/hRmL/G4cPLsEtRUG+Lu2Y+VmV/C4fu16inP97VuLsn3Cn671JiSq3TtUemH4tEMH1pqkEgTKlQi627qqGZaSfhw0BZba0eGGpVEIaPMMQE+nFMCWAr09QEkpAKB4jgHoPQoYhSCmFD3oQTFKlTNtaIWnrljexrErRp5BuGABAMveFVjUdxRrxbvZloolMMAgls8qbHtpPg2lWAQDDBUWoLMY1gqgq1He81FaAhhy9ffR2NjQ6rWKxxcA+OFTDg2xzwr7+1GcXWwVjyM/uhqrsaVTPc6iRi88jUDgGLOh1VsKX1cOKsQDUHmMBB2bCTlOpP3SotOSbEFzVTHOda4Vp2WBebEBMAj70HiPJ2194b8szlVZXwAIX7eldz0T6hm+WJ+9DXWRHq61KNoOdQTJqp/Ux5C8LaqacaQBODtsRkWJH11tZ7C4zgyDuE0Q5hhSjytMV1UPac5v6mNIUSbVeS+Czi1Y2SmO26gZ1jCO+mnfWpTJE3Kgp88Ky/0WIAFXCeHrpww6vqLYNyPt6+H6xAj3bG2o87zesFDfC1zYUi0tsbQvEVG6m1Qtt0pz5s5FpSWF+YNFeTAM+3RPBIvqVsAntnQd7CuWW1RtLV7VneIdXTmoVaQT2mrM8Lcp7m4qT/ANVlVrX5kyKAYAONAzrGxxUwxZr5hmoxuGqsA8DRVLhLveBjNq5xzFji4/DHOKAQgnTcvl7YHynl0CW5Jb3kKlIEeTmgyEfhZnojuYsLV4UZvrllvW5O1VlAeDtsW/0wc/cpAn7c77egCjDTYj0LOvHz6/Yhgc6EEpbA2lQK8D/Zf9MNw//m0SSHG1wtD1S+FiFUJALaVz2lq82DnnKA72AYb7LbDcnwOIx4BlrxOeKh8OSvtPVR4MUoqX1LrS5obfkIficZVUuABWtsYoW2wi7bOGCivyOqXjD6ioEW4UCMdIO87Bj65GvWOsGBVSS2mjG6iwKlqvd2Hx2cA81S3xyaC8AfH/s/c+oY1kWb7/t+EtvJnNRJJORNGVBcbCA/Y8sLrlgio69PtVESnnYmAWL0ESruyZxQwNioT5LdKdw9iyh8mWF29RMgy9GOa5heWebJrh/RgsZVD9G6nphlZMy/DGhqeRSOjuIgnKxjFv0ZvsVf8W8e9GKP4rZFny+YDJjAjdiBv33nPOvfece8Pw8DYwZNtQTJw66sQRGcDxObPsWd0GzJaecVsnGwa3DneYNbdu623d1t0mGQbtjYBq07JRG9kdXKw+syZRuBxWL3dw0ufAl1KQKna59ZIhIy1vtJ/jAZaNNpCv4pSNAMk2oPL7E/WGJqefRGRWVFx0xh/YBuun+ZAvFr8oLOPYiZ/n1Y/oa24nzBsF6v0ULRkhiISZ28FtMkjY3sxiI9Jspb6GZ73nObusMoOD2tlANzICUvdVdF5ZaaTOuc2YDi5VLJc81ve8UaCuFH03KKi9shs8A9vavEoOHGvA+6/1vNrzZniDOH7fTLvHc6bB1N8gRvn549X58+sUssRee5soWmeocxi3XGpoXD6CcNlw9cLVXikQ8goabl6cwy1sZKN7baXnm0xHd98RPpxGtSlrHSSXNm8Mejc2t0fD9Mt1dCspSNlNbL+JlidXyhksq233dw/TZvsNs2ykznmEjgdTn7bJiDRS3AAS44GqnQ0A232TlxMAwJIRkhnXS+9Eb7evfLxmTPkNLlVb2c6SnnGu6wvb8R2ngxx2gm7i5HNY5TjwFSMf++A5Dqkl4wdWe1Y7LjrIV4YGODF0xBvFsm9LKXBmGwA0bygcE3M1bDkndRNgPP2khTazE37xiaafZlm+nERZb+6c0DYIE01xqwa2gBZZcAiIHvsmEAQRj7kMSwaAq8uv8IU0jRgSPRSnXEf3SEzUEEvPNzXjom8UZAsfYsOvZBldNhzMoLUN6UkTuaVz61y+CpEHOpWsFTpWSYXMkcszbhh23c1MGjcnTIfP7EjoXoQeUljVvbpmWzC7jdrkiPIGTFvABGaEJWy3iuiuazkcXKoo8EWkjrN4fGjkA1DPJEgoYo8vQujsYEPvDJue3hagVnIo5NvYzept2M1rnTjTb7OTZwBFLYIvpXCS3dQGH0YbmtZ7z5iecVvv6nZ+ks+d2uAWcAlN1bk1m6mNj/T2ekz9ZEVl2MOnxyFmW58x+WLx2rgtavRVlGc57+V1fuLoofq1bHZiEwcEcReZS8/tzzpt/MP3/953vW049N1I4+w0GircRF8bd1YDIEG54mwhXOKTHLh+b3Rm/HBLC5F0DZHSZrdP+uxMO3P17Bp8fs06scSEXxnPDPWCen7LfmUzRvmFIMwOiW6/DXM+PC67UQdSQ69vr2uTVhsXKhtuJqBazgFuHpI4jL2DstZmjVBkqXMOFQP0zHVrRfCcfnzYwxBMuF6+CsEM39M8M+pF2xykV/Np5lg/F7Vs3yhQuTXk8kZ6du1tmDZrIT7JAbb8DKCo7nLlzQCKsz693jMxOZHQvlABRne46RLD0xO+LWjvv8oLZnp2jZ8vM6ZnnN5TZ5RIkN5IemDqt9mNPzFkqKVA5XKJhKaOypAHbxSoK4+s0GebrjDvpk3cJhXSP5Z+0sL9/Qa20eUrmn6yMWPyZRAmCssLp+c2SObGjfrywq2ehYOmVl7M55DEI5e267N8jSCI+MyV5/Z3v3uHH//TD/GbX/8q1O+zL76Lv8v9gX6Uwd99kQH6TXwi/nxymQT0EKB9APqmGfrAoPZ0B6nmPrpyUTuhtrG76bVhlLZhhHn1oIk99mK/4b65yGEDnfw+eFzbjguyjAIAtdPGcCXcjK+R3z1Zxh6Tp2RCIP2JujHU5NbaSlCu9gFOD0MNOfs9Utfm5iAStje1DceMNoJ+Q/Ms5L12AdcGXIrX1UWbHzgyzrY1NL200LzES9qAuWB7DwCoYauSwqm5AZPdQ2CVASMLto5ijLJtbaPGN7GnP3N4vINO/pl5ObDNrhStOjHKncnPdquIbklGt+R8Vy986nMsHPpA1ynGu0jPN5E+ku3v4ogikd5eYw+cHvoZJj8Stg9zOK3o79JvYLfzKNygacb0jJ8HNUy0SNz1scl7q+LoJ0NumTYbqq3r+MqQB4YeMXWFVsfjexMdm8uVZHRLhh6Kr5+Eg0faPXnvMoouX2O09RmTLyDeJlLsdTf7Pw2C61mPqFq/4YwRxB3maw8/WPr9tDMxLgsLC/hG9kP8Uv5FAt7ahDDCTSa4TuUuEiY8MGgXRQOvDmxkI1muo1tC+M4fEZ4bLFvhoKmtvZvqd6lvEmvzrZuYkJpFnLrEbSObqMshwkaRRFly4QvJ0JQg+QrCbW173PXu7D0B76UFYYj2zDHquVz33Z+FIIh4zMXg9lZi7v447+v77jKGVyCCV4MIyc2X7V3qmBuf/ripSAtiGpAMTQuSr7vBuPVM8kIQk4EGtxPEDOeM8l0+giCmAnU0CGI8SIYIIgTmN51pYpwgJgENbgmCIAiCIAiCIIiZZy53SyYIgiAIgiAIgiDuFjS4JQiCIAiCIAiCIGYeGtwSBEEQBEEQBEEQMw8NbomZJMo38giCIKIyjo5x+zbuuM8liHmkK8vmH0EQRBLQhlLEzBLlm5NeH4YP+mA8QRB3E/Z7mV7f3vT7Zm0QYb7D6aajSD8R84Kb/IRp73Hka5x0BEHMFv9l2hlIgvcffoCPvsXj5z/t4De//tW0s2Pi9ikg8UiGcLmDx8+lKefu9qKV2zVOsg2kmvvgr9w/peQ0Qn5GycuABnYw9S371eMsGu8Z+aKt+2cHEXX5ERT63vREmGV95qdnnJ1u5wDX7Td+5/0m3thnBF0j/UTMDCHbJtumjXbu2d4dv2PvEWZQGj2d9q1orrODx2+L6JbuoZOELaFPARHERJmLsOSvv/8Q7z/8AMXPvo1PhDwWFhbCpsSLVy/xky+0vx+9+HpymcpXIfLXOMlmp/zNPwHVpoyuXIfI5O2UPb5lSG+vbcfq5cB2zIYxef05iR1i2FKg2jKjYOD128Qw6kz/a1YhsOePrJoTj6y6FQ6a9nou19GVZdTLY2ZHvw/7Z7tnvopT81oT1TybWETdK52Zf/3v6La2SAMR9ZH3mx62snMpW609ONsQYeCnZ9w6vGEm0wx94qaPgsIvY4UyT0U/zRqWDhrVhTH1k03nkXy5ErJtbmSzt9hbOoBie4lrKElMkra28TibxW7nHgq33u4RxOwxF4Nblm9ufIjiZ3+GxQcPAn+bfVHEf/337+OTT1/gk7/pAbkiXmwkmJlb1NFQ1XsQDmbI/KoKBpCgXI1eMowhaxTdzjnTRAlNdmQGypvRzvCkEI90L5L+LidXOeyZBnCAITL6AFZEBgMMmbTDPpDRO2jiunacCGobu0z5bh2auUW9soaLin6tco7VijHAFlBtFoFjI10DKFmDQ+GgiQKY90QRp7PURqdM7SnT5o8HWM4zHexyHXur52ad7V6sMW2IMPHQM0EDU6+Bqp8+8tNPxnX2/uG9TDern2aKfBWn8iMolYZNT2qMoZ/0wYl2bQcd5FAcdxJxLglum065ChOuf9OobyXgjWOwngAkswQxGeYiLNnJ4oMH+PO/+A5+/OqHGP6Hd+9efvk9/DfjoNvD//rPDB4sAegaJwVUm/vg0cbu5jaSCrxT36ZRl/exDACOsBTxSEZhxfilI2TFDGXR6bPhunpeOfe0aus1kM9BgDTyHvZnAsNjbfAiHDQh4hwqn8Oy2sbJxRoKPAe1Y4Uh2tKqznKKWX6HW9jQB0/S02xiITtuoYV+5zVq2MoaObDylQSudZ2vQlgZ4CRrvXXtVRtCRRvQpjig1zIGsBngrAesZAAA6UUOOHsNrGuDmAx66CGNDPvQch3dUtqs43ERDh5huf8aW/pstsCvgQOn56+o1b3xnHIGy+DA8QLQSqPIA52K2fKRWQG4++5tNBpaKNmyeaxCYa96tFmtvb/GxWpRlyPVDEFj0yxXZHQrgCVjIupyBkrnHnhdAFkZGZHNpOSEQXjvHnDV09MKqObTGLa2zOPcKgdwWhsaV56c+kK91PPA6gsA/rrtdusZN50QZQ1fUPSIXwee7egHMyn9ZJchsy7yVZyWgYurHPgVFZ3jc6yWcuD0OoGPDNnTave16SGHfbPLEJOnvvsyFVda23jc0tNWHNfKSemnNFKcNohLAn/9NEPyFbJt+q1fH1fmwi4b8EbC9qbxxkZbIgjitjN3nluWb2Y/DP/jjQz+6x9+Cfk4oYcvpcBdKa6GYLn0CIru6Trpp02Pqngk22aKdzv3UGDCncQn2voV0wPAGvhy0ebt2xhZx1FD78p9dtnmAaq0wTEeII5f02a9uRwKi6+x21HBLaYBaEZTuNyx8nuxBnHCnjevEOQwocmA97q2mw6LEo9kFO6z3lC9vpZS4Jwe/5YCFfeQMsJhD3vAughxHegdDqCozDXU0EMGYjkDnNUwuFTBvZdAnXA57LmE4KUXOTOcUzySsbf4Gid9gHtP0Adcitkx6+YVnBjtJ58CZ4R4Gd6V4zZULoX0WBnVOsCsN4b12AS1WY4vItUy5A/gn2gTBZqMNDCEik7FTcbS4A1PaaUN8EXGe72P1QvrmXZP/LjvqtXJHn+NE1MfsJ1tEXV5H6lWA0O2DcV9okNHnTjmDjk+Z5Y9q9uA2dIzboTVMUB0z63z926/DRdlkgQCqk3LRm1kd3Cx+swKx+dyWL3cwUmfA19KQarY5dZLhoy0vNF+2GiDfBWnbARItgGV3x9/SYXfW46pn6yw/yK4zueJrOkP1k/zJ19OWQqSMS8Z8ZOdMM8PkumJ8EaBej9FIe0EkTBz6bk1+Df5FyF/+RFqf5vBVz94gYbtPDtrF5bg2WWVMYS1swEK65qRSd1X0Tm00kidc4i8ZkwlAINLFYWSjO66y73fKFBLRXTljOcGBbVXbZyWqxAcM6jmxlcmA6QBbYDVf43tFlCvqOi8qgH8IyMVcqscOG4fXXnfSto3cgvEKz9/xp2JjbIJzOQQkVlR0anEjQaooXHZhIjP8RhA1Xn1lYLTMlDbBHDguHgYw7tjS6MN1vaOREjMYMocwD2XIB4VbcnNAdFmDcJB037vch3dEnCS3UQtX8VpxKyNUM5gWWW8MTZCtNl+w/QkSZ1ziGWt4xFcTyo6h3p9thSolTVtINlKI8UNIDEeqNrZAIU8e9+4csJ4Rsp1dOU6wMr+UhWnsjZg2G6JqJdiPMKG0W59vGZM+Q0uVRQWrbKdJT3jFiaZpOfW7X5hPU8TJ5/DKseBMyMUNIZLAN4AgN6ej/ahdhqoIWfvnPvK0MCahHmjmINFaSkFTm8DGjX0+kUI77HSx3oCkyOufpKeb1qREs19nB5gzI3VoumnWZYvFr/17WEGm4aMxrXhU13v29rGY2jrt8WRSAWCIOIyl4Pbq8uv8C//859x+dVXIX79EWpfbAI/eAExEa+tboDLdXSPxEQ3kzKNqb7Bjy18iA2/kmV02XAwg9Y2pCdN5JbOrXP5KkQe6FSyVuhYJRUyRy7PuGGiGLbbMbANgO3wGed0L0IPKazqXl22YwX939R93VvXssKnkp8RltC+eAZ+UTsaXKoo8EWkjrN4fGjkA1DPJEgoYo8vQuhog16A8fS2ALWSQyHfxm5Wb8NuXuvEmX6bnQiHDXTyz/QB9QCKWgRfSmmdcsBqQ9N67xnTM246JaxXZxxdEud5E2EkNFXnlmymlgTS2+uE9JOE7VYR3XWb1o5JzLY+Y/LF4heuP/foofq1bDaxZW8EQcxhWPIvu10cH/1juIHtxp/iR74DW3132jg7IYYKN9HXxp3VAEhQrjhbCJf4JAeu3xv1wh5uaSGSriGcNWxlszjpc0gtjT6xdnYNPr9mnVhiwq+MZ4Z6QT2/Zb+yGaP8QuD0qvh1Bic3sHXZjTqQGnp9e12btNq4UNlwMwHVcg7oNJJZezz2Dsoiijynt1nNM6NigJ65bq0IntOPD3sYQsVFRzfb+SqEFeO4hl4fUC/NU3BJAAAgAElEQVTatnWi1rF+LmrZvlGgcmvI5Y307NrbMG2WedMnOcCWnwEU1V2uvBlAcdan13uOIyflInjOkGMJ7QsVYHSHmy4xwirDtwXt/Vd5wUzPrvHzZYb1jEHYsEe38OVxQx+NdNF1VQwZailQuVwioamjMuTBGwXqyiMr9NmmK8y7aRO3SW2MNrZ+MtCvOXb1jy5f0fSTjRmWL6/w+6gT1jcXtm/HrZ6Fg6ZWXvqu2vWyvvO2s+36LF8jCCI+c+G5HQ76eP/hB/jZT9uRvnNbLGTwhwD+8LOX+Mln+sn/7OGvn/wzJqkiOd4KAVI7O7rHC6g93UGquY+urId1qm3sbnptGKVtGGFedYYk9Rvu4aeHDXTy++BxbTsuyDIKANROG8OVcDO+Rn73ZBl7TJ6S2KgoiKgbQ01ura0E5Wof4PT1jCFnv0fq2twcRML2prbhmBkm1m9onoV8zuNu2oBL8bq6OKZHQd+EysBWx61tPF7SBswF23sAQA1blRROzfBGu4fAKgNGFmxhWTHKtrWNGt/Env7M4fEOOvln5uXANrtStOrEKHcmP9utIrolGd2S81298KnPsXBsmqUyHiZonv30kWx/F0cUifT2Gnvg9DXZYfIjYfswh9OK/i79BnY7j8INmuZIz4TBL03QJFzU+/kTRz8ZcsuGqkb4HqevDHlg6BEmFHp4nE3Am+iQk5KMbsnQQ/H1k9PeDs3IFYvo8jVGW59R+XKDlTk/+Yu+OeRkCK5nPaJq/cayRBB3nq89/GDp99POxFxihJskuMsyYXX+wnQeg9bIeYUARjaM5ros+hh74txg2QoHTewtvp7yd6lvEmvzrWl1ZG8zQZ1sLz0TxnsUJopk3LWEJiRDU4Lkyw+nfBm4yZObrY7aB4ji1Y0mb2PUc7mO7nqP5IUgEoYGt5PC3P1xDtf3ETqGVyCCV4MIyc2X7V3qmBuf/pimh4aYNCRD04Lk624wbj2TvBDEZKDB7QQxQ5eifJePIIipQB0NghgPkiGCCIH5TWeaGCeISUCDW4IgCIIgCIIgCGLmmbvdkgmCIAiCIAiCIIi7Bw1uCYIgCIIgCIIgiJmHBrfETOK18+FNfOduGt/SIwgieVhZdpPrSck66RDirhDU1uN8GosgCMIPWnNLzCxen87w+i2L3wffgz7TcdPf0SMIYnJ4yXYUfeJG0KfI2N+56SeCmBeifq/WOO8FyQdBEH7Mhed2YWEBH/M5LCwsTDsrNoSDJrqyjO6RaJ4Tj2ScHghTzNXtRyu3OkQIqDbt5deVZfMvzDHLRjZrM4rGMXs+MaOZr+JUllEvs+9DTAKSqckhHDRt8jdTBMigm97w+z+Ll+5wngtK56aP7Iioy3r7LtfRlZuo5mOWB0EkSQQbF/Vb0OyAN5yNnoychNJ/5Tq6ejlMgtuug/36a0Qw4pGMbrMKgW3D498VdVm+0/ZiLga338h+iI+/lcN3nv0V3n/4QfiEpb/ET754af3VPkouU/kqRP4aJ9nslD+LoCsc1vDkqzi9xYMt6e217Vi9HNiOnUbP7f+TwGsQ7WqoWwpU9lhVMBj9VcIYda3/NasQ2POOSRajTYx0TBI01uYEjy0/txWtnCbVSYmOvT6dRm+2ynYKhJBBt8FmmEFqXJy6ItgDPIBie4lrKPTddAeWnLh1DDVdJ49MNAPhZEhLf3c7iZ4EyJfTRnraShdYW86m9ZZHkhONm7dh/v21MWyYPnnSdR2k+cu8H5OSeT8943dtcGlruFDfSuEf6kkNW9ksNo6vwZfvZt9gLga3BgsLCyh+9m18zOfCJTj+Pj759IX+18T/XvkYLzYSzNCNDGjCoar3IMySd0tVMIAE5cr9slsoX5hwYWfYYRiDa6SJ6qUBVChvRpX/pBCP9sFfNcw8nVzlsGcq0gGGyOgDWBEZDDBk0g77QEY3iOK6djw25Tr2Vs+xq+dn92KNyQ8RhHDwDKsXO1p9VtoA/8wytlS2IfGWQTc94NYRT3KAy+otN33lpcPUtxLwxjGYIKB5KPaRau2g41I4wkETBTA6EUWrMxxChrT0dl1JsPjL1ziRUeyA1vgLstdTkZPDLWxks9g6vMmH3jI8+mvxbZiIemUNFxW97ivnWK3Uzf6Ln8z7MiGZD9Iz1rUGhivF0cmHKwXSyARNAtxhm/Ffpp2BSfDxt3JYTq+g8YN/xLt378Il2riPB/g/kLvsSQHV5j54tLG7uY0k5lMAQH2bRl3exzIAOD7iLR7JKKwYv3R84Nv88LdOv8F4hfW8cu5p1dZrIJ+DAGnkPezPBIbHmqIWDpoQcQ6Vz2FZbePkYg0FnoPa2cHj59JoWtVZTjHL73ALG7qhkJ5mRz5w7rYJjPPfsPitvTXuF69zW8NW1si59T5J4NpG8lUIKwOcZK3Sqr1qQ6hoA9oUB/RaxgA2A5z1gJUMACC9yAFnr4F1Tcln0EMPaWTYh5br6JbSZtsIRkA1n8awtaXXu4DcKgdwWn7GjWVwtln1knnyQRN7piAwcpCv4rQMSHo7BmC2ZVuakoxuCQBUdCqb2G5pz8tctsHxuvw52rqv3Jp5gnm/MEjPNy2ZabVxUc4htQRMumzt5QfAmOjQy+/iKgdef1e2PTjTmXrClk5F5/gcq6UcOKYMPevMlqdo5RdWBoPW2CeFn97yRsL2ptEKtvE4QW+Uu+4WUZczUDr3wPMchscNoFTEMqNnvGQIjrT2a8CIjUrEXhh1LLh4WUQUeaBTMa0rMisAdz8HAUAuSIbM6KseMvKjkKUaTJB+mjf5iorfpBI7IWX/zeTkBEih2pT1dsuWHdue1ZGyE49kZM4M+XGm9e87eepgZzrY+2t+NizomZPor8W1YYODR1juv8aWnm+BXwMHTuu/HPrJvB8h7GYsmffTMxKkwy1YPrMaev0ihPcEQM8FW0ZWGybGZa48tyyLDx7gUyG45Rdrekjy32bw1Q++j0ZSGVhKgbtSXBXEcukRFH1G6qSfNj2q4pFsm/3Z7dxDgQmbEJ/koB4zs6FsuHO5aPPabTiMF1BD7yqHoku4Su0pc89KG1zeeibHr0GpNDDkcigsvsZuRwW3mAagKVPhcsfK78UaxAl7h8OEEQateYsyAL5tG1eIRzIK99vmzKNZz0spcM5IgZYCFfeQMsTgsAesixDXgd7hAIrKXEMNPWQgljPAWQ2DSxXce+PUZRopTpvVt2ZaGxiy+YmJU05OWC9zuY69xddWOzgGCuzMrN6OrZnkIkRoBmYjq80ED00Zs3dWlnljJnkHHViyFCS3iZDPYZUboHcITLJshYOmfWbbOTXO5cAb73o8wDKjK7QyNMquAVUvWyPd6uUOTvoc+FIKUqUNlUshDQTX2Q0zqQ3jwuiqqPopLv66Ow1e1/WarXK0LQ8ZMtMa7cd2Tes4m16ckciSCZBPgTPCU/NVnMqPoBwb7S5IhgRUyzmox047OiYh9NM8yVectuz00rr9TWLJgCcrOaRao/01bUCte+M8ki6XMuhlR9P6yV+QDvbqrwXZsGn012xEsGHpRc4MbxaPZOwtvsZJHxPuk8SUeV8940REZkXFReeGBrEtxSMf889cem6j0BBf6APaj1D74iVqeAHx2LgqxZhJEVGXi1i2eVXtqJ3PTYVTOxugsK41vdR9FZ1DK43UOYfIaw1TghabXyjJ6K673PuNArVURFfOjMzKGtRetXFarkJwzLCOzBJigDSgDZT6r7HdAuoVFZ1XNYA3ZrO0WS+O20dX3reS9o3cAvHKL5i4O5Um+SyvTWYmi6YYO5W4UQQ1NC6bEPE5HgOoOq++UnBaBmqbAA4cFw9jzswvVXEqa4PC7ZaIeilWxhmMMnCXLXE9Dayk0ZWL1klVgTVPOsCJITutNi7KzzTDFmKm35JbCcrVPlZ1Qxskt4BjBjsyIuoVbWLL9taJl60m08OWX/tiyu+NZTglwPTuW6hQ8lY66bkEHO1D7TRQQ86atAuss3HLz50onyCZpD65+Qk0P90NAIyuN/U/m95PhlR0DvX201KgVtb0a2mkOL0N6NTOBijkU0w9T8ZeaO0SOMluap5n9pqHDBnhlI8TDjWNpJ9mXL4Aa7ImbhtnPbVOr+2N0W+Y3vPBpYrCIqvZ/dHqQqNmejX95S9IB3v11/xzNL3+mkYcG5a2JsSeSxCPigiH3gc3Dp0e6rgy75A/e1QK/PWM9gRUm0VwnR3TIz15atjK6ptL+YxJ5pG5HdxeXX6FL6QoLejnaLQ/xv/z9a8D+HKMJ+shE+U6ukdioo3JNED6hj82oW0ZoTh6Q3YJk0FrG9KTJnJL59a5fBUiD3QqWe23+SpOK6mQOXJ5xg3hZyyjGL+g395UyOLYODtCgDmj2EMKq7pX1+rEGF0fAan7+mxmywrnGn8+dwBFLYIvpTRlz+Znwu0lfOj0LKAZatjeaXpl65tPW9i6iHqEUM5p1Nm0ZJu9/4131E28dPccrdtuKVArORTybexmdTtpRrgMkPKUIRHFCgcO9oHAckVG98n4HcR4bX325MtgnAGuWyj/fOAlfwGWdyb7a9Ft2IBXUeCLSB1n9cGmgNR9QD0LM/hmw+VZ/J4ZQua9Jvh99YyBFbliGxBPHG2pSC+bxdYNPvU2MJdhyT/rtPEP3//78OttAQAfoZj7A3z1JTuw1XdkixNi+EaBej8VkE5fA3BWg+YN4sA/YXa0fZID1++NemEPt7RQGNdwA22XtJM+p69tcFw9uwafX7NOLDEhFcYzQ72gnl/fndjGKL8AgjaB8UvjDAOczkDVZRfrQGro9e1txKTVxoXKhkxpITZgZo7HIvIOyhLaFyrAtF+39mzsXBj+vgMoKodV3grhYtcfDS5VLJdClmm5CB7naJvGXtsQI1roUzi51d4z4o6r+SpORzoF2jMnU7ba+y/ra69Rrjs8BH55TYGDEfIFCAePrJnzAMLUWazymzGCd4R1J149B+nukIzIkBcDKE79lE9DvWg71vwlaS9q6PXBPIN9pp8M6TuNMiHAQ6joVJxLgeqRd2uNpJ9YZli+jDbN2uawbdy5GdU4tjq6nEwKP/kL0MGB/TUvGzal/lpMGyZ1zqHCCGGGpmc45jgWCci8K356BjBCoGMPbN30TL6KU7mJap75Eka5PtqfzLssV7sjzJXn9ne/e4cf/9MP8Ztf/yrU74u1l/i22TH+Lf71b17gZdcvRTJwvDU7pHasMIja0x2kmvtW+JDaxu6m14ZR2myseXVkA4KG+yzTYQOd/D54XNuOC7KMAgC108ZwJdxMoJHfPVnGHpOnm5ghjuO5daaZrvdVC20Fdy90WCzg0kbMTSokbG9qG5WZM4/9BjaeS0Dea/dwbQJE8boaIfzKDen5JtJHspVXl7AY6e019sDpxjjMsyRsH+ZwWtHfs9/AbueRqdCNZxrtGXCGD6WZawOcZO3hX9omXEYZhpvp9pfb+BgdF87cHARWtMZEyhaoPW0gIxe1+6pt7B4De+shEra2IT2RUajI6FYA9NvoqGuByYAwdTZfhNVPYYlXz+Pobn8Z8silt34aC4dd1G2r8S6WbDL29rm1kUuQDPnyRoGKdCQ9Gbutz6h8sZM1cTy4SXpu48iJP/bw1+WKjG4lms1wkz9fHRyiv+Zlw6bRX4ttw1rbeLykDeosPeO2kRdGZN6PsWXeAz89Y05E8axXeHRTN09C6BltfXLG9dpd5WsPP1j6/bQzMS4LCwv4RvZD/FL+RURv7QTRdzCsJbjLMqERZ82tn1GNOqOcWOiiuUYj4U1LZgq3kKUJoYdwSXemvG+wbGecKDpgnA3pnLqD9WrF1ykkQ9NhWqGGs0HQp66CZM5LJuLLCulDYhYZQ8/c4XHIXHhu3717h5/9tD3tbIzCrSGXByIt/SUCiWPY/NJEvd/4A1tjxjfC7N0cYnyWYL7WyN4OqGyjEUWmx5F/r+iRuPekep4ORqTUPEcYjItbm3YuCYqaPkw6N0hOiFlkbD2zlALnGZs338yF5/a2YoYK37FdygjiVkJeJ4IYD5IhgiCIW47hQJnepq/Thga3BEEQBEEQBEEQxMwzl7slEwRBEARBEARBEHcLGtwSBEEQBEEQBEEQMw8NbgmCIAiCIAiCIIiZhwa3xEzi9TmOcb+FRxAEEYZxdJDzN1H0Fuk4Yt4JIx9hz0W5ThDEfDAXnwIi7h5u34YM+y1b5z3czhMEQQQR9J3aKDrJeez2jVDn/910GOkvYtZhZcpo32ybj5IuKA1BEPPHXHhu33/4AYqffRvvP/xg2lmxIRw00ZVldI9E85x4JOP0QJhirm4/WrnVIUJAtWkvPxavb0Z6/Zb9Czpvkq/iVJZRL7P5IuYFksfJIRw0PWX31hMg90YHmv1Ordtg1W/A69Q7QbrIed1Nj9kRUZf19l2uoys3Uc3HKw6CSJbgthncvt1xylOo3BzJ6DarENh8jY12L5I7grh55mJw+/X3H5oD3E+EPBYWFqLdYONP8aMvXuIntY+Sy1S+CpG/xkk2O+Vv3OoDRLZzlq/i9BYP0qS317Zj9XJgO+7KcuCfk9ghhC0Fqi0zCgZev00Mo870v2YVAnveMVli1O1IJ7xcR1fvoI+Nfi+/wb2WF6chNwy87JoXLY08MgkEMJNDtjK4rWh1k0hZJ4E+OPMsP9t16nyNECD3XoNPv2PA0jdu+spPf7FpvY5HGUCxvcQ1lDv4vUN/LF3rNqCJp5/sOs8tLRGtbTrlwunN9UsXZoA7uLRlBupbKTBNMDVsZbPYOL4GX77t9osg5ou5GNyyfHPjQxQ/+zMsPngQMsVHqP1tGl/1f5t8Zm5kIBQOVb0HYZY8VKqCASQoV6OX4no9ooQmOzID5c3ooHtSiEf74K8a5rucXOWwZ3aOBhgiow8wRWQwwJBJO+wDGX2AJa5rx+MiHDTRzSvYPfZuzcJBEwVHXrSOYxE4NuqlAZSsgZSWhnlPFK0OZrmOvdVz7OrXdi/WmDIgAmlt47EpDzvoIIeiOfAWUa+s4aKiX6+cY7Vyeye7poe33AcNTL0Gqn76yjeCBHZd5dZp9+rIq28l4I1jsE5AG4TuI9XaQcelcMbTTyo6FaaOpzrBfXvxaptO2XGLVGD/DcJtYDzClQJpZNCdACR7BHHjzOWa28UHD/Dnf/Ed/PjVDzH8D//efbG2iQft7+O/o4i/GxkPC6g298Gjjd3NbSQxlwcA6ts06vI+lgEAA5xkt2CYPvFIRmHF+KX9GvJVnFZy4IzjfoMxmnpeOfe0aus1kM9BgDTyHvZnAsPjLLYONeMu4hwqn8Oy2sbJxRoKPAe1s4PHz6XRtKqznGKW3+EWNg61/0pPs0iqW+C1Ns5vzZw2+2rkwMpXErjWdb4KYWWAk6z11rVXbQgVbUCb4oBeyxjAZoCzHrCSAQCkFzng7DWwrnWyMuihhzQy7EPLdXRLabOOwyA939TqrlzHntsPzCiFHjLyI+ZZRa3ujeeUM1gGB44XgFYaRR7oVMyWj8wKwN3PQQCQy6cxbG3pbUZAbpUDOK0Mxm0PzvauXlr/Fw6a2DOFiJGhfBWnZUDSZQCAKQe2NCUZ3RKgdW43sd3Snpe5bIPjddl1yImvzJt5gnm/6KSR4rSBmna/R1juv8aWfi+BXwMHTmtTY7Zve/kBMNSvXn4XVznw+ruybdCZztQxtnQqOsfnWC3lwDFl6FlntjxFLT9/uXfTGX6e2jDn/dYIxvFaARK2N41Wto3HCXpt3fW+iLqcgdK5B57nMDxuAKUilhnd5iVDcKS1XwNG7FsitsaoY8ElckGcmn7yI0g/zY58+bdN56Rz2I2g3Nbluk0wOWXXtHEAky+CIGaVufPcsnwz+6H/D0p/iW8v9vDfX36Z/MOXUuCuFFcju1x6BEWf1T3pp02Pqngk22aKdzv3UGDCncQnOajHHrPB5aLN27fhMEBADb0r1nvDXHnK3LPSBpe3nsnxa1AqDQy5HAqLr7HbUcEtpgFoRk243LHye7EGccLeYa8Q5DChyYD3TO9NbzghHsko3G+bM/9mfS2lwDk9/i0FKu4hZXTADnvAughxHegdDqCozDXU0EMGYjkDnNUwuFTBvTfJOhFQLeegHjvbGyC8d0+fDbe8vydG+8mnwBmhaPkqTuVHUI7bULkU0rbBmOFdaWDIlkFMnDJ2ws59levYW3xtycIxUGC9MboMGHICvggRWsdoI6t5f4amfNo7esu84Sm1e1GDZH4crLDJIrjO52Z+0oucGeovHsnYW3yNkz7GbifCQdPuzXK6w7gceONdjwdYZvSMVoaWh1/Vy9ZIt3q5g5M+B76UglQx2gmC6+wGCauDgOieW7f1tm7erJvYDdZf76fB63ZCs3MOufWQITOt0X5s17SB6+qF9Ux7NMsEGFs/ceArCYf9h9BP8ypfbFsPkivjN2E2oLoRWopVngRB3Ahz6bk1+Df5Fz5XP0LtM+B/fPrPkAG4qz8pxiyeiLpcxLLNq2pHZTqatbMBCuua2kvdV9E5tNJInXOIvKYUJWjrQgolGd11l3u/UaCWiujKmZGZVYPaqzZOy1UIDi/EiLcFA6QBbYDVf43tFlCvqOi8qgG84ZnTZqs5bh9ded9K2jdyC8QrP3+8vCNRwpPGvcf4iMisqOhU4kYD1NC4bELE53gMoOq8+krBaRmobQI4cFw8TNb7LBw8w+rFDh773NMcwG3WIBw07RfLdXRLwEl2U/PssNeWqjiVtUHhdktEvTRubo1yd5dLcT0NrKTRlYvWSVWBAKNFD3BiyF2rjYvyM60zG8JbYcm8BOVqH6v6QDJI5gG7VyEKVjptcHB6AMYTlrYGDM8liEdF7xuFQtMHw5Zfm2bK743V4TOiAroltvunQslb6aTnEnC0D7XTQA05a8IvsM7il58fbuHBSXpu3e53O3Z299P7AMDYCdN2sOn9ZEhF51BvPy0FamVNv5ZGitPbgE7tbIBCPsXUc/K2BkBM/cR6/XX7WqlDbLnb5bBE0k8zLl8GblEKYSZxnIPc6Q5wa9jK6uuwffqFBEEkx1wObq8uv8K//M9/xuVXX3n+JvviY/wR/gB/9MVLfNs8u4mffPEx/vVvvoeX3bhP1w1buY7ukZioImPDQ7uybA/NahmhPboSZcIiTVrbkJ40kVs6t87lqxB5oFPJar/NV3FaSYXMkcszbhh22/8gA3Y7BrYBODslgOlF6CGFVd2ryw5coP+buq97E1pWmNdk/egiijwHDvaO7nJFRvdJAxtn19jjixA62gAKYLyGLUCt5FDIt7Gb1duw6bUeIKUWwZdSWqeSLYMJt7Uo4dqzg4TtVhHdda1VDS5VFPgiUsdZfVJCQOo+oJ5NKxxPRN0WKi+izoa3BzCNOnPTOWG9puPomjjPSx4vvT9Hq7ZbSmL6yZiwSoJ4bX325MuAHaSyg9ooUQpekRA3hxZy38tmsXWDTyWIu8zchSX/stvF8dE/+g5sAUB++T188ukL8++v278F+k188ik7sNV3UowTJvhGgXo/FZBOQDWfxvCsBs2jw4F/wuyE+yQHrt8bne093MJGtoGha6iLtkPfSZ9Damn0ibWza/D5NevEEhN+ZTwz1Avq+fXdBXCM8guB02viZ+wmN7B12Y06kBp6fXtdm7TauFDTzOZfWtgvOo1k1nIluYOysRskE+42NDZSeVoDDnsYQsVFRx805asQVozjGnp9QL1oW97FfFo/ltC+UAGm7bvJghF2G/5dBlBUDqu8YKZn194OLlUsl0LWY7kIHudom51ZbfOzaKG94WRee89xQhv1stVDkaXOOVQM0DPXQhfBc8wxYLaT8J/E0N5/WV/vjXLdEQ3iQz4FDo41wSGfGqbOxi+/cPiFDLO4hS+HDWf2Iq6HKroMhdH7IRmRIS8GUJw60dQVsM4lamvG10/wuxZZviLqJ5YZl6+4Njr67uI+uNVXvopTuYlqnvmKQbk+2hfIuyw1IghiosyF53Y46OP9hx/gZz9t4ze//tW0sxMIx1ueLrVjhXTWnu4g1dy3QoDUNnY3vTaM0mZUzasjG7k03MNPDxvo5PfB49p2XJBlFAConTaGK+FmmY387smyudHQTc3yRt0YanJrbbUwU3D3QoeoAi51bW7UIWF7U9twzPSG9hua5zOf87ibNpGheF1dtPmBo+MIaSvIMgojG7q4UcNWJYXTioxuBXB6fKwyYGRB9/BKzzeRPpKt8nEJ55LeXmMPnD6gDPN+ErYPczit6M/sN7DbeWR2RIxnGrLgzBOQZq4NcJK1v7+28ZfxPuGiGvxlPj5OfTA0vbTQPPtLWmfNehdHyOQbBSrSkdpO7WkDGbmovYvaxu4xsLceImFrG9ITGQWjnfTb6KhrgcmAMHU2WeJ2vP3SBE3SRb2fH9FlaFy97y9DHrn01olj4bCpul023iW+ftKXJhmPcQtFjSFfsdv6HZQvINynuUITor60ycOM6zWCIG6Wrz38YOn3087EXKLvQlhLcJdlwn03xCi/8dqR1G+n0kDMdVnjrakioqJ1InETEyp6uL50Z+rY2sTnpjqyswbb8fb6NA8Qbu2skzBRJlGWZHhDMjQdSL6C8Ar7d4Ynu6WJK2PejFFf1BckiBtnLjy3txZuDbk8IE1xTeq8EcYg+f0mWQ+uMUPv4vkiJorxKZL5XCM7XQyv7016aGYR507FftfDnI/yPPY47v1IhqYDyVc4/DyvQbKV5JrasetrKQXOM66KIIhJQJ7bCWKGBtIOeQQx25DXiSDGg2SIuFMYk9/T33iTIO4aNLglCIIgCIIgCIIgZp652y2ZIAiCIAiCIAiCuHvQ4JYgCIIgCIIgCIKYeWhwS8wkXrshjvUtuzGfTRDEbDGOHhnnO5qkQ4i7wjRtNUEQdxPaLZmYSdw+geH3SQynIfX7XECYz3AQBDEfBH1SJ4pecdMzXtfdPm3ilY4gZpVxbTV7D1UVpp0AACAASURBVLfzBEEQTubCc7uwsICP+RwWFhamnRUbwkETXVlG90g0z4lHMk4PhCnm6vajlVsdIgRUm/by68qy+RfmmGUjmx35nAD7Z5xLhHwVp7KMepl9H2ISkExNDuGgaZO/mSJABo0ONiv7boNVvwGvm/5wnmNxXnfTR3ZE1GW9fZfr6MpNVPPxioMgEiWCjfP7rI/bb/3k4yblJJT+K9fR1cthEtx2HezXXyOCEY9kdJtVCGwbHv+uqMvynbYXczG4/Ub2Q3z8rRy+8+yv8P7DD0Kny774Ln7yxUvm77t4sZFQpvJViPw1TrLZKX8GSFc4rOHJV3F6iwdb0ttr27F6ObAdOzuSbv+fBF6DaFcPcEuByh6rCgajv0oYo671v2YVAnveMclitImRjkmCxtqc4LHl57aildOkOimR0evB/HN0GmarbKdAgAyG+Tat18DW+DfK5Bqb1ut4lAEU20tcQ6FPijiw9J5bx1DTdfFkyHadOu12Qtg4p4y4/TmJF8ZMcqJx8zbMv79m75M45dNX/vTJk67rIM1f5v3wfqYxIPTWF3746RnLlo/2uweXtoYL9W0S376uYSubxcbxNfjy3ewbzMXg1mBhYQHFz76Nj/lc+ET9Jj759IX+9z287CaYoRsZ0IRDVe9BmCXvlqpgAAnKlfvlKF4Wr98EdUSdaaJ4aPSXgPJmVPlPCvFoH/xVw8zTyVUOe6aSHWCIjK5YRWQwwJBJO+wDGd0giuva8diU69hbPceunp/dizUmP0Qgh1tMG2tguPLIMvBUtiHxlsG4USB+OiBIJ7B6y01feekw9a0EvHEMJghoHdJ9pFo76LgUjnDQRAGMTkTR6gwHyJB4JNuu07fq3fC3cXGjG6KEJttyMw050fX01uFNPvSW4dFfEw6eYfViR6vrShvgn4W0YSLqlTVcVPR2UjnHaqVu9l/8ZN6XQLupolNh2mdImffTM8JBE928gt1jn9HAlQJpZIImAe6wzZjLNbcffyuH5fQKGj/4R7x7926MOwmoNvfBo43dzW0kMZ8CAOrbNOryPpYBAAOcMB+1F49kFFaMX9qvIV/FaSUHzjjuNxjh0/PKuadVW6+BfA4CpJH3sD8TGB5rilo4aELEOVQ+h2W1jZOLNRR4DmpnB4+fS6NpVWc5xSy/wy1s6IZCepqFU724rVtz/huWIIMZf61tDVtZI+fW+ySBaxvJVyGsDHCStUqr9qoNoaINaFMc0GsZA9gMcNYDVjIAgPQiB5y9BtY1JZ9BDz2kkWEfWq6jW0qbbSMYAdV8GsPWll7vAnKrHMBp+Rm3m+hss+ol8+SDJvZMQWDkIF/FaRmQ9HYMwGzLtjQlGd0SoBm6TWy3tOdlLtvgeF3+HG3dV27NPMG8X2TyKXC4Rq8FTLps7eUHwJjo0Mvv4ioHXn9Xtj0405l6wpZORef4HKulHDimDD3rzJanqOXnL4NuawH9PLVhzrPnwqy3DdZXErY3jVa2jccJeqPcdbeIupyB0rkHnucwPG4ApSKWGT3jJUNwpLVfA0ZsVCL2wqhjwSX8TkSRBzoV07oiswJw93MQAOR8ZUhEZmWAk2xydt8gSD/Ni3yNg9caeO+18ZOTEyCFalPW2y1bdmx7VkfKTjySkTkz5MeZ1r/v5KmDnelg76/52bCgZ06ivyY937Tu02rjopxDakl/lo/8DQ4eYbn/Glt6vgV+DRw4rf9y6CfzfkzKbvrpGckqg3Idey6p2TKy2jAxLnPluWVZfPAAnwohWv7KphWWXPsouQwspcBdKa4KYrn0CIo+O3TST5seVfFIts3+7HbuocCETYhPclCPPWaVykWb127DYbyAGnpXORRdwlVqT5l7Vtrg8tYzOX4NSqWBIZdDYfE1djsquMU0AE2ZCpc7Vn4v1iBO2DvstmbN688rfZQB8KRCnOMiHsko3G9b3gSjnpdS4JyRAi0FKu4hZYjBYQ9YFyGuA73DARSVuYYaeshALGeAsxoGlyq498apyzRSnDarb820NjBk8xMTp5ycsF7mch17i6+tdnAMFNiZWb0dWzPJRYjQDMxGVpsJHpoyZu+sLPPGTPIOOrBkKUhux33XriyjW8lBPTZkenJlKxw07TPbzqlxLgfeeNfjAZYZXaGVoeVpVvWyNdKtXu7gpM+BL6UgVdpQuRTSQHCd3SBhwiYNonpuw+iqqPopLv66Ow1e1/WarXK0LQ8ZMtMa7cd2Tes4m16ckciSCaBPCCkt6CGOj6AcG+0uQIbKGSyrClJMqGEia+FC6Kd5kS8vWQorY342/EZZySHVGu2vaQNqParGI+lyKYNedjStn/wF6WCv/lqQDZtGf81GPodVboDeIRBkw9KLnBneLB7J2Ft8jZM+bqBPwoGveIVCe72Xn56ZMi3lduRjCsyl5zYs8svv4ZOXxtFHqH2xiR+9+BL/7eWX+jkpxkyKiLpcxLLNq2pH7XxuKpza2QCFda3ppe6r6BxaaaTOOURea5gStNj8QklGd93l3m8UqKUiunJmZFbWoPaqjdNyFYJjhnVklhADpAFtoNR/je0WUK+o6LyqAfwjIxVyqxw4bh9ded9K2jdyC8Qrv2DCdP6SMoBRvDaTN7oiMisqOpW43oQaGpdNiPgcjwFUnVdfKTgtA7VNAAeOi4cxZ+aXqjiVtUHhdktEvRQr4wxGGbjLlrieBlbS6MpF66SqaMYfADDAiSE7rTYuys80wxZipt+SWwnK1T5WdUMbJLeAYwY7AjVzJlxbD1QH4zlPvGw1mR62/NoXU35vLMNpzEx3S6wZVaHkrXTScwk42ofaaaCGnDVpF1hn8cvPD7fw4CQ9t273m47ecOKnuwGA0fWm/mfT+8mQis6h3n5aCtTKmn4tjRSntwGd2tkAhXyKqefJ2AutXQIn2U3N88xe85MhTh/UPAU0+XuGal6KF3mhE0k/zbh8eclS2PYetJnbjdFvmDp3cKmisMhqdn+0utCwdLm//AXpYK/+mn+Optdf0xBRr2jOGZvl9rVhaWtC7LkE8aiIcOh9cOPQ6aH2fCYbiaCXc6UOsaX3px3yZ49Kgb+emRo1bGX1tcQ+Y5J5ZG4Ht1eXX+ELKYoV+jnk/ib+ZOwn6wJSrqN7JCbamNjwhq4s24W2ZYTi6A3ZJUwGrW1IT5rILZ1b5/JViDzQqWS13+arOK2kQubI5Rk3hJ9xi+L5CPrtrTCuYXB2hAArlBUprOpeXasTY3R9BKTu67OZLSuca/z53AEUtQi+lNKUPZufCbeX8KHTs0QNjc4jiO8JmGbZeiOibgtbF1GXHwUlMplGnbmFOIbVHePIf5znJY+X7p6jddstBWolh0K+jV0jvNiMcBkg5SdDZQBqGw2zTWoyp4VUjke8tj578uXEkLWoe2OEOT97eMlfgOWdyf6aNtiErQ3627ABr6LAF5E6zuLxIaD1UwD1LMzg2z5ItYhmN41JahOvCX5fPTNttKUivWwWW9POyg0zl2HJP+u08Q/f//to6203/hR/svJb/K9//ZI5qe/IFifE8I0C9X4qIJ2+BuCsBs0bxIF/wmxo8SQHrt8b9cIebmmhMK7hBtouaSd9ztUQ186uwefXrBNLTEiF8cxQL6jn13cntjHKL4Aouy860zjDAKdjLF12sQ6khl7f3kZMWm1cqGzIlIBqOQcwM8djEXkHZQntCxVg2q9bezZ2Lgx/3wEUlcMqb4VwseuPBpcqlkshy7RcBI9ztE3Dpm2IES30KZzcau85zrb8Ioo8p++kOKmy1d5/WV97jXLd4SHwIZ8CByPkCxAOHlkz5wGEqbPxyy8cYZc3xNkFNgg3/RSGePUcpLtDMiJDXgygOPVTPg31ou1Y85ekvaih1wfzDPaZATJ02MOQW0POaG+2kEodXSdGCVeOpJ9YZly+nNERcfa5GHdgG11OJoWf/AXo4MD+mpcNm1J/LV/F6cjAVsuPn/xJnXOoYOStXATvlL/IhLObCHHNjp+eSQA3PZOv4lRuoppnvoRRro/2J/O3ZZB988yV5/Z3v3uHH//TD/GbX/8q1O+zL76Lv8v9gX70W/zr3yS8W7IHHG+FhqidHX1mCqg93UGquW+FD6lt7G56bRilzcaaV0c2IGi4zzIdNtDJ74PHte24IMsoAFA7bQxXws0EGvndk2VzofxNzRDH8dy6bU4xPbTQVnD3QofFAi5txNykQsL2prZRmRl21G9g47kE5L12D9cmQBSvqxHCr9yQnm8ifSRbeXUJi5HeXmMPnG6MwzxLwvZhDqcV/T37Dex2HpkK3Xim0Z4BZ/hQmrk2umGMtgmXUYbhZrr95TY+9o1DVGu2HpMqW6D2tIGMXNTuq7axewzsrYdI2NqG9ERGoSKjWwHQb6OjrgUmY9/Fu84mS9xOc9zokahrDIOIV8/j6G5/GfLIpbd+GguHXdRtq/Eulmwy9lZ/pr8M1bB1nEHXaM+6LrBJ2BsFKtKR9GTstj5n8uXnwZ3UWts4cuKPPfx1uSKjW4lmM9zkz1cHh+ivedmwafTXjME3Z25wBSvi0E/+Wtt4vKQN6iw947aRF0Zk3g9/mXeEM0cI4/XTM85w5oIsozCymZcPIfSMtj4543rtrvK1hx8s/X7amRiXhYUFfCP7IX4p/2LM3ZETRN/BsJbgLsuERpw1t34dWL8dTr1+n8jA2Fyj4b5G+m7gFrI0IfQQLunOlPcNlu2M4vw0mNca2TBrZ52E8T5FCdX0hmRoOlibZN3UQHGW8JKdsL/xsstR7bUF6UNiFhlDz9zhcchceG7fvXuHn/20Pe1sjKKHNUVa+ksEkrSXJer9xh/YGjOEo59kuEsYnsnbsB5s3qCyDYdziYLf9TDnozyPPY57P6rn6WBESt2kB3TWCNOm49jlOLJCckLMImPrmaUUOM/YvPlmLjy3txUzVPiO7VJGELcS8joRxHiQDBEEQdxyDAfK9DZ9nTY0uCUIgiAIgiAIgiBmnrncLZkgCIIgCIIgCIK4W9DgliAIgiAIgiAIgph5aHBLEARBEARBEARBzDw0uCVmEq9PcYT5RMeknk0QxOzhJs+TlnHSIcRdhdo+QRCTZi4+BUTcPdy+DRn2W7Zseq97u6VP5Nu2BEHcGgwdEOV7s+PoEvZ37Dc+3e5JELNMmDbt921pN0guCIIIw1x4bhcWFvAxn8PCwsK0s2JDOGiiK8voHonmOfFIxumBMMVc3X60cqtDhIBq015+XVk2/8Ics2xksyPftWT/jHOJkK/iVJZRL7PvQ0wCkqnJIRw0bfI3U4SQQVbuw05guekL9l8/XeLUOW76yI6Iuqy373IdXbmJaj7MyxPEhAmQL7c2zuIlb24yEjwAnoychNJ/5Tq6ejlMgtuug/36a0Qw4pGMbrMKgW3D498VdVm+0/ZiLga338h+iI+/lcN3nv0V3n/4QcTUH6H2xUv85IuX+MkX38WLjYQyla9C5K9xks1O+Ru3usJhDU++itNbPNiS3l7bjtXLge3YqyOZ+ADVgdcg2nWmuaVAZY9VBYPRXyWMUdf6X7MKgT3vmGQx2sRIxyRBY21O8Njyc1vRymlSnZQ4mOXnUnazVbZTIEAGnfLM/steTzKM0nmv4HsPoNhe4hrKHfxmoT+W3nPrGGq6Th6ZaAa8Zch23vy7ux1FV8awceNEQrmnJTnRuHkb5t9fs/dJnPLpa8P0yRN32fOXeT/8nmmX+2h9ZD89Y/Sp3O45uLQ1XKhvpSiv40ENW9ksNo6vwZfvZt9gLga3BgsLCyh+9m18zOfCJdj4U/zoi03gBy/wyacv8Mmn38PLboIZupEBTThU9R6EWfJuqQoGkKBcuV92C+ULG1Jo/CZs59VI4zaY9puZBlQob0aV/6QQj/bBXzXMPJ1c5bBnKtkBhsjoilVEBgMMmbTDPpDRDaK4rh2PTbmOvdVz7Or52b1YY/JDBCEeydhbfI3djjp6kco2JN4y6CXPrLwb15zE7ZyzessrJNPtvupbCXjjGEwQ0DwU+0i1duAmJsJBEwUwOhFFqzPsI0PS8027jq+0od7ZAZMf3vIVFEUVhyC5m4qcHG5hI5vF1uFNPvSW4dFfEw6eYfVix5Qh8M+sQaqvDRNRr6zhomLI3zlWK3Wz/+In8774PbNcx57hkMpmsXEMFEJOGvvpGeGgiW5ewe6xz2jgSoE0MkGTAHfYZszlmtuPv5XDcnoFjR/8I969e+f5u+z/lQba34d47PULAdXmPni0sbu5jSTmUwBAfZtGXd7HMgBggJPsFgzfrngko7Bi/NJ+DfkqTis5cMZxv8F4hfW8cu5p1dZrIJ+DAGnkPezPBIbHmqIWDpoQcQ6Vz2FZbePkYg0FnoPa2cHj59JoWtVZTjHL73ALG7qhkJ5m4fR7u61bc/O8hMFvvZxxv3iGuIatrJFz632SwLWN5KsQVgY4yVqlVXvVhlDRBrQpDui1jAFsBjjrASsZAEB6kQPOXgPrmpLPoIce0siwDy3X0S2lzbYRjIBqPo1ha0uvdwG5VQ7gtPyMG8vgbLPqJfPkgyb2TEFg5CBfxWkZkPR2DMBsy7Y0JRndEgCo6FQ2sd3Snpe5bIPjdflztHVfuTXzBPN+YajpbV84eOS4MtmytZcfAGOiQy+/i6sceP1d2fbgTGfqCVs6FZ3jc6yWcuCYMvSsM1ueopVfkAx6rX+NuvbWOWBlrzv3BHD+P1hfSdjeNFrZNh4nOLhy190i6nIGSuceeJ7D8LgBlIpYZvSMlwzBkdZ+DRixUYnYC6OOBRevqogiD3QqpnVFZgXg7ucgAMhFkCHxSQ7o7IwtW0CwfpoX+QK815zHXWPuLZuTkxMghWpT1tstW3Zse1ZHyk48kpE5M+THmda/7+Spg53pYO+v+dmwoGdOor8mPd+07tNq46KcQ2pJf5aP/A0OHmG5/xpber4Ffg0cOK3/cugn834EPPO9e1A7n1v5P+xhWMogDQSUhZ+ekawyKNex55KaLSOrDRPjMleeW5bFBw/wqeDX8r+O//uP/wBfIYMfmWHJf4liUhlYSoG7UlyFYrn0CIo+I3XST5seVfFIts3+7Hbu2WaOxCc5qMfMbDIb7lwu2rx2Gw7jBdTQu8qh6BKuUntqn6Hm8tYzOX4NSqWBIZdDQfcicYtpAJoyFS53rPxerEGcsHfYaz1O0BodNn2UAfBt28BCPJJRuN82Zx7Nel5KgXNGCrQUqLiHlCEGhz1gXYS4DvQOB1BU5hpq6CEDsZwBzmoYXKrg3hunLtNIcdqsvjXT2sCQzU9MnHJywnqZy3XsLb622sExUGA9mno7tmaSixBheGq0meChKWP2zsoyb8wk76ADS5aC5DZ5Jle2wkHTPrPtnBrncuCNdz0eYJnRFXZvVwOqXrZGutXLHZz0OfClFKRKGyqXQhoIrrMJ4bakIQzsoNbvXs57htFVUfVTXPx1dxq8rus1W+VoWx4yZKY12o/tmtZxNr04I5ElEyCfAmd4W/NVnMqPoBwb7S6CDOkTh9LzBDqeIfTTvMiXG07ZiCp7Rpob3XF5JYdUa7S/pg2otboYeiRdLmXQy46m9ZO/IB3s1V8LsmHT6K/ZyOewyg3QOwSCbFh6kTPDm40IppM+Jtonkd5eg1vNMUsTHmE5jE311TNTpqXcjnxMgbn03Ebhj/4Y+OtPX0AGkH3xXfxd7SM0xJ/rV6UYMyki6nIRyzavqh2187mpcGpnAxTWtaaXuq+ic2ilkTrnEPmUOXM0uFRRKMnorrvc+40CtVREV86MzMoa1F61cVquQnDMsI7MEmKANKANlPqvsd0C6hUVnVc1gDe8SNqsF8ftoyvvW0n77DxXnPILJoxhS2pQGuWTQ5MfCIvIrKjoVOJGEdTQuGxCxOd4DKDqvPpKwWkZqG0COHBcPIzpfV6q4lTWBoXbLRH1UqyMMxhl4C5b4noaWEmjKzPTVKqiGX8AwAAnhuy02rgoP9OMV4iZfktuJShX+1jVDW2Q3AKOGeykSLxsNZketvzaF1N+byzDacxMd0usGVWh5K100nMJONqH2mmgBqsTEVxnkyk/5xKFqN6juM90u9/N4qe7AYDR9ab+Z9P7yZCKzqHefloK1Mqafi2NFGcfINbOBijkU0w9T8ZeaO0SOMluap5n9loIGUrSaxtJP824fAH29j5uO3dbMnAj9Bum93xwqaKwGOzLM9DqQqNmejX95S9IB3v11/xzNL3+moaIekVzztjkyFf+0taE2HMJ4lFY15PeBzcOnR5qr2cebuFkXcaeLGMPgNppY4iUtRTBIX/2qBT465mpUcNWVt9cymdMMo/M7eD26vIrfCEF91j/97/8Mwz1K3/5f4A/vo8sgPjzgnrIRLmO7pGYaGNiwxu6smwX2pYRiqM3ZJcwGbS2IT1pIrd0bp3LVyHyQKeS1X6br+K0kgqZI5dn3BB+xi1KxzPot0mut5sozo4QYM4o9pDCqu7VtTox5vwkUvf12cyWFc41/nzuAIpaBF9Kacqezc+E20v40OlZZXpl642Iui1sXURddoZTezONOvMKmZy0bHuFKt8sXrp7jtZttxSolRwK+TZ2s7qdNCNcBkiFkaFyHYWVAU6eJtfpj9fWZ1u+vCZ1kt9Yalbwkr8AyzuT/TVtsAlbG/S3YQNeRYEvInWcxeNDQOunAOpZGDlkw+VZgu1mjQ2rzldxuspEw3lN8PvqmWmjLRXpZbPYmnZWbpi5DEv+WaeNf/j+3/uutwW+xP/377/FH33zI/NM8Ztfx3/+e48Z2Oo7ssUJMXyjQL2fCkinrwE4q0HzBnHgnzA72j7Jgev3RmeMD7e0UBjXcANtl7STPqevbXBcPbsGn1+zTiwxIRXGM0O9oJ5f353Yxii/AEZ3sgzeHMq47gwDnI6BdNnFOpAaen17GzFptXGhsiFTAqrlHMDMHI9F5B2UJbQvVIBpv27t2didMPx9B1BUDqu8FcLFrj8aXKpYLoUs03IRPM7RNo29tiFGtNCncHKrvWdSu61Oqmy1919eZzfYCKcNtE6CEfJlhHSFI0ydJVt+Gk6d4QwpDuo8Jz0wddNPYYhXz0G6OyQjMuTFAIpTP+XTUC/ajjV/SdqLGnp9MM9gnxlGhvTfe+lQXSdG2a01kn5imUH5mgTjRE1El5NJ4Sd/ATo4sL/mZcOm1F/LV3E6MrDV8uMnf1LnHCqMEGZoeoZjjmMRzm7qVzRPs28Uk4GfnkkANz2Tr+JUbqKaZ76EUa6P9ifzt2WQffPMlef2d797hx//0w/xm1//KtTv5ZcN/Ourv8RPvtjUTvSb+OTllxPMoQbHW6EhamdHn5kCak93kGruW+FDahu7m14bRmmzsebVkQ0IGu6zTIcNdPL74HFtOy7IMgrQQzFWws0EGvk1wjiMPN3EDHGcTqfbGrjpoYW2grsXOiwWcGkj5iYVErY3tY3KzLCjfgMbzyUg77V7uDYBonhdjRB+5Yb0fBPpI9nKq0tYjPT2GnvgdGMc5lkStg9zOK3o79lvYLfzyFToxjON9gw4w4fSzLUBTrJ246VtwmWUYbiZbn+5jY9dpnOanOllOJmyBWpPG8jIRe2+ahu7x8DeeoiErW1IT2QUKjK6FQD9NjrqWmAyIEydTQY/z5IxyPQbbMbtaIfVT2GJV8/j6G5/GfLIpbd+GguHXdRtq/Eulmwy9lZ/ZqAM6R3qE688vlGgIh1JT8Zu6zMoX36w4cVRJ3Tiyl0cOfHHHv66XJHRrUSzGW7y56uDQ/TXvGzYNPprxuCbMze4ghVx6Cd/rW08XtIGdZaecdvICyMy74e/zLP1qVre8RD46RlnOHNBllEY2czLhxB6RlufnHG9dlf52sMPln4/7UyMy8LCAr6R/RC/lH8R4K29QfQdDGsJ7rJMaMRZc+tnQKOuC0osHMpco+G+Rvpu4BayNCH0EC7pzpT3DZbtDOMMR3bb5ThI3sOm8frdeDqFZGg6WJtkTXOgeJtxC/VPyn5Gvw/pQ2IWGUPP3OFxyFx4bt+9e4ef/bQ97WyMwq0hlwdCLP0lIhDHMPqlibNb43gYM4Sjn2S4SxifJZj/NbI3D5VteIIiOsLIe9g0Xr+Lq1OonqeDEVUxbQ/obcetXScVMRXlPiQnxCwytp5ZSoHzjM2bb+bCc3tbMcMK79guZQRxKyGvE0GMB8kQQRDELcdwoExv09dpQ4NbgiAIgiAIgiAIYuaZy92SCYIgCIIgCIIgiLsFDW4JgiAIgiAIgiCImYcGtwRBEARBEARBEMTMQ4NbYiYJ+hyQ3/W4H4EnCOJ2wsq0m3xPSuZJlxDzjlcbj9L23b4jnUQeCIIg3KANpYiZJejbtV7fmfQiqU8UEARx87Ay7/V/tzRBhNUjxvdqg9ISxKzhJkNB33aOMiBNIh1BEITBXAxu33/4AT76Fo+f/7SD3/z6V9POjonbp4DEIxnCJX0bzw+t3K5xkm0g1dwHfxXuU0pBHVrjXJBRtpGv4rSSg3qcReM9I1/0GYxJQLIxOYSDJvYWX8/mJ8kCZDDJzrCvLgiBtw7SPs3AdXbw+G0R3dK9O/uJBuKWEcPGsTLnZlPdfh/a5sZiMvIVSm+W6+iW0hP7hu5t191x+2uEhngko3C/jd1NBUWjDY/dB6JPAf2XaWcgCb7+/kO8//ADvP/wA/xb9xf4+U/bePfuXUCqj1D7YhN/5Dzdb+IT8efjZypfhchf4yS7OeWBkIBqcx88N7AM1i3/VqH09hp7zLF6OTD/79WRDWMojd84PSy+aVsK1AqbGQUDzx8nhVFnxjPb2N3chmScv7JPlhRWtLodHDg6JgkaXXOixpaf24pWTqnWZDob0bHXp/OD7LNVtlMghAyGkf8kQxujd9YHUFSAM4+vodzBDoc/lpw4ZQQwdJ1+4Ph2vJ8M2a7B/d53mhg2jh3QhhnYsv86z8eJqhhNQ/KlcfO2z6+/Npbt0yddtKvMIE3vUx6XogAAIABJREFU1zgJ288JY281XRNtYGjed+Sejv6cQ3cNLlXgvnUf9W0SuqmGrWxNK6tyFULr7vUp5m7N7Tc3PkTxsz/D4oMHAb/8OcRPX+AT5u9/9IH//OrL5DJzIwOhcKjqPQgHwrSzER5VwQASlCv76Y1s1vZnnAtLV5ZNY2z8Ged8MgPljabEbwLxSB/A6vk7ucph70jUrw4wRAbakYgMBhgyaYd9IFPW77OuHY9NuY691XPs6vnZvVhj8kMEIRw8w+rFjlaflTbAP0M1r1+ksg2JtwyynlKvP/Z3ScBOkIUJ2TTf4q0EvFGgJpaTeUFEXd5HqrWDjkvhCAdNFMDoRBRxatgzPxnKVyEy1zayDah8ESRhTrzli5Uhp0w5z3vhtNus/fYjapqpyNfhFjayt2UidUp49Nfi2z4R9coaLip6vVfOsVqpa3Krl/cGI9NDvf0GEsLearrG3q8KQjySsbf4GrsuymukP8fqLoMrBZI+QZMod9jWzIXn1snigwf487/4Dn786ocY/kfI3v3Gn+JPVr7E/yuyg1t9xgXJelPUt2nU5X0sAwAGthAg2+y045p9JguOGSDH7JAjrdp6DeRzECB5zFJZx8YMmHDQhIhzqHwOy2obJxdrKPCcbfbNltZrxipq+R1uYUM3FNLTbCLeZb8OLts5Hv2NPgMGALDylQSudZ2vQlgZ4CRrvXXtVRtCRRvQpjig1zIGsBngrAesZAAA6UUOOHsNrGvKOoMeekgjwz40sjdXQDWfxrC1pdefgNwqB3BafsatG2fbUy+ZJ9s8Lo7IgzIg6e0RsGaEbWlKMrolgJ31FY9kZC7b4Hhdjhxt1lf+zDwh0oyu9HzTavutNi7KOaSWgEmXrdNjBUMV6uV3cZUDr78r2x48PV22dCo6x+dYLeXAMWXoWWe2PEUrv7Ay6LU2Nul1eW6bVwV7hSVsbxqtYBuPE/QquetgEXU5A6VzDzzPYXjcAEpFLDN6xkuG4EhrvwZ4R5bAfj2S3jfqWLA6v9YbosgDnYppJZFZAbj7OQgAcn4y1FKgVooQDwRIzyUIB4+wrJ6jEbp0vQnST/MiX+xETtzQ4rhRE+HTTU6+gBSqTVlv72yZs3Iw6uUTj2Rkzgy5c6b17zt56m5nOtj7a362L+iZk+ivxbV9g4NHWO6/xpaeb4FfAwdO6/c42qfg+K03IeytGXHZQ0Z+FLYEUNPfWzhwphGQuq+ic8j0584GKKynAT0XbBlZbZgYl7nz3LJ8M/vh/9/e2cY2dqX3/b9AP8yHukB9J6MBa4xtRBWhIFLSillqAxshtzPhUIPAQArsAKQgj7sf6gbgNZoAGXkWO6JkWKYWSAJTaOsCbVYmRKWzCYwsFiKHHddkuouGN6Ga3VEblsJskx1MiZEy19uN+8H5tP1w3y/vG99Ekfr/AGGGvPfce3jueZ7nnOd5zrmBz02nIkC1NBCjBwCYDkE4aTsqiJnl62irHqm9ZliPqIo7ksU7vVa7iFQpB83HI95U1sXoHivzuoZM2uIdWuxIOc6jcRJHOtNZn/wt0zWzVQhJ455CbB7tbBFHQhwp1TMlTCkpIYmtEhLHd436Hs5DPIXocC+G0h6ldfoL6k0eBPo6C/vzmg5BsEf8y23IuIiQNujbbgALIsQFoLHdQls2HUMeDUQgZiLAQR6tYxnCC/08kzBCguYV1aIrRRyZ69Mj9v6+Z/ZDZQrKOiOtfXaBlNnDqvZHwyOsRGMqt5ewGFWiP0e6rFgHHTMxzSN8FzUYMuEnfwMhGcec0EJjGxhm2ya2SlYPtd2jLMQR037rbgszJplX2tAl0iXEMXd8F3tNAbHlECrZKmQhhDDg/8xOmWFMbAH3KJT5Xk6bSw0Dbx0cRkzV2YrNsfUtFxnSy2r9x3JMGQDr0ZiOzJIhkAxB0NJMkznsS9fR3tX6nZ8M5bESvYvDuQ3UJSW6sjgIR3UA/TTJ8uUWyXWjl8htEDk7FWbjCJU7x2vKhFqLHDozsxxBI9pZ1ktu/XS323jNz/aNarym04XtC08JenqzFhXda8JhLKM6vu4FcQX76YoEcpk45N1BLteroH0iYC6m1VuZYONSaLDjCjfKbUN/nDMmMnKr8WfSnwY70TFqC1i9gUFRF3I33RfVy7X3dYVjeHHQ4eGp1B5CjCkdswIlNz+1LKG+4HDtR23Iy2nUpYjrZhD5e1XsZ3JIdHi+bF5CtBAGlAlW8z5Wy0AhKysKJKZ5phSvlyBsoC5tGEWbhkeqt/bzRxs49mrkzJFae9T2dBARmZVRy/Y6yMqjeFyCiPdxA0DOfvReG/sZIL8EYMt2cLvH6PN0DvuSMilcLYsoLPdUcRNaGzjLiLgQBmbDqEtp40u5rRhxAEALe5oMlKs4zLylGKgAHntD/ipon2xgTjWYfvIH2DzRXSOioG7cYvnVA29bRTaPPNfZmNrvkWEAK4DDmiYZ7aRRrnK7AuxsQK4VkUfccL75PrN+28+Zbl77NaiBsdtuyaeLlw4GAJPO1vW4ubyXDMmobav9p9yGnJ1Xj4UREtQ+oJI/aCGVDJme83D0vtIvoexjkcxh33zMVYaMjYYWbwO50gbqpVDfmVhd6acxly87blFcr3P9ZDTItZw4FZlrFvWoe+tYRmrKbBG8UZ6hQl6PanrLrZ/udhuveddodOM1hV5sX9hwpN2uQNxJw45z1FbbTEnFHqF2uaeWQn3DbXxkk9uga/fzt4qISFq7y6jVWsCUc+Br8OSxEhVRkCTUPeYkk8hETm5Pjp/iO3/8EY6fPg1w9hXc+dcRoPrBgKK2poXcO+JAO5NuuDIFxQCYhbaspeKoHdlpl7TyKio3S4hPPzS+S+YgxoBaNqqcq242FYzR7cTWzwTX752YI8U+EAL0yEUDIcypUV1jEGN4BEOXVK9k2UjL6t872EJbTiO2HDI2R9PqM+TnPqzdJ0eDYnBh+U2ja1vPelrS1kUUukjPGsUzO610ZK/7jk6PuOngCVpVWm5DzsaRSlaxFlXtnZ7h0kLIS4YyEczIVaypg9DVpTAK0nXEk0ClTxnrra+Pn3yZMW8iFbTP+6Uy9+ooOnO2uyvc5NbHYo/leK1729eKyUjF0gjtRtXJZgKhS4B8YJoS6m1hH2Ob0+zNeN1TRDorQIB18j+TlVC/qU4Kew0M2OqT2Cph7vi0duNRlpg0olGsnNIdzwoTl5b85/U6dnd+P+DEFsDyEr78/GN8e9NpI6kEciUJ9V5SEx+1IfumHqhrAA7y0NIXYjeNQYl4Mw6h2eiMwm6vKKkwjukGeaxEo9hrCuraBtvRg2eIJeeNL6ZNKV/aPQP9QLW+Ga+26aP9fDAbWY2gg1lzalP/aU7qb5QKXQwn82g0rc9ap1zFoWxOfVJSZWDyAPeF6hgpOKSnO1NB9VAGTP3QqV8mtkpdXreFtmyk6yS2SpZ1RK1jGTPLAds0k0YMD1HVjbaysUV36djB5E/5nSWHdYEeJHPY7zDuyj2H07bK759R114jU7B5+r3qGoJg2pwjsXXd8ID7EOSZ9dR+Y4Z5mUM39Pac/XRwQDpkyI0W2nb9lAxDPqza1u4NUu/n0WjCdA/zPQPIkNlOJkOd9k3ViR2bvHjQlX4yM+byZU+997KfdhvtZLO97uG1OZy9LkHoXr6GhZfc+uhu3/Gam+0b0XitR9tXqT2EDC2FGYp+Ekyf9fPvdzFZ97qnMm62b1JVy0YHG+3MFLAee2bJfAlSpkM/JXPYl0rIJdVntiOq59n0Q9Jhmds5YSIit0etJl586WV890+qXb7n9gru/NoVfDqwqG0whJjhHZJrRhpE/tZdhEobRtqRXMXaktuGUYoXVz/asQFB0dnLtF1ELbmBGJ5ZPqckCSkAcq2Ko9lgnkCtvuuSpG8FfxqeZfPAsZcI7mAjt0pqK4SLgdNiAYdnrW82UVGjCyYPYrOIxdsVIBl3uZriyGi7He0ijcqJyu0lhHcko64O6S3K6wAE1agGuVcFq9tx7GfV39ksYq12XVfM2j21fgnY04DCpmMt7EWtaVzKJlymVKAAHmtv+esdbQAi6Jt8wMi6GErbaqlQaeW6chVru8D6QoCC5VVUbkpIZSXUswCaVdTked9iQJBnNln081oyJ3p7zv3oYG8Zcqmlu37qC5t9U22k9lsM2TTZzdvGhiyuMrS9grUXSlg39cmj3ahVFzxqQ0a4Kz3Zc18fY/nqNn3Y6Vz7v0HW3drr4FYfP3qRL2+s6a8zWQn1bHe2xkluPXV3gPGam+0bxXitZ9tXXsWNaWVSZ+gn6+aqCY9lTW4Esbe9YB1/x5U21q5tTmeWTdknQQmgn5T1yRHHY+eVL7z08vRPR12JiUTd+TDPd1YOFL/Xbvh5dt0MYl9pjPpasLP53uDTwSn1aEic8fc0D55TbNsxp5vITj9r+9zec9tfOjRlaDQYm2RNqiOmX/ze69zvEiGnibBXRFiju3tSj5JxpA/9dI7nIRMRuT2zCPMDWdtDDJyMmT1VqtvyQco5o3luO1/JcJ7QXi8w6vVgkwjbtju6keN+liPYy5ozSXqBz3k0aBGXSc4wGARu/d3tc6/XDXKtXu5F+SLjSN/6aToEwTWnb7Jh5HaI6KkK52yXMkKGCqNOhPQHZYgQQiYULfAyuk1fRw0nt4QQQgghhBBCxp6J2y2ZEEIIIYQQQsj5g5NbQgghhBBCCCFjDye3hBBCBo7TbsT9v3qr+3sSMom49fXTkAHKGSHkLMPdkgkhhAwU8/ssg74ixz5g1so54ff+S7fy/eyQTMhZwkmuvOSsH/nyuzYhhJwlJiJye+HCBbwai+PChQujroqFxFYJdUlCfUfUvxN3JOxvJUZYq7OP0m4FiEggV7K2H5I57EsSChnzeWQYsK8Oj8RWydqvx4kAMmh+NU7QQfFiNNrxSh3zv16v29GOm/+crmsgoiCp/TtTQF0qIZcM8uMJGTI+8lWXJP0vyGczbrLhJ1/dMxz5CqQ3MwXU1fYbBmddd3uOn4gv4o6EeimHhLkP939VFCSJduYUmYjJ7S9Fv4RXfyWO33jrN/HiSy93UfIV5B9s4mP9702kB1WpZA5i7Bn2otERvwZIVXBmA5nMYf8MTworT55ZPsvHLeNDuQ3ZcrCNFoaN1obqXymHhPl7m/NCa+uOgckAja7uOLHU56yitNOwBhu9oLefQ9uNV9uOAB8ZtA+0zf+ajw8ytdF+Lf9rt9C2/IhnaJ/D1yV4Y+g9pwGeouukDgcu4C1DlmNn2A6NjAA2zs3pM9gJaiduk+hOeaN8KZy+7fMcP9nGMna59rR9qtOl7jhJ89YVnqjjImddoE0Ku29DZxtvG8s5/NbWsaXjQn4yiPdf57ESjWJx9xliGY4pToOJmNxqXLhwAenX38CrsXig89P5JeDDO7h6Tfn7WvUf4rU7VwZXoVOZeAVDli8iMU5ROLmNFiponzgeRPtRpxIfFuLOBmInRX3wsHcSx7o+mGvhCBFVKYuIoIUjU9mjJhBRlbK4oHzum0wB63MPsabWZ+1w3lQf4oe4I2F96j7WanLnQbZtQNxl0GnAbY7geg3Ae019NKdYOl3D7brykwrwyDaZIFAGlRsIle/CSUwSWyWkYNKJSBuDWi8ZyhSwrjl9o1Es7gIpOpAc8LdxTmnFQdP/tXOCOprMsusk2273HIl8ba9gMRrFyvZp3vSM4TJ+Smy9hbnDu8ozy1aB2FvGJNXT9okoZOdxmFWfd/Yh5rIFfdzjpSu8SGyVUE+2sbbrMFJO5rAvXUc7W7SMqYLgbuMrWF2y9tu1mgyctGGZwp60Uelw0AwA2ppTYyLX3L76K3HMhGdR/PD38fnnn7ue9+jpZ3jj9TeR3v0ARbyCdPw5PP3wsemMBHKlDcRQxdrSKgbhvwEA+UkYBWkDMwCAFvaiK9Biu+KOhNSsdqb1GJI57GfjELTPzaIpKqzWVXAuK5fvA8k4Eqh0/A7rPYGjXcUwJLZKEPEQciyOGbmKvcN5pGIC5Npd3Lhd6Swr29upx/bbXsGiapgqt6Kwxr3zWIlq3xjnDQLHtk/mkJhtYS9q1CJ/r4pEVpnQhgSgUdYmsBHgoAHMRgAA4SkBOLgPLCgmIIIGGggjYr5ppoD6clhvc38SyCXDOCqvqO2ZQHxOAASlPv3mCNj7gnxsuvNWCet6BzP1r2QO+xmgovYPAHofsZRZllBfBmB6sbi4IyFyXIUQU/u1rQ95yoNeJ3T1ovK82qcSW9dtR4bbttb2A6A5OtT2OzyJI6b+VnN/sJfT5c9STkZt9yHmluMQTG3o+swsdequ/fxk0G39a7drb+0TVvNx+zpD+//9I7cVrC5pvWwVNwYYVXLWiSIKUgTt2kXEYgKOdovAchozJj3jJkOwlbUeAzp0/0D0sPaMEw5pdCLSMaCW1a0WIrOAcCmOBIC4hwy1XrgIufa+0Qe3GzhajiAM9G1f/fTTpMgX4N3nu82I8Fp7q12ve4fT8OQLCCFXktT+bm5zsxzIHW0u7kiIHGhyZy/rPZZx1d32crCOn7xsn989hzF+qtxeMq5TruIwE0doWr2Xl9xuXcdM8z5W1HonYvMQICjjnm0vXeGNXp9MAev2g2Wt34goZLu7rruNt2PXZdY2MvowGTcmKnJrZuryZVxLeEuatPkern4IvPFgEx8/eBVPv34H4u6AKjAdgmD3BqnMLF9HW/WA7TXDekRV3JEs3vC12kWLV1u8GYe8a/I6mdOdM2lLdHHRZmSBPBoncaQdUjvyt0zXzFYhJI17CrF5xXMmxJFSPWHCVBiAorwTx3eN+h7OQxyn6LAJcUdC6lJV91rq7TcdgmCPwJfbkHERIa17bTeABRHiAtDYbqEtm44hjwYiEDMR4CCP1rEM4YV+2iiMkKB49Q2PaRFH5vr0iL3/7ZmjzJkC1qfuG/1kF0iZI5pq/zA8wmmIUAzFYlTx6B7pfdc66JiJaR7hu6jB6KN+8jB4hte2ia2S1Stu9ygLccS037rbwoxJBpU21NquCFltW63c3PFd7DUFxJZDqGSrkIUQwoD/MxsSTmmSQTBPar2uZb+m03pbp7WFp7HDq7dODCOm6lDFBtj6losM6WW1/mM5pgyA9WhMR2bJEEiGIGhpplp0ZVfrd94yVHnyDMJcXO/bia3rmBmAfAXRT5MkX0H/3Mp3IwvDSnHumdk4QuXO8ZMRlXOP9M0sR9CIdpb1kls/3e02fvKzfSMfPyXjmBNaaGwDfrYvPCXo6c1aVHSviT7HMqMnoU7agzue+qTcNvQHGSoTGbkNSvTO23g3/mN889odFJffxMfvbOLyh+YJbqUHz42IgpTGjCWqakWuva8LU/6ghdSC0tVDl2TUtk0epNpDiLGQ7tVuHctILUuoLzhc+1Eb8nIadSnS4T3WyN+rYj+TQ8LmCe7wSqKFMKBM6FTBL2Rl1O7lgZjmCVM8e4Kwgbq0YRRtmn3wvbTfKBARmZVRy/Yanc+jeFyCiPdxA0DOfvReG/sZIL8EYMt2cLvH6PN0DvuSMilcLYsoLPdUcRNaGzj3WXEhDMyGUZdMq9LltmLEAQAt7Gl9slzFYeYtZcAawGgY8lBB+2QDc6rB9JMHwOaJHhQDb1tFVo7KXv3L1H6PDAOoebXry2ZzKKOdNMpVbleAnQ3ItSLyMCYO/s9sOO1nT3sMOjjuZwLqtnnO6eKlEwHApEN1vWou7yVDMmrbav8ptyFn59VjYYQEtQ+o5A9aSCVDpuc8JD2cKaC+DOxFl5TIs/mYmwxtr2BvQcK6JGEdgFyr4gihvtdjdqWfxly+gGDR2UH1/25eOXQqMtcs6lH31rGM1FTwuL/yDBXyelTTW279dLfb+Mm7RqMeP4koZJVgicXie9q+sOFIu12BuBN0hxp1TKx97IhQ94hNbq3ZLMHqZY/aDp88VqLqOmKPOQLpn4md3J4cP8WDipfFvIJ/9gvP4S8/fA9FANj9AF+78jbe/eIrwO73+rizmqKRKaC+Iw6085pTOOqSZFUS5hQOSULdIS0H5VVUbpYQn35ofJfMQYwBtWxUOTeZw342FLBGDveYNOwDIUCPXDQQwpwa1TUGMXpMAqFLqie0bKRl9e/nbKEtpxFbDimDSnN9hvwcgqdOjyuja1t3RBQsaesiCpJfqpXBKJ6Z03pXp++Hed/RvYfTTSdO0LrtchtyNo5Usoq1qGp/9AyXFkI+MpQ3p0omc9ifG8zeFL319fGTLw0veeqm//udO8i18WcXN7n1sdhjOX5SJpuw9F1v29eKyUjF0gjtRnFjG1DGN4B8EGQyaU6zHyC9BgZUxB0lCLVyqu2vLDFpRKNYOc3bnkMmMi35u7Uq/sMH/9Zzva3G5SvGBlLTl5+zHVV3VuslFfJRG/KlkE85dZ3DQR5K1EpA7KZp592bcQjNRmcUdntFSb1xTG9QdmXbawrqWgrb0YNniCXnjS+mTSlm2j0D/UC1vp47v/XRfj3jsDu0L3k0mta21ylXcSibU58SyGXigMkD3Bdd76BcQfVQBkz9wqmfaDsFBr9uC21ZwFzMSMUyryNqHcuYWQ7Yppk0YniIqm40lI0tukthCiYPyu8c1Pb6w2pb5ffPLJg31QkmZcoAQ0sX09I4gxHkmQ22/RTsm9TYU4r9BsaDnphqdel2MN7bc/bTiQHpkCE3Wmjb9VMyDPmwalu7N0g9nEejCdM9zPcMJkPqESV6ZI+KqTqxm11Xu9JPZsZQvjQ6dnwNsDmUkyx0u3xgUHQvX8PCS259dLfv+MnN9o1o/JTMYb9jYqvUx0tuK7WHkKGlMEPRT4Lp87iRzCExq2bSdIuTfkrmsC+VkEua3qCRKXSOQ5MOy9zIUJioyO3f/d3n+KP/9Af40V//VYCzH2PzZgn5B2/iY21z5U8b+NrNfqK2wRBiRiqKXLuresKA/K27CJU2jDQnuYq1JbcNoxSvsX60Y8ODorNXa7uIWnIDMTyzfE5JElJQ08Rmg3ketfpqKWZanUYb3VNSWyFcDJwWCzi0vb7ZRAWrS8oGYHr6ULOIxdsVIOm2K7fiWGi7He0ijcqJyu0lhHcko64O6S2VJ8+wDkE1qkHuVcHqdhz7WfV3NotYq13XFbN2T62fAPY0oLDpWAt7UeuAVdmES2vDYB5rb3noHausxJX+q7bhcNoWyN8qIiKllevKVaztAusLAQqWV1G5KSGVlVDPAmhWUZPnfYsBQZ7ZcPCKoGoDa6/JZq/pyW5leh249/ac+9GJ3jLkUkt3/dQXNnuj2izttxiyabJj6j29ZcicoigbES8zj9qQEe5KT/bc18dQvjR6cRA5rVcfFb3IlzfW9NeZrIR6tjtb4yS3nro7wPjJzfaNYvykTb4FfYMrGBmAXnJbXsWNaWVSZ+gnp4280KErPLGlFqckCSnLJnymdOZlCfXlYM/Ty8br7dAs9hY1D6CflPXJEcdj5HT4wksvT/901JXolwsXLuCXol/Cn0t/GihaeyqoOy3mB7jLMgmIvhbMee3x+cAp9WhIqKlYlXPT3qfYtmOMPR3ZaZfjIDsnBynjdl5/6ZOUodFgbJJ1WhPFcaOXNbdesmC+XhB5GUxaMvUoGUf60E+cF5waExG5/fzzz/HdP6mOuhqdCPOIJwHPpb9kgGievs5XMpwntNcLjD6KPnmwbYPjFyUKMjgOWsbtvF4H4HzOo0GLuJxmBHQc6aVfe5Xp9nr9TmwpX2Qc6Vs/TYcguOb0kUEyEZHbs4qeGsFd0cgkw6gTIf1BGSKEkAlFC7ycg01Yzwic3BJCCCGEEEIIGXsmcrdkQgghhBBCCCHnC05uCSGEEEIIIYSMPZzcEkIIIYQQQggZezi5JWOJ26sQenk/JiFkvOlHHzi9i7ff+xIyyZxGv3e6B+WNEBKEiXgVEDl/OL3DMuh7/OzXcPqeEDJe+L3bthv9YP/s9M5Q+/+d9Al1CSG94/T+3W7fyUsIOX9MROT2xZdeRvr1N/DiSy+PuioWElsl1CUJ9R1R/07ckbC/lRhhrc4+SrsVICKBXMnafma6eW/mYjRq+fP7XieZw74koZAx14sMA8rG8EhslVzl6MzjI4PapNX8blunyarXhNeuA/z0gv24k06xIqIgqf07U0BdKiGX7K05CBkoAeTL/uf1/SAwy6smT07fGQxHvgLpzUwBdbX9hsFZ191Bx2vEGXFHQr2UQ8Lch/u/KgqSdK7tzERMbq+8+JI+wb2aSOLChQsBS76C/INNfKz+fevOlcFVKpmDGHuGvWh0xO+4VRWO2WAlc9g/w5O0ypNnls/yccvy2cmo+hnZntMWy23Ilsq00XI7d2Boz0z9K+WQMH9vc5Zoz7ZjYDJAo6s7aiz1Oaso7TSswUbXqM9B/7MZ//Fq2xHgI4Nuk0+vz4Ah+34Ddye6T2VuoW35Ec/Q5rsObRh6z2mAp+g6ZxkyZMzBrqmTt/o5H+y5EkC+gjiABhVFtU9izZkR9u8MKF8Kp2/7vMdr1rGMXa49bZ+n3HrrCi+87mk51uUY2V0/2cZztt/SOrZ0XMhPKl39HmfyWIlGsbj7DLHM+RxTTMTk1swXF7+E9Ov/AlOXL/uceQV37i3hcvUDXL12B1evfYDv/8KbyC8PsDKnMhEKhixfRGKcomJyGy1U0D7pPNRrpKWb1GRbZdB+1KnEh4W4s4HYSVH/LXsncazryrKFI0RUpSsighaOTGWPmkBENWzigvK5bzIFrM89xJpan7XDeVN9iC/bK6a+WcTR7HXDuLFtA+Iug34TU7eJqpfu8Buwm/WGU1TYLVIsP6kAj2yTCQIl0rCBUPkuag6Nk9gqIQWTTkRaH9QmtkqoJ9tY23WytiIK2XkcZtXnmX2IuezZdeyODm8bFyRyOyjcHFPme7nJ5UjkS9XvK9unedMzhst4LbH1FuYO76qyVwVibwW0fV5y660rPPG6Z6aAdS0gFY1icRfKE6XoAAASj0lEQVRIBXQ2e+snUxtoE86bNg100kalw0EzAM6xrZnINbdTly/jq//yN/BH9/4AR//LbXR/BZeff4xvbz5WPz/Gf/nBZ/itK1cAaN8lkCttIIYq1pZWMQh/CgDIT8IoSBuYAQC0sBddgRbbFXckpGa1M63HkMxhPxuHoH1uFk1RYbWugnNZuXwfSMaRQKXjd1jvCRztKoo6sVWCiIeQY3HMyFXsHc4jFRMg1+7ixu1KZ1nZ3k49tt/2ChZVQ1G5FcWg4t5u6/G81ukpHjCtBka9BoHjs07mkJhtYS9q/Or8vSoSWWVCGxKARlmbwEaAgwYwGwEAhKcE4OA+sKAozggaaCCMiPmmmQLqy2H9GfuTQC4ZxlF5RX1+CcTnBEBQ6tPvs7H3PfnYdOetEtb1Dm3qz8kc9jNARe2PAPQ+aSmzLKG+DAAyatklrJaV+0WOqxBiqhzZ+qyn/Ol1gn69rkmGIOAZGmVg2G1rbT8AmipU2+/wJI6Y+lvN/cFeTpd3SzkZtd2HmFuOQzC1oeszs9Sp2/bzlkEn+fWK1Ab53mtdn9N6W//BfQWrS1ovW8WNAUaVnHWwiIIUQbt2EbGYgKPdIrCcxoxJz7jJEGxlrceADlszEL2vPeOEQ2RVRDoG1LK6lURkFhAuqfbs9pJyj0wB67aSia3rmGnex4ra3onYPAQIiv7sU5f76adJkS/AWQaGvd61u/Xrw5MvIIRcSVL7u7nNzXIgd7S5uCMhcqDJnb2s99jJVXfby8E6XvOyfX73HMZ4TZdNAChXcZiJIzSt3svD9rU85dZLV3jhc88XLkKuvW/Uf7uBo+UIwoBPW/jopyfPsL78FnLJClbLSh3kw6JjGxl9mPTLxEVuzXwx+iWPo4/x9NMriOqR2leQjj+H5y8PKDV5OgThpO0oFDPL19FWPVJ7zbAeURV3JIv3Z6120eI5Em/GIe+aogzmdOdM2hLtW7QZPSCPxkkcaYd0lfwt0zWzVQhJ455CbB7tbBFHQhypqftYq8kQpsIAFGWaODY8UmuH8xCHHB3ud/2PVyTmNBF3JKQuVXUPov68pkMQ7BH/chsyLiKkKfLtBrAgQlwAGtsttGXTMeTRQARiJgIc5NE6liG80M8zCSMkKF59w2NaxJG5Pj1i7+97Zj9UpoD1qfsmbyeQMkc01f5oeITTEKEYisWo4tE90mXFOuiYiWke4buowZAJP/nr97fWJQn1bBzyriabw2vbxFbJ6qG2u7iFOGLab91tYcYk80obGpFmWW1brdzc8V3sNQXElkOoZKuQhRDCgP8zO0W6WQ/YbeTWKR3Tad3tIKNZbnjr4DBiqs5WbI6tb7nIkF5W6z+WY8oA2ByJsGaWDAHVIdQuQ01VvI72rqnfeRCeEvQ0SXFHwvrUfew10adORCD9NCny1avNDbJ8yM9WDzLduWdm4wiVO8dryoRazcZxKTqzHEEj2lnWS279dLfbeM3P9o1ivGYhGcec0EJjG/CzfcORW+97Vp48gzAX1+U0sXUdM0FssZ9+2l5RI88S6tIGQuWoyVE4ZMrtQHpyEpnIyK3Gn0l/6nH0MTZ/r4FvvbOJj19XPn9S/QyX9agtYPUGBkVEQUpjxhJVtSLX3tcVTv6ghdSC0vVCl2TUto0yldpDiLGQ7jlqHctILUuoLzhc+1Eb8nIadSnS4c3VyN+rYj+TQ8Lmme3wEqKFMKBMsJr3sVoGClkZtXt5IHZdK4X4nABB2EBd2jCKNs1+rl7azxu3iExQA+h27ml4og1ERGZl1LK9ZgPkUTwuQcT7uAEgZz96r439DJBfArBlO7jdY/R5Ood9SZkUrpZFFPpO39fawFlGxIUwMBtGXUobX8ptxYgDAFrY02SgXMVh5i3FCAXw2BvyV0H7ZANzqsH0kz/A5onugrzu0VY2eijAFDkfeNsqsnlU9upfpvZ7ZBhALQJWXzabQxntpFGucrsC7GxArhWRhzEY8H9mvbefF07pwYOM3Dpdz22Jw+nipYMBwKSzdT1uLu8lQzJq22r/KbchZ+fVY2GEBLUPqOQPWkglQ6bnPHi9D0Dtl8BedEmJPAcuGDYm5LcrEHfS/kV86Eo/jbl8BbWX3UVa3elGTk9F5ppFXVe3jmWkpvxjeRrKM1QwbIC33PrpbrfxmneNRjNeMxBRyCrBGYvF97R9vcqtOgbXPtoj1G733F7B3oKEdUnCOgC5VsURQsbabZvcWrNZ4K6fMgXUly+ilo1iFTnsZyXsv3D3lCa4eaxE1c2lPOYkk8hETm5Pjp/iO3/8EY6fPvU+sf4RvnLtI/1jOr+Jy3/22KNAENSUiUwB9R1xoJ3JnH5VlySr0Ja1VBy1IzukyaC8isrNEuLTD43vkjmIMSiCp3mesqGANXK4xymjGdkgk9OzMbH1wT4QAoxUVoQwp0Z1jUGM7mdE6JLqlSwbaVn9+2VbaMtpxJZDitI212fIzz146vQ4kUexdh3iCwmMsm3dEVGwpK2LKEjX/QrpjOKZOcl/0KhpP3Lfy/0Gj5sOnqBVpeU25GwcqWQVa1HV3jlluDjQOpaRiqUR2o3ixjag6ElAPuh/YNlbXx8/+Tpt3FKgz5Sd7hs3ufWx2GM5XlMmm7D0XW/b14r1I7fmNHsz/vY2b06rTuawP2fSMW6BAR/9JC6EIdfuqu2+ihvTBdRdlggOHmWJSSMaxcrQ73W2mLi05D+v17G78/v+E1sb0Ttv442pBoq75m/VXc56SU181IZ8KeRTTl0DcJCHEkUSLAvNxZtxCM1GZxR2e0VJhXFMN1B2SdtrCuraBtvRg2eIJeeNL6ZNKRXaPQP9QLW+njux9dF+AXDbVdHv3CDfB8dhN2pf8mg0hc5NBQAlgiKbU58SyGXigMkD3Bdd76BcQfVQBkz90KlfarsMBr9uC21ZwFzMSMUyryNqHcuYWQ7Yppk0YniIqm60lY0tukthCiZ/yu/sZ8dVEemYoO6IOKy2VX7/zIJ5o4xgUq0Yey11S0vNCkaQZ9Z/+wXDK2XYTK8pk174bXrjRm/P2U8HB6RDhtxooW3XT8kw5MOqbe3eIPV+Ho0mTPdwuqczldpDyNBSIaH8TsH0GdB1Yje7rnaln8xMiHydFt3YeD+6l69h4SW3Prrbd7zmZvtGNF5L5rDfMbFV6uNl+wLJbdcEs7fqESXS7Jn9pOGvn7SlfACQeOFid9V20k/JHPalEnJJ0xs0MoXOcWgymBNwEpmIyO1Rq4kXX3oZ3/2TKn70138VuFz0ztt4N/6c8qFZwtWb3xtSDa0IMSM1RK7dVT1TQP7WXYRKG0bakVzF2pLbhlGKF1c/2rEBQdHZy7RdRC25gRieWT6nJAkpqKkYs8E8gVp9tTQOrU6n4VnudmOo4a21VVJbIVwMnBYLODxrfbOJClaXlA3H9PShZhGLtytAMu5yNcWR0XY72kUalROV20sI70hGXR3SWypPnmEdgmpUg9yrgtXtOPaz6u9sFrFWu64rZu2eWr8E7GlAYdOxFvaiViOkbMKltWEwj7W3/PWOdQMQ2fC6Y1htC+RvFRGR0sp15SrWdoH1hQAFy6uo3JSQykqoZwE0q6jJ877FzL/F/ZkNl14dVV5l/Bxm3V7Pi96ecz862FuGXGrprp/6wmbfVBup/RZDNk12U7unLV0wJUlIaVlNZTVSYvmdtmU7j9qQEe5KT/bc18dYvtzQ5GDQUdXuN3/0phf58saa/jqTlVDPdmdrnOTWU3cHGK+52b5RjNe0ybegb3AFI+PQy/Z5yq23rvDC296an6fVTvvhpZ+cx3pdLEkLoJ+U9ckRx2PnlS+89PL0T0ddiYlE3fkwP8BdlkkwQ+p1jtsuqF67o/qir7VwXut8PnBKPRoSaipW5dy09ym27ZhiHvB6rQcMsnbWTpCMj8GkTlKGRoOxSdaoJ4rjwjBThPu18e5Qj5JxpA/9dI7nIRMRuT2zCPOIJ4HKuXyZ+HAIYsy8zhlsBFfz9DlEA84RWmTyPKwHO23YtsGw71TsdTzI993cz/y51+vxOY8GLePpLERAx4lhrn3t18Y7Qfki40jf+mk6BME1p2+yYeR2iOipwudslzJChgqjToT0B2WIEEImFC3wMvpNX0cFJ7eEEEIIIYQQQsaeidstmRBCCCGEEELI+YOTW0IIIYQQQgghYw8nt4QQQgghhBBCxh5ObgkhhBBCCCGEjD18FVA/LL+Jj1+/ovy/WcJV8XujrQ8hhBBCCCGEnFMmanIbvfM23r383R4mma8g/+BVPP36e9isd1Fs9wNc3dXu2+UtPfk1/Oo//10s/H3g/7Z+E/+u/h39yD9a/G9YCf+M6dy/wUHpl/Gf/2aQ9yeEEEIIIYSQ8WKiJreTwSpSr38VqP8mDn7+d/GzTqe0/yPee5A77YoRQgghhBBCyJllMia3i7+Ob70TwfMAgCV8/GAJAPBp9QN8ZfMxACCd38Qbs1qBx/jmtQ9QtH3/c+9s4su249E7b+Pd+HP6rczX9CeBXGkDMVSxtrSKSqAyOex9mAPwa/jVnw94G0IIIYQQQgg550zG5Lb+Eb5y7SPXtOR0fhNvoISr15Tvo3fexrv3fh2Pbn6EongHRY+0ZGnzPVzd1D69gvyDJaQ3lYnvyAh9FW+//lXl/4ziEkIIIYQQQsiETG49uYIXpz7DJ79nTHilT1r4NH4J0wAkv+LmTaMAAJ/h6SKAQGtzK1hdChavDcr/qf8y3tPvraQw/6vF/2lZl0sIIYQQQggh5w2+CsiTV5B//Qr+8sM7uHrtDq5eK+EvR10lCzm02qOuAyGEEEIIIYSMnoma3EqPfwxMXULU8u1j/Oj4OXw59Yr+TToVwfPN/2FKLX6Mp58+h8vTtgsuXsJlfIanj5SP0Tuv4ue6qlECuZKEeimHRFflAvIz/wZfDP0NfvhDRm0JIYQQQggh55svvPTy9E9HXYnBcQV37r2JLys7S5k2f7J+j08b+NrNj6wpyZb0Y+cNp9Bs4JOpMPB7ytpc+2ZTyjnm9932sqGU8RogMz+q/2PsteyvAuJrgAghhBBCCCEEmLjJLSGEEEIIIYSQ88hEpSUTQgghhBBCCDmfcHJLCCGEEEIIIWTs4eSWEEIIIYQQQsjYw8ktIYQQQgghhJCxh5NbQgghhBBCCCFjDye3hBBCCCGEEELGHk5uh8i3fztt+bfbcoQQQgghhBBCgsHJ7Snw2jeKnLASQgghhBBCyBD5e6OuwFgQ+qfYWZ7F8YMivnXxNdz9J3+L3W9U8YemU9wmr+bvv/3babz2jaJnGfNxZ34WW7+9iKm/KOHWs1/Et6/9A/zX3W/jd9rd/CBCCCGEEEIImSw4uQ1C+yc4Nn/+yU/wvx1Os09M7ZNZt/PN57mlMhvX+RQnPwGm9CN/i8ec2BJCCCGEEELOOUxLDsz/w8kxcPDsb4d6F20S+9o3ivqfE8fPfgwc/wQ/HmptCCGEEEIIIWQ8OHOR2+idt/FbaOFpPIKf+7SBb/4gjDfiz+HT6gf4yuZjAFdw596b+PLzWonH+Oa1D6BNAdP5Tbwxa77iZ/jk6+9hs658SmyVsB4DatklrJaD1uqHuP2NHyr/bVfx2l84n2WOtnYbxQ3Oj/E7/167zn/HrW8M4JKEEEIIIYQQMuacucktADwfD+P7Xy8B7yzhjcslfK36Kt69fAXAY2B5CV8+LuHqze91lIveeRtvTDXwtWsfQVInwZe/Y0xsh409tZgQQgghhBBCyOlwNtOSm99VJ6Sf4ZM92yT20Qk+nV3Cxw/eRJAp5OUrVyyfK7eXsBjtJmrbP4OL2hJCCCGEEEIIceJMRm49qX+Er1z7CMAryD/YxBumtGPpkxY+jUfw7oOIcm6zhKubj0dWVe0VQE4bR9nxSmkmhBBCCCGEEOLN+E1udb4H8dr3kM5vIjoNoA6kUxE8/fAOvrLrXqq3NbfBcXr1j9ukVjvX7/VAhBBCCCGEEEK8GbvJbfTO23g3/pzxRbOEq+pktrjXwGvvbOLj12E9Lnauzx0WTlFabYLrdq4G05cJIYQQQgghpDe+8NLL0z8ddSUGRTq/ideearsqA1j8dXzrnTC+//Xhbipln5R6RWq90pKdJrsA05QJIYQQQgghxI8JmtwquyP/4g9Mk9vlN/Hx67C8KogQQgghhBBCyOQxQZNbqJHaCPRX4NrecUsIIYQQQgghZDKZrMktIYQQQgghhJBzydl8zy0hhBBCCCGEENIFnNwSQgghhBBCCBl7OLklhBBCCCGEEDL2cHJLCCGEEEIIIWTs4eSWEEIIIYQQQsjYw8ktIYQQQgghhJCxh5NbQgghhBBCCCFjDye3hBBCCCGEEELGnv8PC3HeQdzVAg4AAAAASUVORK5CYII=;" vertex="1" parent="1">
                    <mxGeometry x="250" y="240" width="661" height="254.39" as="geometry"/>
                </mxCell>
            </root>
        </mxGraphModel>
    </diagram>
</mxfile>